<ttFont>
<head>
    <!-- Most of this table will be recalculated by the compiler -->
    <tableVersion value="1.0"/>
    <fontRevision value="1.0"/>
    <checkSumAdjustment value="0x19f8837f"/>
    <magicNumber value="0x5f0f3cf5"/>
    <flags value="00000000 00011111"/>
    <unitsPerEm value="1000"/>
    <created value="Mon Jun 29 22:52:19 2015"/>
    <modified value="Mon Jun 29 22:52:19 2015"/>
    <xMin value="-314"/>
    <yMin value="-250"/>
    <xMax value="1076"/>
    <yMax value="750"/>
    <macStyle value="00000000 00000010"/>
    <lowestRecPPEM value="8"/>
    <fontDirectionHint value="2"/>
    <indexToLocFormat value="0"/>
    <glyphDataFormat value="0"/>
  </head>
    <TTGlyph name=".notdef" xMin="50" yMin="0" xMax="200" yMax="533">
      <contour>
        <pt x="50" y="0" on="1"/>
        <pt x="50" y="533" on="1"/>
        <pt x="200" y="533" on="1"/>
        <pt x="200" y="0" on="1"/>
      </contour>
      <contour>
        <pt x="100" y="50" on="1"/>
        <pt x="150" y="50" on="1"/>
        <pt x="150" y="483" on="1"/>
        <pt x="100" y="483" on="1"/>
      </contour>
    </TTGlyph>
    <TTGlyph name="A" xMin="28" yMin="0" xMax="638" yMax="694">
      <contour>
        <pt x="28" y="0" on="1"/>
        <pt x="32" y="7" on="0"/>
        <pt x="232" y="353" on="1"/>
        <pt x="429" y="694" on="1"/>
        <pt x="533" y="694" on="1"/>
        <pt x="585" y="350" on="1"/>
        <pt x="596" y="275" on="0"/>
        <pt x="625" y="88" on="0"/>
        <pt x="632" y="46" on="1"/>
        <pt x="638" y="3" on="1"/>
        <pt x="638" y="0" on="1"/>
        <pt x="530" y="0" on="1"/>
        <pt x="528" y="18" on="1"/>
        <pt x="526" y="25" on="0"/>
        <pt x="503" y="176" on="0"/>
        <pt x="503" y="183" on="1"/>
        <pt x="223" y="183" on="1"/>
        <pt x="187" y="120" on="1"/>
        <pt x="168" y="88" on="0"/>
        <pt x="135" y="29" on="1"/>
        <pt x="118" y="1" on="1"/>
        <pt x="73" y="0" on="1"/>
      </contour>
      <contour>
        <pt x="454" y="589" on="1"/>
        <pt x="454" y="610" on="1"/>
        <pt x="434" y="556" on="0"/>
        <pt x="290" y="301" on="1"/>
        <pt x="264" y="255" on="1"/>
        <pt x="378" y="254" on="1"/>
        <pt x="492" y="254" on="1"/>
        <pt x="490" y="274" on="1"/>
        <pt x="454" y="512" on="0"/>
      </contour>
    </TTGlyph>
    <TTGlyph name="B" xMin="90" yMin="0" xMax="696" yMax="694">
      <contour>
        <pt x="501" y="363" on="1"/>
        <pt x="562" y="354" on="0"/>
        <pt x="653" y="276" on="0"/>
        <pt x="653" y="222" on="1"/>
        <pt x="653" y="201" on="0"/>
        <pt x="650" y="189" on="1"/>
        <pt x="639" y="142" on="0"/>
        <pt x="566" y="62" on="0"/>
        <pt x="518" y="38" on="1"/>
        <pt x="468" y="12" on="0"/>
        <pt x="403" y="2" on="1"/>
        <pt x="394" y="1" on="0"/>
        <pt x="240" y="0" on="1"/>
        <pt x="90" y="0" on="0"/>
        <pt x="90" y="1" on="1"/>
        <pt x="100" y="46" on="1"/>
        <pt x="109" y="90" on="0"/>
        <pt x="147" y="265" on="0"/>
        <pt x="164" y="348" on="1"/>
        <pt x="238" y="694" on="1"/>
        <pt x="375" y="694" on="1"/>
        <pt x="518" y="693" on="0"/>
        <pt x="546" y="688" on="1"/>
        <pt x="655" y="665" on="0"/>
        <pt x="687" y="588" on="1"/>
        <pt x="696" y="567" on="0"/>
        <pt x="696" y="544" on="1"/>
        <pt x="696" y="506" on="0"/>
        <pt x="671" y="468" on="1"/>
        <pt x="624" y="399" on="0"/>
        <pt x="516" y="368" on="1"/>
      </contour>
      <contour>
        <pt x="479" y="621" on="1"/>
        <pt x="472" y="622" on="0"/>
        <pt x="394" y="623" on="1"/>
        <pt x="320" y="623" on="1"/>
        <pt x="297" y="513" on="1"/>
        <pt x="292" y="489" on="0"/>
        <pt x="279" y="429" on="0"/>
        <pt x="276" y="415" on="1"/>
        <pt x="273" y="401" on="1"/>
        <pt x="273" y="399" on="1"/>
        <pt x="339" y="399" on="1"/>
        <pt x="428" y="399" on="0"/>
        <pt x="464" y="408" on="1"/>
        <pt x="529" y="424" on="0"/>
        <pt x="571" y="466" on="1"/>
        <pt x="601" y="498" on="0"/>
        <pt x="601" y="530" on="1"/>
        <pt x="601" y="543" on="0"/>
        <pt x="595" y="558" on="1"/>
        <pt x="570" y="607" on="0"/>
      </contour>
      <contour>
        <pt x="257" y="322" on="1"/>
        <pt x="256" y="320" on="0"/>
        <pt x="204" y="74" on="0"/>
        <pt x="203" y="73" on="1"/>
        <pt x="203" y="71" on="0"/>
        <pt x="289" y="71" on="1"/>
        <pt x="379" y="72" on="0"/>
        <pt x="387" y="73" on="1"/>
        <pt x="443" y="81" on="0"/>
        <pt x="530" y="134" on="0"/>
        <pt x="547" y="170" on="1"/>
        <pt x="556" y="189" on="0"/>
        <pt x="556" y="210" on="1"/>
        <pt x="556" y="249" on="0"/>
        <pt x="525" y="277" on="1"/>
        <pt x="491" y="309" on="0"/>
        <pt x="428" y="320" on="1"/>
        <pt x="415" y="322" on="0"/>
        <pt x="336" y="323" on="1"/>
        <pt x="257" y="323" on="0"/>
      </contour>
    </TTGlyph>
    <TTGlyph name="C" xMin="124" yMin="-10" xMax="718" yMax="705">
      <contour>
        <pt x="359" y="654" on="1"/>
        <pt x="449" y="705" on="0"/>
        <pt x="544" y="705" on="1"/>
        <pt x="628" y="705" on="0"/>
        <pt x="703" y="676" on="1"/>
        <pt x="718" y="670" on="1"/>
        <pt x="719" y="669" on="0"/>
        <pt x="683" y="574" on="0"/>
        <pt x="681" y="572" on="1"/>
        <pt x="681" y="571" on="0"/>
        <pt x="676" y="575" on="0"/>
        <pt x="672" y="578" on="1"/>
        <pt x="612" y="625" on="0"/>
        <pt x="526" y="625" on="1"/>
        <pt x="495" y="625" on="0"/>
        <pt x="470" y="619" on="1"/>
        <pt x="388" y="597" on="0"/>
        <pt x="256" y="442" on="0"/>
        <pt x="236" y="343" on="1"/>
        <pt x="230" y="312" on="0"/>
        <pt x="230" y="276" on="1"/>
        <pt x="230" y="133" on="0"/>
        <pt x="330" y="85" on="1"/>
        <pt x="365" y="68" on="0"/>
        <pt x="412" y="68" on="1"/>
        <pt x="469" y="68" on="0"/>
        <pt x="544" y="91" on="0"/>
        <pt x="598" y="123" on="1"/>
        <pt x="608" y="129" on="0"/>
        <pt x="608" y="128" on="1"/>
        <pt x="606" y="109" on="0"/>
        <pt x="603" y="87" on="1"/>
        <pt x="598" y="45" on="1"/>
        <pt x="573" y="33" on="1"/>
        <pt x="521" y="7" on="0"/>
        <pt x="451" y="-10" on="0"/>
        <pt x="394" y="-10" on="1"/>
        <pt x="358" y="-10" on="0"/>
        <pt x="346" y="-8" on="1"/>
        <pt x="260" y="5" on="0"/>
        <pt x="202" y="62" on="1"/>
        <pt x="124" y="145" on="0"/>
        <pt x="124" y="266" on="1"/>
        <pt x="124" y="362" on="0"/>
        <pt x="171" y="456" on="1"/>
        <pt x="221" y="551" on="0"/>
        <pt x="302" y="616" on="1"/>
        <pt x="330" y="640" on="0"/>
      </contour>
    </TTGlyph>
    <TTGlyph name="D" xMin="88" yMin="0" xMax="747" yMax="694">
      <contour>
        <pt x="162" y="348" on="1"/>
        <pt x="236" y="694" on="1"/>
        <pt x="385" y="694" on="1"/>
        <pt x="535" y="693" on="0"/>
        <pt x="543" y="692" on="1"/>
        <pt x="638" y="675" on="0"/>
        <pt x="747" y="533" on="0"/>
        <pt x="747" y="425" on="1"/>
        <pt x="747" y="296" on="0"/>
        <pt x="672" y="187" on="1"/>
        <pt x="626" y="114" on="0"/>
        <pt x="472" y="9" on="0"/>
        <pt x="384" y="1" on="1"/>
        <pt x="376" y="0" on="0"/>
        <pt x="262" y="0" on="1"/>
        <pt x="88" y="0" on="0"/>
        <pt x="88" y="1" on="1"/>
        <pt x="98" y="46" on="1"/>
        <pt x="107" y="90" on="0"/>
        <pt x="145" y="265" on="0"/>
      </contour>
      <contour>
        <pt x="487" y="622" on="1"/>
        <pt x="481" y="623" on="0"/>
        <pt x="399" y="623" on="1"/>
        <pt x="321" y="623" on="1"/>
        <pt x="263" y="348" on="1"/>
        <pt x="249" y="283" on="0"/>
        <pt x="219" y="142" on="0"/>
        <pt x="212" y="107" on="1"/>
        <pt x="204" y="72" on="1"/>
        <pt x="204" y="71" on="0"/>
        <pt x="289" y="71" on="1"/>
        <pt x="374" y="72" on="0"/>
        <pt x="386" y="74" on="1"/>
        <pt x="508" y="95" on="0"/>
        <pt x="582" y="206" on="1"/>
        <pt x="629" y="276" on="0"/>
        <pt x="644" y="378" on="1"/>
        <pt x="646" y="396" on="0"/>
        <pt x="646" y="422" on="1"/>
        <pt x="646" y="488" on="0"/>
        <pt x="622" y="533" on="1"/>
        <pt x="581" y="612" on="0"/>
      </contour>
    </TTGlyph>
    <TTGlyph name="Delta" xMin="42" yMin="0" xMax="790" yMax="694">
      <contour>
        <pt x="273" y="343" on="1"/>
        <pt x="510" y="694" on="1"/>
        <pt x="617" y="694" on="1"/>
        <pt x="790" y="2" on="0"/>
        <pt x="790" y="0" on="1"/>
        <pt x="416" y="0" on="1"/>
        <pt x="42" y="1" on="1"/>
      </contour>
      <contour>
        <pt x="539" y="576" on="1"/>
        <pt x="536" y="597" on="0"/>
        <pt x="536" y="600" on="1"/>
        <pt x="536" y="602" on="0"/>
        <pt x="535" y="605" on="1"/>
        <pt x="534" y="607" on="0"/>
        <pt x="534" y="607" on="1"/>
        <pt x="527" y="580" on="0"/>
        <pt x="222" y="130" on="1"/>
        <pt x="201" y="98" on="1"/>
        <pt x="651" y="98" on="1"/>
        <pt x="648" y="110" on="1"/>
        <pt x="645" y="123" on="0"/>
        <pt x="632" y="175" on="0"/>
        <pt x="627" y="198" on="1"/>
        <pt x="554" y="489" on="0"/>
      </contour>
    </TTGlyph>
    <TTGlyph name="E" xMin="86" yMin="0" xMax="688" yMax="691">
      <contour>
        <pt x="86" y="2" on="1"/>
        <pt x="88" y="4" on="0"/>
        <pt x="232" y="688" on="0"/>
        <pt x="233" y="689" on="1"/>
        <pt x="233" y="691" on="0"/>
        <pt x="461" y="691" on="1"/>
        <pt x="688" y="691" on="0"/>
        <pt x="688" y="689" on="1"/>
        <pt x="686" y="687" on="0"/>
        <pt x="678" y="651" on="0"/>
        <pt x="674" y="631" on="1"/>
        <pt x="671" y="611" on="1"/>
        <pt x="495" y="611" on="1"/>
        <pt x="320" y="612" on="1"/>
        <pt x="319" y="609" on="1"/>
        <pt x="319" y="607" on="0"/>
        <pt x="297" y="501" on="1"/>
        <pt x="274" y="397" on="1"/>
        <pt x="436" y="397" on="1"/>
        <pt x="597" y="397" on="0"/>
        <pt x="597" y="396" on="1"/>
        <pt x="596" y="391" on="1"/>
        <pt x="595" y="386" on="0"/>
        <pt x="591" y="366" on="0"/>
        <pt x="589" y="358" on="1"/>
        <pt x="581" y="322" on="1"/>
        <pt x="420" y="321" on="1"/>
        <pt x="258" y="321" on="0"/>
        <pt x="258" y="320" on="1"/>
        <pt x="209" y="89" on="0"/>
        <pt x="208" y="87" on="1"/>
        <pt x="208" y="85" on="0"/>
        <pt x="390" y="85" on="1"/>
        <pt x="417" y="85" on="0"/>
        <pt x="504" y="86" on="0"/>
        <pt x="518" y="86" on="1"/>
        <pt x="572" y="85" on="1"/>
        <pt x="556" y="8" on="0"/>
        <pt x="554" y="2" on="1"/>
        <pt x="554" y="0" on="1"/>
        <pt x="86" y="0" on="1"/>
      </contour>
    </TTGlyph>
    <TTGlyph name="F" xMin="86" yMin="0" xMax="673" yMax="691">
      <contour>
        <pt x="86" y="2" on="1"/>
        <pt x="88" y="4" on="0"/>
        <pt x="232" y="688" on="0"/>
        <pt x="233" y="689" on="1"/>
        <pt x="233" y="691" on="0"/>
        <pt x="673" y="691" on="0"/>
        <pt x="673" y="689" on="1"/>
        <pt x="671" y="687" on="0"/>
        <pt x="663" y="651" on="0"/>
        <pt x="660" y="631" on="1"/>
        <pt x="656" y="611" on="1"/>
        <pt x="488" y="611" on="1"/>
        <pt x="320" y="612" on="1"/>
        <pt x="319" y="608" on="0"/>
        <pt x="295" y="495" on="0"/>
        <pt x="272" y="387" on="0"/>
        <pt x="272" y="385" on="1"/>
        <pt x="272" y="384" on="0"/>
        <pt x="419" y="384" on="1"/>
        <pt x="567" y="384" on="1"/>
        <pt x="564" y="372" on="0"/>
        <pt x="553" y="320" on="0"/>
        <pt x="551" y="308" on="1"/>
        <pt x="255" y="308" on="1"/>
        <pt x="223" y="156" on="1"/>
        <pt x="216" y="124" on="0"/>
        <pt x="198" y="39" on="0"/>
        <pt x="194" y="20" on="1"/>
        <pt x="190" y="2" on="1"/>
        <pt x="190" y="0" on="0"/>
        <pt x="138" y="0" on="1"/>
        <pt x="86" y="0" on="1"/>
      </contour>
    </TTGlyph>
    <TTGlyph name="G" xMin="125" yMin="-11" xMax="730" yMax="705">
      <contour>
        <pt x="125" y="267" on="1"/>
        <pt x="125" y="353" on="0"/>
        <pt x="195" y="513" on="0"/>
        <pt x="307" y="627" on="0"/>
        <pt x="447" y="699" on="0"/>
        <pt x="517" y="704" on="1"/>
        <pt x="519" y="704" on="0"/>
        <pt x="538" y="705" on="0"/>
        <pt x="544" y="705" on="1"/>
        <pt x="628" y="705" on="0"/>
        <pt x="699" y="673" on="1"/>
        <pt x="730" y="658" on="0"/>
        <pt x="730" y="655" on="1"/>
        <pt x="694" y="561" on="0"/>
        <pt x="693" y="560" on="1"/>
        <pt x="692" y="557" on="1"/>
        <pt x="681" y="567" on="1"/>
        <pt x="647" y="598" on="0"/>
        <pt x="578" y="626" on="0"/>
        <pt x="526" y="626" on="1"/>
        <pt x="505" y="626" on="0"/>
        <pt x="495" y="624" on="1"/>
        <pt x="393" y="607" on="0"/>
        <pt x="246" y="426" on="0"/>
        <pt x="231" y="316" on="1"/>
        <pt x="229" y="292" on="0"/>
        <pt x="229" y="277" on="1"/>
        <pt x="229" y="183" on="0"/>
        <pt x="325" y="68" on="0"/>
        <pt x="406" y="68" on="1"/>
        <pt x="442" y="68" on="0"/>
        <pt x="485" y="76" on="1"/>
        <pt x="524" y="84" on="1"/>
        <pt x="526" y="93" on="1"/>
        <pt x="528" y="102" on="0"/>
        <pt x="536" y="137" on="0"/>
        <pt x="539" y="153" on="1"/>
        <pt x="553" y="222" on="1"/>
        <pt x="553" y="223" on="0"/>
        <pt x="495" y="223" on="1"/>
        <pt x="436" y="223" on="0"/>
        <pt x="436" y="224" on="1"/>
        <pt x="436" y="230" on="0"/>
        <pt x="444" y="262" on="1"/>
        <pt x="452" y="299" on="1"/>
        <pt x="662" y="299" on="1"/>
        <pt x="662" y="296" on="1"/>
        <pt x="661" y="290" on="0"/>
        <pt x="608" y="41" on="0"/>
        <pt x="607" y="40" on="1"/>
        <pt x="603" y="30" on="0"/>
        <pt x="516" y="6" on="1"/>
        <pt x="451" y="-11" on="0"/>
        <pt x="391" y="-11" on="1"/>
        <pt x="291" y="-11" on="0"/>
        <pt x="157" y="97" on="0"/>
        <pt x="135" y="183" on="1"/>
        <pt x="125" y="222" on="0"/>
      </contour>
    </TTGlyph>
    <TTGlyph name="Gamma" xMin="87" yMin="0" xMax="646" yMax="691">
      <contour>
        <pt x="87" y="2" on="1"/>
        <pt x="88" y="4" on="0"/>
        <pt x="232" y="688" on="0"/>
        <pt x="234" y="689" on="1"/>
        <pt x="234" y="691" on="0"/>
        <pt x="646" y="691" on="0"/>
        <pt x="646" y="689" on="1"/>
        <pt x="644" y="687" on="0"/>
        <pt x="636" y="651" on="0"/>
        <pt x="632" y="631" on="1"/>
        <pt x="629" y="611" on="1"/>
        <pt x="475" y="611" on="1"/>
        <pt x="321" y="612" on="1"/>
        <pt x="193" y="4" on="0"/>
        <pt x="191" y="2" on="1"/>
        <pt x="191" y="0" on="1"/>
        <pt x="87" y="0" on="1"/>
      </contour>
    </TTGlyph>
    <TTGlyph name="H" xMin="86" yMin="0" xMax="768" yMax="694">
      <contour>
        <pt x="517" y="2" on="1"/>
        <pt x="518" y="3" on="0"/>
        <pt x="585" y="320" on="0"/>
        <pt x="585" y="322" on="1"/>
        <pt x="586" y="323" on="0"/>
        <pt x="528" y="323" on="0"/>
        <pt x="422" y="323" on="1"/>
        <pt x="259" y="323" on="1"/>
        <pt x="224" y="162" on="1"/>
        <pt x="190" y="0" on="1"/>
        <pt x="138" y="0" on="1"/>
        <pt x="86" y="0" on="0"/>
        <pt x="86" y="1" on="1"/>
        <pt x="96" y="46" on="1"/>
        <pt x="105" y="90" on="0"/>
        <pt x="143" y="265" on="0"/>
        <pt x="160" y="348" on="1"/>
        <pt x="234" y="694" on="1"/>
        <pt x="337" y="694" on="1"/>
        <pt x="337" y="691" on="1"/>
        <pt x="336" y="690" on="0"/>
        <pt x="275" y="400" on="0"/>
        <pt x="275" y="399" on="1"/>
        <pt x="602" y="399" on="1"/>
        <pt x="603" y="403" on="1"/>
        <pt x="603" y="407" on="0"/>
        <pt x="634" y="551" on="1"/>
        <pt x="665" y="694" on="1"/>
        <pt x="768" y="694" on="1"/>
        <pt x="768" y="691" on="1"/>
        <pt x="768" y="690" on="0"/>
        <pt x="622" y="5" on="0"/>
        <pt x="621" y="2" on="1"/>
        <pt x="621" y="0" on="1"/>
        <pt x="517" y="0" on="1"/>
      </contour>
    </TTGlyph>
    <TTGlyph name="I" xMin="87" yMin="0" xMax="338" yMax="694">
      <contour>
        <pt x="161" y="348" on="1"/>
        <pt x="235" y="694" on="1"/>
        <pt x="338" y="694" on="1"/>
        <pt x="338" y="691" on="1"/>
        <pt x="338" y="690" on="0"/>
        <pt x="192" y="5" on="0"/>
        <pt x="191" y="2" on="1"/>
        <pt x="191" y="0" on="1"/>
        <pt x="139" y="0" on="1"/>
        <pt x="87" y="0" on="0"/>
        <pt x="87" y="1" on="1"/>
        <pt x="96" y="46" on="1"/>
        <pt x="106" y="90" on="0"/>
        <pt x="144" y="265" on="0"/>
      </contour>
    </TTGlyph>
    <TTGlyph name="J" xMin="46" yMin="-22" xMax="535" yMax="694">
      <contour>
        <pt x="377" y="424" on="1"/>
        <pt x="435" y="694" on="1"/>
        <pt x="535" y="694" on="1"/>
        <pt x="535" y="691" on="1"/>
        <pt x="534" y="685" on="0"/>
        <pt x="417" y="139" on="0"/>
        <pt x="416" y="135" on="1"/>
        <pt x="400" y="73" on="0"/>
        <pt x="310" y="-9" on="0"/>
        <pt x="245" y="-20" on="1"/>
        <pt x="231" y="-22" on="0"/>
        <pt x="210" y="-22" on="1"/>
        <pt x="141" y="-22" on="0"/>
        <pt x="83" y="2" on="1"/>
        <pt x="46" y="17" on="0"/>
        <pt x="46" y="21" on="1"/>
        <pt x="54" y="41" on="1"/>
        <pt x="62" y="61" on="0"/>
        <pt x="79" y="106" on="0"/>
        <pt x="81" y="109" on="1"/>
        <pt x="82" y="111" on="0"/>
        <pt x="85" y="106" on="1"/>
        <pt x="86" y="105" on="0"/>
        <pt x="87" y="103" on="1"/>
        <pt x="119" y="53" on="0"/>
        <pt x="185" y="53" on="1"/>
        <pt x="296" y="53" on="0"/>
        <pt x="317" y="142" on="1"/>
        <pt x="317" y="145" on="0"/>
        <pt x="333" y="219" on="0"/>
        <pt x="364" y="360" on="0"/>
      </contour>
    </TTGlyph>
    <TTGlyph name="K" xMin="88" yMin="0" xMax="784" yMax="694">
      <contour>
        <pt x="236" y="223" on="1"/>
        <pt x="235" y="222" on="0"/>
        <pt x="190" y="4" on="0"/>
        <pt x="188" y="2" on="1"/>
        <pt x="188" y="0" on="1"/>
        <pt x="138" y="0" on="1"/>
        <pt x="88" y="0" on="0"/>
        <pt x="88" y="1" on="1"/>
        <pt x="98" y="46" on="1"/>
        <pt x="107" y="90" on="0"/>
        <pt x="145" y="265" on="0"/>
        <pt x="162" y="348" on="1"/>
        <pt x="236" y="694" on="1"/>
        <pt x="285" y="694" on="1"/>
        <pt x="335" y="694" on="0"/>
        <pt x="335" y="693" on="1"/>
        <pt x="330" y="671" on="1"/>
        <pt x="326" y="649" on="0"/>
        <pt x="306" y="557" on="0"/>
        <pt x="298" y="518" on="1"/>
        <pt x="289" y="477" on="0"/>
        <pt x="270" y="388" on="0"/>
        <pt x="266" y="366" on="1"/>
        <pt x="261" y="343" on="1"/>
        <pt x="354" y="422" on="0"/>
        <pt x="467" y="519" on="1"/>
        <pt x="672" y="694" on="1"/>
        <pt x="729" y="694" on="1"/>
        <pt x="784" y="693" on="1"/>
        <pt x="465" y="420" on="1"/>
        <pt x="464" y="419" on="0"/>
        <pt x="556" y="213" on="1"/>
        <pt x="648" y="6" on="0"/>
        <pt x="651" y="0" on="1"/>
        <pt x="596" y="0" on="1"/>
        <pt x="541" y="1" on="1"/>
        <pt x="463" y="175" on="1"/>
        <pt x="384" y="350" on="1"/>
        <pt x="383" y="351" on="0"/>
        <pt x="236" y="224" on="0"/>
      </contour>
    </TTGlyph>
    <TTGlyph name="L" xMin="87" yMin="0" xMax="516" yMax="694">
      <contour>
        <pt x="161" y="348" on="1"/>
        <pt x="235" y="694" on="1"/>
        <pt x="338" y="694" on="1"/>
        <pt x="338" y="691" on="1"/>
        <pt x="338" y="690" on="0"/>
        <pt x="208" y="80" on="0"/>
        <pt x="208" y="79" on="1"/>
        <pt x="278" y="80" on="0"/>
        <pt x="362" y="80" on="1"/>
        <pt x="516" y="80" on="1"/>
        <pt x="502" y="11" on="0"/>
        <pt x="499" y="2" on="1"/>
        <pt x="499" y="0" on="1"/>
        <pt x="293" y="0" on="1"/>
        <pt x="87" y="0" on="0"/>
        <pt x="87" y="1" on="1"/>
        <pt x="96" y="46" on="1"/>
        <pt x="106" y="90" on="0"/>
        <pt x="144" y="265" on="0"/>
      </contour>
    </TTGlyph>
    <TTGlyph name="Lambda" xMin="28" yMin="0" xMax="582" yMax="694">
      <contour>
        <pt x="28" y="0" on="1"/>
        <pt x="31" y="5" on="0"/>
        <pt x="398" y="689" on="0"/>
        <pt x="401" y="694" on="1"/>
        <pt x="504" y="694" on="1"/>
        <pt x="504" y="690" on="1"/>
        <pt x="505" y="686" on="0"/>
        <pt x="582" y="3" on="0"/>
        <pt x="582" y="1" on="1"/>
        <pt x="582" y="0" on="0"/>
        <pt x="528" y="0" on="1"/>
        <pt x="473" y="0" on="1"/>
        <pt x="473" y="3" on="1"/>
        <pt x="468" y="22" on="0"/>
        <pt x="450" y="208" on="1"/>
        <pt x="432" y="375" on="0"/>
        <pt x="424" y="497" on="1"/>
        <pt x="422" y="529" on="0"/>
        <pt x="422" y="558" on="1"/>
        <pt x="422" y="593" on="0"/>
        <pt x="424" y="603" on="1"/>
        <pt x="425" y="610" on="1"/>
        <pt x="424" y="610" on="0"/>
        <pt x="420" y="596" on="1"/>
        <pt x="406" y="556" on="0"/>
        <pt x="343" y="431" on="1"/>
        <pt x="287" y="316" on="0"/>
        <pt x="143" y="49" on="1"/>
        <pt x="117" y="1" on="1"/>
        <pt x="73" y="0" on="1"/>
      </contour>
    </TTGlyph>
    <TTGlyph name="M" xMin="92" yMin="0" xMax="929" yMax="694">
      <contour>
        <pt x="315" y="609" on="1"/>
        <pt x="246" y="287" on="0"/>
        <pt x="199" y="66" on="1"/>
        <pt x="186" y="3" on="0"/>
        <pt x="185" y="2" on="1"/>
        <pt x="185" y="0" on="0"/>
        <pt x="138" y="0" on="1"/>
        <pt x="92" y="0" on="0"/>
        <pt x="92" y="1" on="1"/>
        <pt x="102" y="46" on="1"/>
        <pt x="111" y="90" on="0"/>
        <pt x="149" y="265" on="0"/>
        <pt x="166" y="348" on="1"/>
        <pt x="240" y="694" on="1"/>
        <pt x="375" y="694" on="1"/>
        <pt x="375" y="691" on="1"/>
        <pt x="376" y="690" on="0"/>
        <pt x="389" y="606" on="1"/>
        <pt x="456" y="199" on="0"/>
        <pt x="459" y="124" on="1"/>
        <pt x="459" y="106" on="1"/>
        <pt x="487" y="174" on="0"/>
        <pt x="762" y="641" on="1"/>
        <pt x="793" y="694" on="1"/>
        <pt x="929" y="694" on="1"/>
        <pt x="929" y="691" on="1"/>
        <pt x="929" y="690" on="0"/>
        <pt x="783" y="5" on="0"/>
        <pt x="782" y="2" on="1"/>
        <pt x="782" y="0" on="1"/>
        <pt x="689" y="0" on="1"/>
        <pt x="689" y="2" on="1"/>
        <pt x="691" y="4" on="0"/>
        <pt x="753" y="304" on="1"/>
        <pt x="817" y="604" on="0"/>
        <pt x="818" y="606" on="1"/>
        <pt x="819" y="611" on="0"/>
        <pt x="817" y="608" on="1"/>
        <pt x="817" y="607" on="0"/>
        <pt x="815" y="603" on="1"/>
        <pt x="798" y="559" on="0"/>
        <pt x="540" y="117" on="1"/>
        <pt x="484" y="22" on="1"/>
        <pt x="440" y="22" on="1"/>
        <pt x="397" y="23" on="1"/>
        <pt x="393" y="42" on="1"/>
        <pt x="392" y="57" on="0"/>
        <pt x="380" y="123" on="1"/>
        <pt x="315" y="523" on="0"/>
        <pt x="315" y="594" on="1"/>
      </contour>
    </TTGlyph>
    <TTGlyph name="N" xMin="88" yMin="0" xMax="766" yMax="694">
      <contour>
        <pt x="311" y="609" on="1"/>
        <pt x="310" y="608" on="0"/>
        <pt x="182" y="3" on="0"/>
        <pt x="181" y="2" on="1"/>
        <pt x="181" y="0" on="1"/>
        <pt x="134" y="0" on="1"/>
        <pt x="88" y="0" on="0"/>
        <pt x="88" y="1" on="1"/>
        <pt x="98" y="46" on="1"/>
        <pt x="107" y="90" on="0"/>
        <pt x="145" y="265" on="0"/>
        <pt x="162" y="348" on="1"/>
        <pt x="236" y="694" on="1"/>
        <pt x="382" y="694" on="1"/>
        <pt x="383" y="691" on="1"/>
        <pt x="383" y="690" on="0"/>
        <pt x="411" y="587" on="1"/>
        <pt x="530" y="151" on="0"/>
        <pt x="541" y="97" on="1"/>
        <pt x="544" y="84" on="1"/>
        <pt x="545" y="89" on="1"/>
        <pt x="545" y="90" on="0"/>
        <pt x="561" y="166" on="0"/>
        <pt x="596" y="326" on="0"/>
        <pt x="610" y="394" on="1"/>
        <pt x="674" y="694" on="1"/>
        <pt x="766" y="694" on="1"/>
        <pt x="766" y="691" on="1"/>
        <pt x="766" y="690" on="0"/>
        <pt x="620" y="5" on="0"/>
        <pt x="619" y="2" on="1"/>
        <pt x="619" y="0" on="1"/>
        <pt x="472" y="0" on="1"/>
        <pt x="469" y="13" on="1"/>
        <pt x="466" y="25" on="0"/>
        <pt x="433" y="146" on="1"/>
        <pt x="319" y="561" on="0"/>
        <pt x="312" y="605" on="1"/>
      </contour>
    </TTGlyph>
    <TTGlyph name="O" xMin="118" yMin="-22" xMax="763" yMax="716">
      <contour>
        <pt x="491" y="715" on="1"/>
        <pt x="494" y="715" on="0"/>
        <pt x="512" y="716" on="0"/>
        <pt x="517" y="716" on="1"/>
        <pt x="545" y="716" on="0"/>
        <pt x="580" y="708" on="1"/>
        <pt x="663" y="687" on="0"/>
        <pt x="763" y="542" on="0"/>
        <pt x="763" y="435" on="1"/>
        <pt x="763" y="402" on="0"/>
        <pt x="759" y="377" on="1"/>
        <pt x="745" y="276" on="0"/>
        <pt x="632" y="95" on="0"/>
        <pt x="548" y="39" on="1"/>
        <pt x="456" y="-22" on="0"/>
        <pt x="362" y="-22" on="1"/>
        <pt x="280" y="-22" on="0"/>
        <pt x="215" y="29" on="1"/>
        <pt x="170" y="66" on="0"/>
        <pt x="118" y="184" on="0"/>
        <pt x="118" y="254" on="1"/>
        <pt x="118" y="409" on="0"/>
        <pt x="220" y="544" on="1"/>
        <pt x="274" y="617" on="0"/>
        <pt x="416" y="706" on="0"/>
      </contour>
      <contour>
        <pt x="661" y="442" on="1"/>
        <pt x="661" y="519" on="0"/>
        <pt x="593" y="621" on="0"/>
        <pt x="534" y="634" on="1"/>
        <pt x="516" y="636" on="0"/>
        <pt x="496" y="636" on="1"/>
        <pt x="484" y="636" on="1"/>
        <pt x="434" y="630" on="0"/>
        <pt x="339" y="567" on="0"/>
        <pt x="302" y="516" on="1"/>
        <pt x="225" y="407" on="0"/>
        <pt x="225" y="264" on="1"/>
        <pt x="225" y="184" on="0"/>
        <pt x="293" y="74" on="0"/>
        <pt x="351" y="61" on="1"/>
        <pt x="364" y="58" on="0"/>
        <pt x="380" y="58" on="1"/>
        <pt x="443" y="58" on="0"/>
        <pt x="504" y="105" on="1"/>
        <pt x="609" y="185" on="0"/>
        <pt x="648" y="341" on="1"/>
        <pt x="661" y="393" on="0"/>
      </contour>
    </TTGlyph>
    <TTGlyph name="Omega" xMin="44" yMin="0" xMax="769" yMax="716">
      <contour>
        <pt x="664" y="498" on="1"/>
        <pt x="664" y="565" on="0"/>
        <pt x="569" y="640" on="0"/>
        <pt x="497" y="640" on="1"/>
        <pt x="476" y="640" on="0"/>
        <pt x="448" y="635" on="1"/>
        <pt x="382" y="623" on="0"/>
        <pt x="281" y="540" on="0"/>
        <pt x="262" y="482" on="1"/>
        <pt x="250" y="441" on="0"/>
        <pt x="250" y="392" on="1"/>
        <pt x="250" y="341" on="0"/>
        <pt x="277" y="232" on="1"/>
        <pt x="302" y="128" on="0"/>
        <pt x="302" y="70" on="1"/>
        <pt x="302" y="56" on="1"/>
        <pt x="302" y="28" on="0"/>
        <pt x="296" y="2" on="1"/>
        <pt x="296" y="0" on="1"/>
        <pt x="44" y="0" on="1"/>
        <pt x="44" y="2" on="1"/>
        <pt x="62" y="85" on="1"/>
        <pt x="62" y="86" on="0"/>
        <pt x="143" y="86" on="1"/>
        <pt x="225" y="85" on="1"/>
        <pt x="225" y="88" on="1"/>
        <pt x="224" y="90" on="1"/>
        <pt x="224" y="92" on="0"/>
        <pt x="223" y="98" on="0"/>
        <pt x="223" y="100" on="1"/>
        <pt x="218" y="142" on="0"/>
        <pt x="188" y="227" on="1"/>
        <pt x="164" y="297" on="0"/>
        <pt x="156" y="334" on="1"/>
        <pt x="148" y="376" on="0"/>
        <pt x="148" y="407" on="1"/>
        <pt x="148" y="533" on="0"/>
        <pt x="353" y="704" on="0"/>
        <pt x="484" y="715" on="1"/>
        <pt x="492" y="716" on="0"/>
        <pt x="511" y="716" on="1"/>
        <pt x="605" y="716" on="0"/>
        <pt x="737" y="634" on="0"/>
        <pt x="760" y="565" on="1"/>
        <pt x="769" y="536" on="0"/>
        <pt x="769" y="507" on="1"/>
        <pt x="769" y="422" on="0"/>
        <pt x="691" y="309" on="1"/>
        <pt x="678" y="290" on="0"/>
        <pt x="627" y="224" on="1"/>
        <pt x="592" y="179" on="0"/>
        <pt x="562" y="136" on="1"/>
        <pt x="533" y="90" on="0"/>
        <pt x="533" y="86" on="1"/>
        <pt x="542" y="85" on="0"/>
        <pt x="557" y="85" on="1"/>
        <pt x="564" y="85" on="0"/>
        <pt x="602" y="86" on="0"/>
        <pt x="614" y="86" on="1"/>
        <pt x="695" y="86" on="0"/>
        <pt x="695" y="85" on="1"/>
        <pt x="679" y="9" on="0"/>
        <pt x="677" y="2" on="1"/>
        <pt x="677" y="0" on="1"/>
        <pt x="425" y="0" on="1"/>
        <pt x="426" y="3" on="0"/>
        <pt x="435" y="39" on="0"/>
        <pt x="438" y="46" on="1"/>
        <pt x="458" y="103" on="0"/>
        <pt x="639" y="378" on="0"/>
        <pt x="658" y="451" on="1"/>
        <pt x="664" y="477" on="0"/>
      </contour>
    </TTGlyph>
    <TTGlyph name="P" xMin="88" yMin="0" xMax="690" yMax="694">
      <contour>
        <pt x="162" y="348" on="1"/>
        <pt x="236" y="694" on="1"/>
        <pt x="378" y="694" on="1"/>
        <pt x="522" y="693" on="0"/>
        <pt x="530" y="692" on="1"/>
        <pt x="599" y="681" on="0"/>
        <pt x="690" y="592" on="0"/>
        <pt x="690" y="524" on="1"/>
        <pt x="690" y="451" on="0"/>
        <pt x="634" y="382" on="1"/>
        <pt x="605" y="346" on="0"/>
        <pt x="513" y="291" on="0"/>
        <pt x="465" y="280" on="1"/>
        <pt x="443" y="275" on="0"/>
        <pt x="343" y="274" on="1"/>
        <pt x="250" y="274" on="1"/>
        <pt x="250" y="271" on="1"/>
        <pt x="250" y="269" on="0"/>
        <pt x="220" y="132" on="0"/>
        <pt x="192" y="3" on="0"/>
        <pt x="192" y="2" on="1"/>
        <pt x="192" y="0" on="1"/>
        <pt x="140" y="0" on="1"/>
        <pt x="88" y="0" on="0"/>
        <pt x="88" y="1" on="1"/>
        <pt x="98" y="46" on="1"/>
        <pt x="107" y="90" on="0"/>
        <pt x="145" y="265" on="0"/>
      </contour>
      <contour>
        <pt x="594" y="513" on="1"/>
        <pt x="594" y="562" on="0"/>
        <pt x="531" y="616" on="0"/>
        <pt x="477" y="622" on="1"/>
        <pt x="470" y="623" on="0"/>
        <pt x="394" y="623" on="1"/>
        <pt x="321" y="623" on="1"/>
        <pt x="293" y="487" on="1"/>
        <pt x="263" y="349" on="1"/>
        <pt x="263" y="347" on="1"/>
        <pt x="342" y="347" on="1"/>
        <pt x="421" y="348" on="0"/>
        <pt x="434" y="350" on="1"/>
        <pt x="538" y="367" on="0"/>
        <pt x="578" y="449" on="1"/>
        <pt x="594" y="483" on="0"/>
      </contour>
    </TTGlyph>
    <TTGlyph name="Phi" xMin="124" yMin="0" xMax="743" yMax="694">
      <contour>
        <pt x="433" y="106" on="1"/>
        <pt x="410" y="2" on="1"/>
        <pt x="410" y="0" on="0"/>
        <pt x="361" y="0" on="1"/>
        <pt x="312" y="0" on="1"/>
        <pt x="313" y="3" on="1"/>
        <pt x="313" y="5" on="0"/>
        <pt x="324" y="56" on="1"/>
        <pt x="335" y="107" on="1"/>
        <pt x="331" y="107" on="1"/>
        <pt x="330" y="107" on="0"/>
        <pt x="325" y="109" on="0"/>
        <pt x="316" y="110" on="0"/>
        <pt x="312" y="111" on="1"/>
        <pt x="241" y="125" on="0"/>
        <pt x="190" y="168" on="1"/>
        <pt x="124" y="225" on="0"/>
        <pt x="124" y="308" on="1"/>
        <pt x="124" y="332" on="0"/>
        <pt x="130" y="354" on="1"/>
        <pt x="145" y="412" on="0"/>
        <pt x="236" y="514" on="0"/>
        <pt x="303" y="547" on="1"/>
        <pt x="362" y="576" on="0"/>
        <pt x="433" y="587" on="1"/>
        <pt x="437" y="587" on="0"/>
        <pt x="437" y="589" on="1"/>
        <pt x="438" y="590" on="0"/>
        <pt x="449" y="643" on="1"/>
        <pt x="459" y="694" on="1"/>
        <pt x="508" y="694" on="1"/>
        <pt x="557" y="694" on="0"/>
        <pt x="557" y="693" on="1"/>
        <pt x="557" y="691" on="0"/>
        <pt x="535" y="590" on="0"/>
        <pt x="535" y="587" on="1"/>
        <pt x="547" y="585" on="1"/>
        <pt x="621" y="572" on="0"/>
        <pt x="724" y="490" on="0"/>
        <pt x="738" y="431" on="1"/>
        <pt x="743" y="414" on="0"/>
        <pt x="743" y="387" on="1"/>
        <pt x="743" y="350" on="0"/>
        <pt x="731" y="318" on="1"/>
        <pt x="703" y="241" on="0"/>
        <pt x="547" y="126" on="0"/>
        <pt x="449" y="110" on="1"/>
      </contour>
      <contour>
        <pt x="420" y="509" on="1"/>
        <pt x="420" y="510" on="0"/>
        <pt x="410" y="509" on="1"/>
        <pt x="338" y="493" on="0"/>
        <pt x="239" y="404" on="0"/>
        <pt x="228" y="337" on="1"/>
        <pt x="227" y="332" on="0"/>
        <pt x="227" y="315" on="1"/>
        <pt x="227" y="280" on="0"/>
        <pt x="239" y="256" on="1"/>
        <pt x="263" y="210" on="0"/>
        <pt x="319" y="192" on="1"/>
        <pt x="341" y="184" on="0"/>
        <pt x="350" y="184" on="1"/>
        <pt x="351" y="184" on="1"/>
        <pt x="386" y="346" on="1"/>
        <pt x="420" y="507" on="0"/>
      </contour>
      <contour>
        <pt x="642" y="381" on="1"/>
        <pt x="642" y="433" on="0"/>
        <pt x="579" y="497" on="0"/>
        <pt x="529" y="508" on="1"/>
        <pt x="527" y="508" on="0"/>
        <pt x="524" y="509" on="1"/>
        <pt x="520" y="510" on="0"/>
        <pt x="518" y="510" on="0"/>
        <pt x="449" y="185" on="0"/>
        <pt x="450" y="184" on="1"/>
        <pt x="574" y="207" on="0"/>
        <pt x="624" y="304" on="1"/>
        <pt x="642" y="341" on="0"/>
      </contour>
    </TTGlyph>
    <TTGlyph name="Pi" xMin="86" yMin="0" xMax="768" yMax="691">
      <contour>
        <pt x="86" y="2" on="1"/>
        <pt x="88" y="4" on="0"/>
        <pt x="232" y="688" on="0"/>
        <pt x="233" y="689" on="1"/>
        <pt x="233" y="691" on="0"/>
        <pt x="501" y="691" on="1"/>
        <pt x="768" y="691" on="0"/>
        <pt x="768" y="689" on="1"/>
        <pt x="766" y="688" on="0"/>
        <pt x="622" y="4" on="0"/>
        <pt x="621" y="2" on="1"/>
        <pt x="621" y="0" on="1"/>
        <pt x="517" y="0" on="1"/>
        <pt x="517" y="2" on="1"/>
        <pt x="518" y="3" on="0"/>
        <pt x="646" y="606" on="0"/>
        <pt x="646" y="609" on="1"/>
        <pt x="648" y="615" on="1"/>
        <pt x="321" y="615" on="1"/>
        <pt x="255" y="308" on="1"/>
        <pt x="190" y="0" on="1"/>
        <pt x="86" y="0" on="1"/>
      </contour>
    </TTGlyph>
    <TTGlyph name="Psi" xMin="171" yMin="0" xMax="854" yMax="694">
      <contour>
        <pt x="340" y="2" on="1"/>
        <pt x="341" y="3" on="0"/>
        <pt x="362" y="105" on="0"/>
        <pt x="362" y="106" on="1"/>
        <pt x="363" y="107" on="0"/>
        <pt x="358" y="109" on="0"/>
        <pt x="351" y="110" on="1"/>
        <pt x="194" y="140" on="0"/>
        <pt x="194" y="319" on="1"/>
        <pt x="194" y="361" on="0"/>
        <pt x="205" y="416" on="1"/>
        <pt x="213" y="456" on="0"/>
        <pt x="213" y="483" on="1"/>
        <pt x="213" y="512" on="0"/>
        <pt x="198" y="540" on="0"/>
        <pt x="179" y="544" on="1"/>
        <pt x="171" y="546" on="1"/>
        <pt x="184" y="609" on="0"/>
        <pt x="187" y="619" on="1"/>
        <pt x="187" y="621" on="1"/>
        <pt x="239" y="621" on="1"/>
        <pt x="291" y="621" on="0"/>
        <pt x="298" y="619" on="1"/>
        <pt x="325" y="608" on="0"/>
        <pt x="325" y="556" on="1"/>
        <pt x="325" y="549" on="1"/>
        <pt x="322" y="507" on="0"/>
        <pt x="309" y="443" on="1"/>
        <pt x="294" y="368" on="0"/>
        <pt x="294" y="330" on="1"/>
        <pt x="294" y="222" on="0"/>
        <pt x="369" y="191" on="1"/>
        <pt x="372" y="190" on="0"/>
        <pt x="376" y="188" on="1"/>
        <pt x="379" y="187" on="0"/>
        <pt x="380" y="187" on="1"/>
        <pt x="404" y="301" on="0"/>
        <pt x="434" y="441" on="1"/>
        <pt x="488" y="694" on="1"/>
        <pt x="585" y="694" on="1"/>
        <pt x="585" y="691" on="1"/>
        <pt x="584" y="690" on="0"/>
        <pt x="478" y="189" on="0"/>
        <pt x="478" y="188" on="1"/>
        <pt x="479" y="188" on="1"/>
        <pt x="485" y="188" on="0"/>
        <pt x="511" y="200" on="1"/>
        <pt x="570" y="229" on="0"/>
        <pt x="636" y="343" on="0"/>
        <pt x="654" y="435" on="1"/>
        <pt x="674" y="527" on="0"/>
        <pt x="693" y="567" on="1"/>
        <pt x="701" y="581" on="0"/>
        <pt x="704" y="587" on="1"/>
        <pt x="720" y="609" on="0"/>
        <pt x="733" y="615" on="1"/>
        <pt x="745" y="621" on="0"/>
        <pt x="802" y="621" on="1"/>
        <pt x="854" y="621" on="1"/>
        <pt x="854" y="619" on="1"/>
        <pt x="838" y="546" on="1"/>
        <pt x="838" y="545" on="0"/>
        <pt x="832" y="545" on="1"/>
        <pt x="805" y="542" on="0"/>
        <pt x="783" y="511" on="1"/>
        <pt x="763" y="481" on="0"/>
        <pt x="749" y="418" on="1"/>
        <pt x="715" y="273" on="0"/>
        <pt x="638" y="196" on="1"/>
        <pt x="570" y="125" on="0"/>
        <pt x="469" y="109" on="1"/>
        <pt x="462" y="108" on="0"/>
        <pt x="460" y="106" on="1"/>
        <pt x="460" y="105" on="0"/>
        <pt x="439" y="3" on="0"/>
        <pt x="438" y="2" on="1"/>
        <pt x="438" y="0" on="1"/>
        <pt x="340" y="0" on="1"/>
      </contour>
    </TTGlyph>
    <TTGlyph name="Q" xMin="118" yMin="-125" xMax="763" yMax="716">
      <contour>
        <pt x="450" y="-8" on="1"/>
        <pt x="410" y="-22" on="0"/>
        <pt x="363" y="-22" on="1"/>
        <pt x="281" y="-22" on="0"/>
        <pt x="215" y="29" on="1"/>
        <pt x="170" y="66" on="0"/>
        <pt x="118" y="184" on="0"/>
        <pt x="118" y="254" on="1"/>
        <pt x="118" y="409" on="0"/>
        <pt x="220" y="544" on="1"/>
        <pt x="274" y="617" on="0"/>
        <pt x="416" y="706" on="0"/>
        <pt x="491" y="715" on="1"/>
        <pt x="494" y="715" on="0"/>
        <pt x="512" y="716" on="0"/>
        <pt x="517" y="716" on="1"/>
        <pt x="545" y="716" on="0"/>
        <pt x="580" y="708" on="1"/>
        <pt x="663" y="687" on="0"/>
        <pt x="763" y="542" on="0"/>
        <pt x="763" y="435" on="1"/>
        <pt x="763" y="402" on="0"/>
        <pt x="759" y="377" on="1"/>
        <pt x="745" y="276" on="0"/>
        <pt x="628" y="90" on="0"/>
        <pt x="550" y="40" on="1"/>
        <pt x="543" y="36" on="1"/>
        <pt x="547" y="30" on="0"/>
        <pt x="557" y="9" on="0"/>
        <pt x="578" y="-32" on="0"/>
        <pt x="588" y="-51" on="1"/>
        <pt x="596" y="-66" on="0"/>
        <pt x="616" y="-107" on="0"/>
        <pt x="620" y="-116" on="1"/>
        <pt x="625" y="-125" on="1"/>
        <pt x="504" y="-125" on="1"/>
      </contour>
      <contour>
        <pt x="417" y="61" on="1"/>
        <pt x="417" y="63" on="0"/>
        <pt x="357" y="192" on="0"/>
        <pt x="356" y="193" on="1"/>
        <pt x="356" y="194" on="0"/>
        <pt x="409" y="194" on="1"/>
        <pt x="462" y="194" on="1"/>
        <pt x="485" y="150" on="1"/>
        <pt x="508" y="105" on="1"/>
        <pt x="509" y="103" on="0"/>
        <pt x="555" y="147" on="0"/>
        <pt x="567" y="161" on="1"/>
        <pt x="643" y="255" on="0"/>
        <pt x="659" y="386" on="1"/>
        <pt x="661" y="398" on="0"/>
        <pt x="661" y="437" on="1"/>
        <pt x="661" y="516" on="0"/>
        <pt x="591" y="623" on="0"/>
        <pt x="531" y="635" on="1"/>
        <pt x="525" y="636" on="0"/>
        <pt x="506" y="636" on="1"/>
        <pt x="486" y="636" on="0"/>
        <pt x="480" y="635" on="1"/>
        <pt x="379" y="621" on="0"/>
        <pt x="220" y="400" on="0"/>
        <pt x="220" y="258" on="1"/>
        <pt x="220" y="179" on="0"/>
        <pt x="289" y="72" on="0"/>
        <pt x="353" y="59" on="1"/>
        <pt x="359" y="58" on="0"/>
        <pt x="380" y="58" on="1"/>
        <pt x="402" y="58" on="0"/>
        <pt x="408" y="59" on="1"/>
        <pt x="416" y="61" on="0"/>
      </contour>
    </TTGlyph>
    <TTGlyph name="R" xMin="88" yMin="0" xMax="698" yMax="694">
      <contour>
        <pt x="162" y="348" on="1"/>
        <pt x="236" y="694" on="1"/>
        <pt x="375" y="694" on="1"/>
        <pt x="516" y="693" on="0"/>
        <pt x="525" y="692" on="1"/>
        <pt x="592" y="681" on="0"/>
        <pt x="684" y="615" on="0"/>
        <pt x="696" y="563" on="1"/>
        <pt x="698" y="555" on="0"/>
        <pt x="698" y="513" on="0"/>
        <pt x="697" y="506" on="1"/>
        <pt x="681" y="433" on="0"/>
        <pt x="608" y="377" on="1"/>
        <pt x="563" y="344" on="0"/>
        <pt x="512" y="327" on="1"/>
        <pt x="497" y="321" on="1"/>
        <pt x="497" y="318" on="0"/>
        <pt x="613" y="9" on="0"/>
        <pt x="617" y="0" on="1"/>
        <pt x="565" y="0" on="1"/>
        <pt x="513" y="1" on="1"/>
        <pt x="439" y="207" on="0"/>
        <pt x="402" y="309" on="1"/>
        <pt x="255" y="309" on="1"/>
        <pt x="222" y="155" on="1"/>
        <pt x="189" y="0" on="1"/>
        <pt x="138" y="0" on="1"/>
        <pt x="88" y="0" on="0"/>
        <pt x="88" y="1" on="1"/>
        <pt x="98" y="46" on="1"/>
        <pt x="107" y="90" on="0"/>
        <pt x="145" y="265" on="0"/>
      </contour>
      <contour>
        <pt x="603" y="525" on="1"/>
        <pt x="603" y="601" on="0"/>
        <pt x="499" y="620" on="1"/>
        <pt x="486" y="622" on="0"/>
        <pt x="403" y="623" on="1"/>
        <pt x="321" y="623" on="1"/>
        <pt x="297" y="506" on="1"/>
        <pt x="292" y="482" on="0"/>
        <pt x="278" y="416" on="0"/>
        <pt x="274" y="402" on="1"/>
        <pt x="271" y="387" on="1"/>
        <pt x="271" y="385" on="1"/>
        <pt x="346" y="385" on="1"/>
        <pt x="434" y="385" on="0"/>
        <pt x="457" y="389" on="1"/>
        <pt x="557" y="405" on="0"/>
        <pt x="592" y="479" on="1"/>
        <pt x="603" y="503" on="0"/>
      </contour>
    </TTGlyph>
    <TTGlyph name="S" xMin="54" yMin="-22" xMax="609" yMax="716">
      <contour>
        <pt x="161" y="478" on="1"/>
        <pt x="161" y="569" on="0"/>
        <pt x="324" y="716" on="0"/>
        <pt x="435" y="716" on="1"/>
        <pt x="526" y="716" on="0"/>
        <pt x="599" y="673" on="1"/>
        <pt x="609" y="667" on="1"/>
        <pt x="600" y="642" on="1"/>
        <pt x="590" y="618" on="0"/>
        <pt x="571" y="569" on="0"/>
        <pt x="571" y="568" on="1"/>
        <pt x="570" y="568" on="0"/>
        <pt x="557" y="581" on="1"/>
        <pt x="502" y="635" on="0"/>
        <pt x="417" y="635" on="1"/>
        <pt x="352" y="635" on="0"/>
        <pt x="259" y="556" on="0"/>
        <pt x="259" y="507" on="1"/>
        <pt x="259" y="465" on="0"/>
        <pt x="301" y="436" on="1"/>
        <pt x="315" y="428" on="0"/>
        <pt x="374" y="412" on="1"/>
        <pt x="426" y="399" on="0"/>
        <pt x="432" y="396" on="1"/>
        <pt x="451" y="391" on="0"/>
        <pt x="470" y="378" on="1"/>
        <pt x="545" y="328" on="0"/>
        <pt x="545" y="236" on="1"/>
        <pt x="545" y="219" on="0"/>
        <pt x="542" y="201" on="1"/>
        <pt x="530" y="131" on="0"/>
        <pt x="425" y="15" on="0"/>
        <pt x="353" y="-9" on="1"/>
        <pt x="313" y="-22" on="0"/>
        <pt x="270" y="-22" on="1"/>
        <pt x="153" y="-22" on="0"/>
        <pt x="63" y="41" on="1"/>
        <pt x="54" y="48" on="1"/>
        <pt x="92" y="146" on="1"/>
        <pt x="101" y="137" on="1"/>
        <pt x="173" y="63" on="0"/>
        <pt x="288" y="63" on="1"/>
        <pt x="342" y="63" on="0"/>
        <pt x="383" y="93" on="1"/>
        <pt x="407" y="109" on="0"/>
        <pt x="421" y="131" on="1"/>
        <pt x="447" y="165" on="0"/>
        <pt x="447" y="204" on="1"/>
        <pt x="447" y="268" on="0"/>
        <pt x="389" y="294" on="1"/>
        <pt x="383" y="297" on="0"/>
        <pt x="331" y="310" on="1"/>
        <pt x="267" y="328" on="0"/>
        <pt x="253" y="335" on="1"/>
        <pt x="210" y="355" on="0"/>
        <pt x="161" y="430" on="0"/>
      </contour>
    </TTGlyph>
    <TTGlyph name="Sigma" xMin="55" yMin="0" xMax="813" yMax="694">
      <contour>
        <pt x="321" y="615" on="1"/>
        <pt x="485" y="347" on="1"/>
        <pt x="449" y="311" on="0"/>
        <pt x="247" y="95" on="0"/>
        <pt x="247" y="86" on="1"/>
        <pt x="247" y="84" on="0"/>
        <pt x="294" y="84" on="1"/>
        <pt x="303" y="84" on="0"/>
        <pt x="415" y="85" on="0"/>
        <pt x="465" y="85" on="1"/>
        <pt x="684" y="85" on="1"/>
        <pt x="684" y="84" on="0"/>
        <pt x="675" y="42" on="1"/>
        <pt x="666" y="0" on="1"/>
        <pt x="360" y="0" on="1"/>
        <pt x="55" y="1" on="1"/>
        <pt x="195" y="154" on="1"/>
        <pt x="346" y="319" on="0"/>
        <pt x="347" y="320" on="1"/>
        <pt x="359" y="333" on="1"/>
        <pt x="273" y="473" on="1"/>
        <pt x="187" y="614" on="0"/>
        <pt x="186" y="614" on="1"/>
        <pt x="187" y="620" on="1"/>
        <pt x="188" y="625" on="0"/>
        <pt x="192" y="646" on="0"/>
        <pt x="194" y="655" on="1"/>
        <pt x="202" y="694" on="1"/>
        <pt x="508" y="694" on="1"/>
        <pt x="813" y="694" on="0"/>
        <pt x="813" y="693" on="1"/>
        <pt x="809" y="675" on="0"/>
        <pt x="805" y="653" on="1"/>
        <pt x="797" y="614" on="1"/>
        <pt x="559" y="614" on="1"/>
      </contour>
    </TTGlyph>
    <TTGlyph name="T" xMin="165" yMin="0" xMax="790" yMax="688">
      <contour>
        <pt x="165" y="608" on="1"/>
        <pt x="178" y="679" on="0"/>
        <pt x="182" y="687" on="1"/>
        <pt x="182" y="688" on="0"/>
        <pt x="486" y="688" on="1"/>
        <pt x="790" y="688" on="1"/>
        <pt x="789" y="685" on="1"/>
        <pt x="781" y="645" on="1"/>
        <pt x="773" y="609" on="1"/>
        <pt x="521" y="609" on="1"/>
        <pt x="457" y="306" on="1"/>
        <pt x="393" y="3" on="0"/>
        <pt x="392" y="2" on="1"/>
        <pt x="392" y="0" on="0"/>
        <pt x="340" y="0" on="1"/>
        <pt x="288" y="0" on="1"/>
        <pt x="288" y="2" on="1"/>
        <pt x="289" y="5" on="0"/>
        <pt x="417" y="604" on="0"/>
        <pt x="417" y="605" on="1"/>
        <pt x="417" y="609" on="1"/>
        <pt x="291" y="608" on="1"/>
      </contour>
    </TTGlyph>
    <TTGlyph name="Theta" xMin="119" yMin="-22" xMax="804" yMax="715">
      <contour>
        <pt x="384" y="-22" on="1"/>
        <pt x="263" y="-22" on="0"/>
        <pt x="119" y="139" on="0"/>
        <pt x="119" y="260" on="1"/>
        <pt x="119" y="353" on="0"/>
        <pt x="162" y="445" on="1"/>
        <pt x="199" y="524" on="0"/>
        <pt x="326" y="652" on="0"/>
        <pt x="402" y="685" on="1"/>
        <pt x="470" y="715" on="0"/>
        <pt x="533" y="715" on="1"/>
        <pt x="570" y="715" on="0"/>
        <pt x="576" y="714" on="1"/>
        <pt x="712" y="695" on="0"/>
        <pt x="772" y="574" on="1"/>
        <pt x="804" y="511" on="0"/>
        <pt x="804" y="431" on="1"/>
        <pt x="804" y="374" on="0"/>
        <pt x="788" y="316" on="1"/>
        <pt x="761" y="219" on="0"/>
        <pt x="629" y="60" on="0"/>
        <pt x="540" y="16" on="1"/>
        <pt x="461" y="-22" on="0"/>
      </contour>
      <contour>
        <pt x="603" y="622" on="1"/>
        <pt x="568" y="640" on="0"/>
        <pt x="525" y="640" on="1"/>
        <pt x="490" y="640" on="0"/>
        <pt x="455" y="628" on="1"/>
        <pt x="390" y="606" on="0"/>
        <pt x="336" y="553" on="1"/>
        <pt x="309" y="525" on="0"/>
        <pt x="293" y="502" on="1"/>
        <pt x="218" y="393" on="0"/>
        <pt x="218" y="266" on="1"/>
        <pt x="218" y="210" on="0"/>
        <pt x="236" y="165" on="1"/>
        <pt x="258" y="112" on="0"/>
        <pt x="346" y="55" on="0"/>
        <pt x="401" y="55" on="1"/>
        <pt x="454" y="55" on="0"/>
        <pt x="508" y="82" on="1"/>
        <pt x="585" y="122" on="0"/>
        <pt x="690" y="280" on="0"/>
        <pt x="704" y="383" on="1"/>
        <pt x="706" y="401" on="0"/>
        <pt x="706" y="426" on="1"/>
        <pt x="706" y="570" on="0"/>
      </contour>
      <contour>
        <pt x="283" y="349" on="1"/>
        <pt x="293" y="397" on="1"/>
        <pt x="473" y="397" on="1"/>
        <pt x="652" y="397" on="0"/>
        <pt x="652" y="396" on="1"/>
        <pt x="647" y="374" on="0"/>
        <pt x="642" y="347" on="1"/>
        <pt x="632" y="299" on="1"/>
        <pt x="452" y="299" on="1"/>
        <pt x="273" y="299" on="0"/>
        <pt x="273" y="300" on="1"/>
        <pt x="278" y="322" on="0"/>
      </contour>
    </TTGlyph>
    <TTGlyph name="U" xMin="131" yMin="-22" xMax="747" yMax="694">
      <contour>
        <pt x="184" y="457" on="1"/>
        <pt x="235" y="694" on="1"/>
        <pt x="338" y="694" on="1"/>
        <pt x="338" y="691" on="1"/>
        <pt x="338" y="690" on="0"/>
        <pt x="237" y="211" on="0"/>
        <pt x="236" y="210" on="1"/>
        <pt x="234" y="194" on="0"/>
        <pt x="234" y="177" on="1"/>
        <pt x="234" y="80" on="0"/>
        <pt x="313" y="56" on="1"/>
        <pt x="333" y="49" on="0"/>
        <pt x="357" y="49" on="1"/>
        <pt x="400" y="49" on="0"/>
        <pt x="487" y="95" on="0"/>
        <pt x="510" y="128" on="1"/>
        <pt x="541" y="168" on="0"/>
        <pt x="554" y="224" on="1"/>
        <pt x="556" y="229" on="0"/>
        <pt x="606" y="464" on="1"/>
        <pt x="655" y="694" on="1"/>
        <pt x="747" y="694" on="1"/>
        <pt x="747" y="691" on="1"/>
        <pt x="651" y="243" on="0"/>
        <pt x="645" y="213" on="1"/>
        <pt x="623" y="148" on="0"/>
        <pt x="587" y="102" on="1"/>
        <pt x="557" y="67" on="0"/>
        <pt x="531" y="48" on="1"/>
        <pt x="443" y="-22" on="0"/>
        <pt x="340" y="-22" on="1"/>
        <pt x="254" y="-22" on="0"/>
        <pt x="143" y="75" on="0"/>
        <pt x="132" y="152" on="1"/>
        <pt x="132" y="154" on="0"/>
        <pt x="131" y="172" on="0"/>
        <pt x="131" y="177" on="1"/>
        <pt x="131" y="200" on="0"/>
        <pt x="133" y="214" on="1"/>
        <pt x="136" y="227" on="0"/>
      </contour>
    </TTGlyph>
    <TTGlyph name="Upsilon" xMin="173" yMin="0" xMax="843" yMax="716">
      <contour>
        <pt x="747" y="555" on="1"/>
        <pt x="749" y="565" on="0"/>
        <pt x="749" y="574" on="1"/>
        <pt x="749" y="603" on="0"/>
        <pt x="720" y="638" on="0"/>
        <pt x="693" y="638" on="1"/>
        <pt x="667" y="638" on="0"/>
        <pt x="645" y="627" on="1"/>
        <pt x="580" y="597" on="0"/>
        <pt x="543" y="465" on="1"/>
        <pt x="532" y="426" on="0"/>
        <pt x="480" y="184" on="1"/>
        <pt x="442" y="2" on="0"/>
        <pt x="441" y="2" on="1"/>
        <pt x="441" y="0" on="1"/>
        <pt x="337" y="0" on="1"/>
        <pt x="337" y="2" on="1"/>
        <pt x="348" y="49" on="0"/>
        <pt x="423" y="406" on="1"/>
        <pt x="438" y="494" on="0"/>
        <pt x="438" y="526" on="1"/>
        <pt x="438" y="609" on="0"/>
        <pt x="395" y="630" on="1"/>
        <pt x="381" y="637" on="0"/>
        <pt x="364" y="637" on="1"/>
        <pt x="357" y="637" on="1"/>
        <pt x="336" y="637" on="0"/>
        <pt x="323" y="630" on="1"/>
        <pt x="279" y="607" on="0"/>
        <pt x="266" y="555" on="1"/>
        <pt x="173" y="555" on="1"/>
        <pt x="182" y="585" on="0"/>
        <pt x="188" y="598" on="1"/>
        <pt x="214" y="650" on="0"/>
        <pt x="314" y="716" on="0"/>
        <pt x="373" y="716" on="1"/>
        <pt x="497" y="716" on="0"/>
        <pt x="497" y="542" on="1"/>
        <pt x="497" y="509" on="1"/>
        <pt x="504" y="526" on="1"/>
        <pt x="541" y="619" on="0"/>
        <pt x="590" y="665" on="1"/>
        <pt x="618" y="691" on="0"/>
        <pt x="671" y="715" on="0"/>
        <pt x="711" y="715" on="1"/>
        <pt x="770" y="715" on="0"/>
        <pt x="843" y="644" on="0"/>
        <pt x="843" y="589" on="1"/>
        <pt x="843" y="568" on="0"/>
        <pt x="840" y="555" on="1"/>
      </contour>
    </TTGlyph>
    <TTGlyph name="V" xMin="161" yMin="0" xMax="799" yMax="694">
      <contour>
        <pt x="220" y="348" on="1"/>
        <pt x="161" y="694" on="1"/>
        <pt x="216" y="694" on="1"/>
        <pt x="270" y="694" on="0"/>
        <pt x="270" y="693" on="1"/>
        <pt x="276" y="657" on="0"/>
        <pt x="283" y="613" on="1"/>
        <pt x="334" y="313" on="0"/>
        <pt x="346" y="215" on="1"/>
        <pt x="359" y="129" on="0"/>
        <pt x="359" y="99" on="1"/>
        <pt x="359" y="88" on="0"/>
        <pt x="358" y="84" on="1"/>
        <pt x="364" y="102" on="0"/>
        <pt x="398" y="165" on="1"/>
        <pt x="476" y="309" on="0"/>
        <pt x="684" y="657" on="1"/>
        <pt x="706" y="694" on="1"/>
        <pt x="753" y="694" on="1"/>
        <pt x="799" y="694" on="0"/>
        <pt x="799" y="693" on="1"/>
        <pt x="706" y="537" on="0"/>
        <pt x="593" y="346" on="1"/>
        <pt x="387" y="0" on="1"/>
        <pt x="333" y="0" on="1"/>
        <pt x="279" y="0" on="0"/>
        <pt x="279" y="1" on="1"/>
        <pt x="272" y="45" on="1"/>
        <pt x="264" y="89" on="0"/>
        <pt x="234" y="266" on="0"/>
      </contour>
    </TTGlyph>
    <TTGlyph name="W" xMin="161" yMin="0" xMax="1076" yMax="694">
      <contour>
        <pt x="293" y="184" on="1"/>
        <pt x="293" y="112" on="0"/>
        <pt x="289" y="85" on="1"/>
        <pt x="290" y="85" on="0"/>
        <pt x="290" y="87" on="1"/>
        <pt x="290" y="94" on="0"/>
        <pt x="306" y="134" on="1"/>
        <pt x="351" y="245" on="0"/>
        <pt x="517" y="579" on="1"/>
        <pt x="574" y="694" on="1"/>
        <pt x="671" y="694" on="1"/>
        <pt x="671" y="689" on="1"/>
        <pt x="672" y="681" on="0"/>
        <pt x="685" y="498" on="1"/>
        <pt x="703" y="244" on="0"/>
        <pt x="703" y="160" on="1"/>
        <pt x="703" y="102" on="0"/>
        <pt x="700" y="87" on="1"/>
        <pt x="704" y="97" on="1"/>
        <pt x="736" y="186" on="0"/>
        <pt x="930" y="576" on="1"/>
        <pt x="989" y="694" on="1"/>
        <pt x="1076" y="694" on="1"/>
        <pt x="1076" y="693" on="0"/>
        <pt x="903" y="347" on="1"/>
        <pt x="730" y="0" on="1"/>
        <pt x="628" y="0" on="1"/>
        <pt x="628" y="4" on="1"/>
        <pt x="628" y="5" on="0"/>
        <pt x="612" y="217" on="1"/>
        <pt x="606" y="295" on="0"/>
        <pt x="598" y="458" on="1"/>
        <pt x="596" y="490" on="0"/>
        <pt x="596" y="540" on="1"/>
        <pt x="596" y="596" on="0"/>
        <pt x="598" y="604" on="1"/>
        <pt x="599" y="609" on="0"/>
        <pt x="598" y="609" on="0"/>
        <pt x="596" y="604" on="1"/>
        <pt x="589" y="578" on="0"/>
        <pt x="554" y="502" on="1"/>
        <pt x="492" y="367" on="0"/>
        <pt x="362" y="104" on="1"/>
        <pt x="310" y="0" on="1"/>
        <pt x="213" y="0" on="1"/>
        <pt x="213" y="3" on="1"/>
        <pt x="213" y="5" on="0"/>
        <pt x="163" y="674" on="0"/>
        <pt x="162" y="690" on="1"/>
        <pt x="161" y="694" on="1"/>
        <pt x="263" y="694" on="1"/>
        <pt x="265" y="664" on="1"/>
        <pt x="290" y="327" on="0"/>
      </contour>
    </TTGlyph>
    <TTGlyph name="X" xMin="14" yMin="0" xMax="758" yMax="694">
      <contour>
        <pt x="352" y="367" on="1"/>
        <pt x="352" y="368" on="0"/>
        <pt x="177" y="691" on="0"/>
        <pt x="176" y="692" on="1"/>
        <pt x="176" y="694" on="0"/>
        <pt x="236" y="694" on="1"/>
        <pt x="297" y="694" on="1"/>
        <pt x="338" y="612" on="1"/>
        <pt x="387" y="515" on="0"/>
        <pt x="400" y="489" on="1"/>
        <pt x="421" y="448" on="1"/>
        <pt x="458" y="489" on="0"/>
        <pt x="607" y="653" on="0"/>
        <pt x="645" y="694" on="1"/>
        <pt x="758" y="694" on="1"/>
        <pt x="708" y="640" on="1"/>
        <pt x="481" y="393" on="0"/>
        <pt x="456" y="368" on="1"/>
        <pt x="455" y="366" on="0"/>
        <pt x="552" y="185" on="1"/>
        <pt x="575" y="143" on="0"/>
        <pt x="626" y="49" on="0"/>
        <pt x="638" y="26" on="1"/>
        <pt x="651" y="2" on="1"/>
        <pt x="652" y="0" on="1"/>
        <pt x="531" y="0" on="1"/>
        <pt x="460" y="146" on="1"/>
        <pt x="388" y="293" on="1"/>
        <pt x="329" y="227" on="0"/>
        <pt x="258" y="146" on="1"/>
        <pt x="128" y="0" on="1"/>
        <pt x="14" y="0" on="1"/>
        <pt x="20" y="6" on="1"/>
        <pt x="27" y="13" on="0"/>
        <pt x="197" y="198" on="0"/>
        <pt x="274" y="282" on="1"/>
      </contour>
    </TTGlyph>
    <TTGlyph name="Xi" xMin="42" yMin="0" xMax="765" yMax="688">
      <contour>
        <pt x="193" y="687" on="1"/>
        <pt x="193" y="688" on="0"/>
        <pt x="479" y="688" on="1"/>
        <pt x="765" y="688" on="1"/>
        <pt x="765" y="686" on="1"/>
        <pt x="764" y="685" on="0"/>
        <pt x="755" y="642" on="1"/>
        <pt x="747" y="600" on="1"/>
        <pt x="461" y="600" on="1"/>
        <pt x="175" y="601" on="1"/>
        <pt x="175" y="602" on="0"/>
        <pt x="184" y="645" on="1"/>
      </contour>
      <contour>
        <pt x="178" y="315" on="1"/>
        <pt x="196" y="400" on="1"/>
        <pt x="196" y="401" on="0"/>
        <pt x="640" y="401" on="0"/>
        <pt x="640" y="400" on="1"/>
        <pt x="622" y="315" on="1"/>
        <pt x="622" y="314" on="0"/>
        <pt x="178" y="314" on="0"/>
      </contour>
      <contour>
        <pt x="42" y="2" on="1"/>
        <pt x="43" y="3" on="0"/>
        <pt x="60" y="85" on="0"/>
        <pt x="60" y="87" on="1"/>
        <pt x="64" y="87" on="1"/>
        <pt x="68" y="87" on="0"/>
        <pt x="83" y="87" on="0"/>
        <pt x="104" y="87" on="0"/>
        <pt x="134" y="88" on="0"/>
        <pt x="168" y="88" on="0"/>
        <pt x="213" y="88" on="0"/>
        <pt x="262" y="88" on="0"/>
        <pt x="321" y="88" on="0"/>
        <pt x="352" y="88" on="1"/>
        <pt x="643" y="88" on="1"/>
        <pt x="643" y="87" on="0"/>
        <pt x="634" y="45" on="0"/>
        <pt x="625" y="3" on="0"/>
        <pt x="624" y="2" on="1"/>
        <pt x="624" y="0" on="1"/>
        <pt x="42" y="0" on="1"/>
      </contour>
    </TTGlyph>
    <TTGlyph name="Y" xMin="151" yMin="0" xMax="809" yMax="694">
      <contour>
        <pt x="151" y="692" on="1"/>
        <pt x="151" y="694" on="0"/>
        <pt x="212" y="694" on="1"/>
        <pt x="272" y="694" on="1"/>
        <pt x="279" y="679" on="1"/>
        <pt x="410" y="393" on="0"/>
        <pt x="418" y="362" on="1"/>
        <pt x="446" y="401" on="0"/>
        <pt x="696" y="683" on="1"/>
        <pt x="705" y="694" on="1"/>
        <pt x="758" y="694" on="1"/>
        <pt x="809" y="693" on="1"/>
        <pt x="809" y="692" on="0"/>
        <pt x="451" y="287" on="0"/>
        <pt x="444" y="280" on="1"/>
        <pt x="442" y="275" on="0"/>
        <pt x="413" y="139" on="1"/>
        <pt x="383" y="1" on="1"/>
        <pt x="333" y="0" on="1"/>
        <pt x="282" y="0" on="0"/>
        <pt x="282" y="2" on="1"/>
        <pt x="283" y="3" on="0"/>
        <pt x="312" y="141" on="1"/>
        <pt x="341" y="278" on="1"/>
        <pt x="246" y="484" on="1"/>
      </contour>
    </TTGlyph>
    <TTGlyph name="Z" xMin="55" yMin="0" xMax="702" yMax="694">
      <contour>
        <pt x="67" y="54" on="1"/>
        <pt x="551" y="615" on="0"/>
        <pt x="551" y="617" on="1"/>
        <pt x="543" y="618" on="0"/>
        <pt x="517" y="618" on="1"/>
        <pt x="510" y="618" on="0"/>
        <pt x="416" y="617" on="0"/>
        <pt x="376" y="617" on="1"/>
        <pt x="200" y="617" on="0"/>
        <pt x="200" y="619" on="0"/>
        <pt x="209" y="657" on="1"/>
        <pt x="216" y="694" on="1"/>
        <pt x="459" y="694" on="1"/>
        <pt x="702" y="694" on="0"/>
        <pt x="702" y="692" on="1"/>
        <pt x="702" y="689" on="0"/>
        <pt x="697" y="667" on="1"/>
        <pt x="692" y="643" on="1"/>
        <pt x="449" y="361" on="1"/>
        <pt x="207" y="80" on="1"/>
        <pt x="392" y="80" on="1"/>
        <pt x="493" y="81" on="0"/>
        <pt x="577" y="81" on="1"/>
        <pt x="577" y="70" on="0"/>
        <pt x="560" y="2" on="1"/>
        <pt x="560" y="0" on="1"/>
        <pt x="55" y="0" on="1"/>
        <pt x="55" y="2" on="1"/>
        <pt x="67" y="53" on="0"/>
      </contour>
    </TTGlyph>
    <TTGlyph name="a" xMin="61" yMin="-10" xMax="473" yMax="461">
      <contour>
        <pt x="165" y="418" on="1"/>
        <pt x="251" y="461" on="0"/>
        <pt x="320" y="461" on="1"/>
        <pt x="322" y="461" on="0"/>
        <pt x="334" y="460" on="0"/>
        <pt x="337" y="460" on="1"/>
        <pt x="365" y="460" on="0"/>
        <pt x="384" y="453" on="1"/>
        <pt x="424" y="440" on="0"/>
        <pt x="473" y="377" on="0"/>
        <pt x="473" y="329" on="1"/>
        <pt x="473" y="325" on="0"/>
        <pt x="472" y="311" on="0"/>
        <pt x="472" y="308" on="1"/>
        <pt x="432" y="110" on="0"/>
        <pt x="407" y="2" on="1"/>
        <pt x="407" y="0" on="1"/>
        <pt x="317" y="0" on="1"/>
        <pt x="317" y="2" on="1"/>
        <pt x="325" y="38" on="1"/>
        <pt x="274" y="12" on="0"/>
        <pt x="269" y="10" on="1"/>
        <pt x="215" y="-10" on="0"/>
        <pt x="156" y="-10" on="1"/>
        <pt x="134" y="-10" on="0"/>
        <pt x="127" y="-8" on="1"/>
        <pt x="97" y="0" on="0"/>
        <pt x="61" y="52" on="0"/>
        <pt x="61" y="90" on="1"/>
        <pt x="61" y="115" on="0"/>
        <pt x="66" y="135" on="1"/>
        <pt x="75" y="162" on="0"/>
        <pt x="134" y="209" on="0"/>
        <pt x="169" y="220" on="1"/>
        <pt x="242" y="247" on="0"/>
        <pt x="348" y="252" on="1"/>
        <pt x="368" y="252" on="1"/>
        <pt x="373" y="277" on="1"/>
        <pt x="378" y="302" on="0"/>
        <pt x="378" y="318" on="1"/>
        <pt x="378" y="367" on="0"/>
        <pt x="339" y="384" on="1"/>
        <pt x="332" y="386" on="0"/>
        <pt x="313" y="386" on="1"/>
        <pt x="226" y="386" on="0"/>
        <pt x="161" y="340" on="1"/>
        <pt x="156" y="337" on="0"/>
        <pt x="155" y="337" on="1"/>
        <pt x="154" y="338" on="0"/>
        <pt x="164" y="416" on="0"/>
      </contour>
      <contour>
        <pt x="150" y="116" on="1"/>
        <pt x="150" y="92" on="0"/>
        <pt x="192" y="65" on="0"/>
        <pt x="223" y="65" on="1"/>
        <pt x="262" y="65" on="0"/>
        <pt x="328" y="105" on="0"/>
        <pt x="341" y="135" on="1"/>
        <pt x="343" y="140" on="0"/>
        <pt x="353" y="180" on="0"/>
        <pt x="353" y="184" on="1"/>
        <pt x="353" y="186" on="0"/>
        <pt x="342" y="186" on="1"/>
        <pt x="298" y="185" on="0"/>
        <pt x="200" y="168" on="0"/>
        <pt x="177" y="157" on="1"/>
        <pt x="150" y="143" on="0"/>
      </contour>
    </TTGlyph>
    <TTGlyph name="acutecomb" xMin="-190" yMin="527" xMax="63" yMax="694">
      <contour>
        <pt x="-96" y="625" on="1"/>
        <pt x="-29" y="694" on="1"/>
        <pt x="63" y="694" on="1"/>
        <pt x="56" y="687" on="0"/>
        <pt x="-31" y="605" on="1"/>
        <pt x="-114" y="527" on="1"/>
        <pt x="-190" y="527" on="1"/>
        <pt x="-176" y="541" on="1"/>
        <pt x="-160" y="559" on="0"/>
      </contour>
    </TTGlyph>
    <TTGlyph name="ampersand" xMin="71" yMin="-22" xMax="747" yMax="716">
      <contour>
        <pt x="441" y="715" on="1"/>
        <pt x="446" y="716" on="0"/>
        <pt x="455" y="716" on="1"/>
        <pt x="484" y="716" on="0"/>
        <pt x="503" y="705" on="1"/>
        <pt x="532" y="692" on="0"/>
        <pt x="565" y="631" on="0"/>
        <pt x="565" y="549" on="0"/>
        <pt x="548" y="513" on="1"/>
        <pt x="513" y="440" on="0"/>
        <pt x="377" y="347" on="1"/>
        <pt x="358" y="334" on="1"/>
        <pt x="359" y="331" on="0"/>
        <pt x="380" y="276" on="0"/>
        <pt x="387" y="262" on="1"/>
        <pt x="401" y="231" on="0"/>
        <pt x="447" y="152" on="0"/>
        <pt x="460" y="139" on="1"/>
        <pt x="584" y="228" on="0"/>
        <pt x="664" y="389" on="1"/>
        <pt x="674" y="407" on="0"/>
        <pt x="674" y="409" on="1"/>
        <pt x="710" y="398" on="1"/>
        <pt x="746" y="388" on="0"/>
        <pt x="747" y="388" on="1"/>
        <pt x="747" y="383" on="0"/>
        <pt x="722" y="340" on="1"/>
        <pt x="657" y="222" on="0"/>
        <pt x="566" y="136" on="1"/>
        <pt x="510" y="87" on="1"/>
        <pt x="513" y="81" on="0"/>
        <pt x="537" y="70" on="1"/>
        <pt x="564" y="57" on="0"/>
        <pt x="598" y="57" on="1"/>
        <pt x="648" y="57" on="0"/>
        <pt x="708" y="72" on="1"/>
        <pt x="716" y="75" on="0"/>
        <pt x="718" y="75" on="1"/>
        <pt x="714" y="56" on="0"/>
        <pt x="709" y="34" on="1"/>
        <pt x="701" y="-7" on="1"/>
        <pt x="630" y="-22" on="0"/>
        <pt x="578" y="-22" on="1"/>
        <pt x="502" y="-22" on="0"/>
        <pt x="428" y="34" on="1"/>
        <pt x="408" y="25" on="1"/>
        <pt x="311" y="-22" on="0"/>
        <pt x="219" y="-22" on="1"/>
        <pt x="115" y="-22" on="0"/>
        <pt x="79" y="67" on="1"/>
        <pt x="73" y="84" on="0"/>
        <pt x="71" y="111" on="1"/>
        <pt x="71" y="138" on="0"/>
        <pt x="76" y="159" on="1"/>
        <pt x="91" y="216" on="0"/>
        <pt x="137" y="262" on="1"/>
        <pt x="157" y="281" on="0"/>
        <pt x="214" y="318" on="1"/>
        <pt x="258" y="348" on="1"/>
        <pt x="256" y="362" on="1"/>
        <pt x="254" y="373" on="0"/>
        <pt x="254" y="413" on="1"/>
        <pt x="254" y="435" on="1"/>
        <pt x="254" y="462" on="0"/>
        <pt x="260" y="491" on="1"/>
        <pt x="274" y="570" on="0"/>
        <pt x="357" y="689" on="0"/>
        <pt x="411" y="708" on="1"/>
        <pt x="427" y="715" on="0"/>
      </contour>
      <contour>
        <pt x="480" y="579" on="1"/>
        <pt x="480" y="640" on="0"/>
        <pt x="436" y="640" on="1"/>
        <pt x="428" y="640" on="0"/>
        <pt x="425" y="639" on="1"/>
        <pt x="400" y="633" on="0"/>
        <pt x="359" y="586" on="0"/>
        <pt x="351" y="554" on="1"/>
        <pt x="340" y="513" on="0"/>
        <pt x="340" y="457" on="1"/>
        <pt x="340" y="438" on="0"/>
        <pt x="341" y="429" on="1"/>
        <pt x="341" y="426" on="0"/>
        <pt x="342" y="416" on="0"/>
        <pt x="342" y="413" on="1"/>
        <pt x="343" y="410" on="1"/>
        <pt x="343" y="406" on="0"/>
        <pt x="360" y="419" on="1"/>
        <pt x="417" y="461" on="0"/>
        <pt x="443" y="490" on="1"/>
        <pt x="464" y="513" on="0"/>
        <pt x="480" y="550" on="0"/>
      </contour>
      <contour>
        <pt x="370" y="98" on="1"/>
        <pt x="308" y="178" on="0"/>
        <pt x="281" y="260" on="1"/>
        <pt x="274" y="277" on="1"/>
        <pt x="245" y="257" on="1"/>
        <pt x="208" y="232" on="0"/>
        <pt x="176" y="192" on="0"/>
        <pt x="168" y="157" on="1"/>
        <pt x="167" y="152" on="0"/>
        <pt x="167" y="135" on="1"/>
        <pt x="167" y="71" on="0"/>
        <pt x="220" y="58" on="1"/>
        <pt x="227" y="57" on="0"/>
        <pt x="245" y="57" on="1"/>
        <pt x="293" y="60" on="0"/>
        <pt x="334" y="73" on="1"/>
        <pt x="375" y="87" on="0"/>
        <pt x="375" y="91" on="0"/>
      </contour>
    </TTGlyph>
    <TTGlyph name="asciicircum" xMin="190" yMin="527" xMax="533" yMax="694">
      <contour>
        <pt x="309" y="644" on="1"/>
        <pt x="360" y="694" on="1"/>
        <pt x="434" y="694" on="1"/>
        <pt x="484" y="611" on="1"/>
        <pt x="533" y="528" on="0"/>
        <pt x="533" y="527" on="1"/>
        <pt x="457" y="527" on="1"/>
        <pt x="426" y="576" on="1"/>
        <pt x="412" y="596" on="0"/>
        <pt x="386" y="637" on="0"/>
        <pt x="385" y="639" on="1"/>
        <pt x="305" y="565" on="0"/>
        <pt x="266" y="527" on="1"/>
        <pt x="190" y="527" on="1"/>
        <pt x="224" y="561" on="1"/>
        <pt x="234" y="570" on="0"/>
        <pt x="296" y="631" on="0"/>
      </contour>
    </TTGlyph>
    <TTGlyph name="asciitilde" xMin="199" yMin="193" xMax="560" yMax="327">
      <contour>
        <pt x="315" y="251" on="1"/>
        <pt x="284" y="251" on="0"/>
        <pt x="275" y="193" on="1"/>
        <pt x="199" y="193" on="1"/>
        <pt x="199" y="197" on="1"/>
        <pt x="212" y="249" on="0"/>
        <pt x="280" y="327" on="0"/>
        <pt x="330" y="327" on="1"/>
        <pt x="355" y="326" on="0"/>
        <pt x="382" y="303" on="1"/>
        <pt x="417" y="272" on="0"/>
        <pt x="438" y="270" on="1"/>
        <pt x="450" y="267" on="0"/>
        <pt x="459" y="273" on="1"/>
        <pt x="474" y="283" on="0"/>
        <pt x="484" y="327" on="1"/>
        <pt x="522" y="327" on="1"/>
        <pt x="560" y="327" on="0"/>
        <pt x="560" y="325" on="1"/>
        <pt x="559" y="324" on="0"/>
        <pt x="558" y="320" on="0"/>
        <pt x="558" y="319" on="1"/>
        <pt x="549" y="284" on="0"/>
        <pt x="507" y="222" on="0"/>
        <pt x="480" y="208" on="1"/>
        <pt x="453" y="193" on="0"/>
        <pt x="429" y="193" on="1"/>
        <pt x="421" y="193" on="0"/>
        <pt x="417" y="194" on="1"/>
        <pt x="396" y="200" on="0"/>
        <pt x="368" y="224" on="1"/>
        <pt x="336" y="251" on="0"/>
      </contour>
    </TTGlyph>
    <TTGlyph name="asterisk" xMin="156" yMin="306" xMax="568" yMax="750">
      <contour>
        <pt x="193" y="608" on="1"/>
        <pt x="193" y="629" on="0"/>
        <pt x="228" y="660" on="0"/>
        <pt x="246" y="660" on="1"/>
        <pt x="251" y="660" on="0"/>
        <pt x="261" y="656" on="1"/>
        <pt x="262" y="656" on="0"/>
        <pt x="302" y="623" on="1"/>
        <pt x="340" y="590" on="0"/>
        <pt x="340" y="593" on="1"/>
        <pt x="341" y="594" on="0"/>
        <pt x="360" y="714" on="0"/>
        <pt x="360" y="715" on="1"/>
        <pt x="364" y="728" on="0"/>
        <pt x="390" y="750" on="0"/>
        <pt x="407" y="750" on="1"/>
        <pt x="422" y="750" on="0"/>
        <pt x="443" y="733" on="0"/>
        <pt x="443" y="720" on="1"/>
        <pt x="443" y="712" on="0"/>
        <pt x="427" y="652" on="1"/>
        <pt x="410" y="591" on="1"/>
        <pt x="519" y="657" on="1"/>
        <pt x="526" y="660" on="0"/>
        <pt x="534" y="660" on="1"/>
        <pt x="548" y="660" on="0"/>
        <pt x="568" y="640" on="0"/>
        <pt x="568" y="625" on="1"/>
        <pt x="568" y="606" on="0"/>
        <pt x="553" y="591" on="1"/>
        <pt x="547" y="585" on="0"/>
        <pt x="470" y="548" on="1"/>
        <pt x="429" y="528" on="1"/>
        <pt x="523" y="470" on="1"/>
        <pt x="530" y="463" on="0"/>
        <pt x="530" y="450" on="1"/>
        <pt x="530" y="431" on="0"/>
        <pt x="498" y="397" on="0"/>
        <pt x="479" y="397" on="1"/>
        <pt x="475" y="397" on="1"/>
        <pt x="468" y="397" on="0"/>
        <pt x="452" y="408" on="0"/>
        <pt x="423" y="433" on="1"/>
        <pt x="414" y="440" on="0"/>
        <pt x="393" y="457" on="0"/>
        <pt x="388" y="461" on="1"/>
        <pt x="383" y="465" on="1"/>
        <pt x="379" y="437" on="0"/>
        <pt x="374" y="404" on="1"/>
        <pt x="365" y="344" on="1"/>
        <pt x="361" y="335" on="1"/>
        <pt x="346" y="306" on="0"/>
        <pt x="314" y="306" on="1"/>
        <pt x="299" y="306" on="0"/>
        <pt x="281" y="323" on="0"/>
        <pt x="281" y="338" on="1"/>
        <pt x="281" y="345" on="0"/>
        <pt x="313" y="464" on="1"/>
        <pt x="275" y="442" on="0"/>
        <pt x="223" y="410" on="0"/>
        <pt x="206" y="400" on="0"/>
        <pt x="202" y="398" on="1"/>
        <pt x="199" y="397" on="0"/>
        <pt x="189" y="397" on="1"/>
        <pt x="173" y="397" on="0"/>
        <pt x="156" y="417" on="0"/>
        <pt x="156" y="432" on="1"/>
        <pt x="156" y="451" on="0"/>
        <pt x="172" y="466" on="1"/>
        <pt x="179" y="473" on="0"/>
        <pt x="250" y="506" on="1"/>
        <pt x="295" y="528" on="1"/>
        <pt x="202" y="585" on="1"/>
        <pt x="193" y="591" on="0"/>
      </contour>
    </TTGlyph>
    <TTGlyph name="at" xMin="120" yMin="-10" xMax="707" yMax="705">
      <contour>
        <pt x="404" y="65" on="1"/>
        <pt x="489" y="65" on="0"/>
        <pt x="550" y="91" on="1"/>
        <pt x="631" y="91" on="1"/>
        <pt x="625" y="86" on="1"/>
        <pt x="590" y="51" on="0"/>
        <pt x="481" y="-1" on="0"/>
        <pt x="425" y="-9" on="1"/>
        <pt x="416" y="-10" on="0"/>
        <pt x="390" y="-10" on="1"/>
        <pt x="326" y="-10" on="0"/>
        <pt x="277" y="11" on="1"/>
        <pt x="206" y="41" on="0"/>
        <pt x="120" y="174" on="0"/>
        <pt x="120" y="267" on="1"/>
        <pt x="120" y="390" on="0"/>
        <pt x="194" y="500" on="1"/>
        <pt x="241" y="573" on="0"/>
        <pt x="377" y="674" on="0"/>
        <pt x="454" y="694" on="1"/>
        <pt x="494" y="705" on="0"/>
        <pt x="538" y="705" on="1"/>
        <pt x="624" y="705" on="0"/>
        <pt x="707" y="604" on="0"/>
        <pt x="707" y="513" on="1"/>
        <pt x="707" y="424" on="0"/>
        <pt x="681" y="331" on="1"/>
        <pt x="658" y="241" on="0"/>
        <pt x="521" y="117" on="0"/>
        <pt x="447" y="117" on="1"/>
        <pt x="352" y="117" on="0"/>
        <pt x="312" y="214" on="1"/>
        <pt x="300" y="247" on="0"/>
        <pt x="300" y="288" on="1"/>
        <pt x="300" y="386" on="0"/>
        <pt x="418" y="546" on="0"/>
        <pt x="495" y="570" on="1"/>
        <pt x="517" y="576" on="0"/>
        <pt x="544" y="576" on="1"/>
        <pt x="577" y="576" on="0"/>
        <pt x="608" y="562" on="1"/>
        <pt x="604" y="581" on="0"/>
        <pt x="590" y="597" on="1"/>
        <pt x="568" y="628" on="0"/>
        <pt x="517" y="628" on="1"/>
        <pt x="498" y="628" on="0"/>
        <pt x="490" y="627" on="1"/>
        <pt x="388" y="610" on="0"/>
        <pt x="308" y="522" on="1"/>
        <pt x="237" y="441" on="0"/>
        <pt x="218" y="341" on="1"/>
        <pt x="212" y="310" on="0"/>
        <pt x="212" y="278" on="1"/>
        <pt x="212" y="184" on="0"/>
        <pt x="317" y="65" on="0"/>
      </contour>
      <contour>
        <pt x="600" y="397" on="1"/>
        <pt x="600" y="439" on="0"/>
        <pt x="563" y="501" on="0"/>
        <pt x="530" y="501" on="1"/>
        <pt x="505" y="501" on="0"/>
        <pt x="476" y="482" on="1"/>
        <pt x="439" y="456" on="0"/>
        <pt x="390" y="354" on="0"/>
        <pt x="390" y="298" on="1"/>
        <pt x="390" y="255" on="0"/>
        <pt x="427" y="193" on="0"/>
        <pt x="497" y="193" on="0"/>
        <pt x="532" y="228" on="1"/>
        <pt x="600" y="294" on="0"/>
      </contour>
    </TTGlyph>
    <TTGlyph name="b" xMin="75" yMin="-11" xMax="539" yMax="694">
      <contour>
        <pt x="149" y="348" on="1"/>
        <pt x="223" y="694" on="1"/>
        <pt x="267" y="694" on="1"/>
        <pt x="312" y="694" on="0"/>
        <pt x="312" y="692" on="0"/>
        <pt x="252" y="409" on="0"/>
        <pt x="251" y="407" on="1"/>
        <pt x="251" y="406" on="0"/>
        <pt x="261" y="410" on="0"/>
        <pt x="271" y="415" on="1"/>
        <pt x="347" y="454" on="0"/>
        <pt x="430" y="454" on="1"/>
        <pt x="451" y="454" on="0"/>
        <pt x="458" y="452" on="1"/>
        <pt x="495" y="442" on="0"/>
        <pt x="539" y="356" on="0"/>
        <pt x="539" y="299" on="1"/>
        <pt x="539" y="284" on="0"/>
        <pt x="538" y="276" on="1"/>
        <pt x="527" y="146" on="0"/>
        <pt x="445" y="59" on="1"/>
        <pt x="377" y="-11" on="0"/>
        <pt x="302" y="-11" on="1"/>
        <pt x="231" y="-11" on="0"/>
        <pt x="183" y="32" on="1"/>
        <pt x="176" y="39" on="0"/>
        <pt x="176" y="38" on="1"/>
        <pt x="170" y="8" on="0"/>
        <pt x="168" y="2" on="1"/>
        <pt x="168" y="0" on="1"/>
        <pt x="121" y="0" on="1"/>
        <pt x="75" y="0" on="0"/>
        <pt x="75" y="1" on="1"/>
        <pt x="84" y="46" on="1"/>
        <pt x="94" y="90" on="0"/>
        <pt x="132" y="265" on="0"/>
      </contour>
      <contour>
        <pt x="443" y="275" on="1"/>
        <pt x="443" y="323" on="0"/>
        <pt x="393" y="379" on="0"/>
        <pt x="346" y="379" on="1"/>
        <pt x="317" y="379" on="0"/>
        <pt x="296" y="369" on="1"/>
        <pt x="269" y="359" on="0"/>
        <pt x="238" y="332" on="1"/>
        <pt x="223" y="260" on="0"/>
        <pt x="193" y="118" on="1"/>
        <pt x="198" y="109" on="1"/>
        <pt x="220" y="65" on="0"/>
        <pt x="269" y="65" on="1"/>
        <pt x="345" y="65" on="0"/>
        <pt x="443" y="188" on="0"/>
      </contour>
    </TTGlyph>
    <TTGlyph name="bracketleft" xMin="41" yMin="-250" xMax="425" yMax="750">
      <contour>
        <pt x="148" y="252" on="1"/>
        <pt x="253" y="750" on="1"/>
        <pt x="339" y="750" on="1"/>
        <pt x="425" y="750" on="0"/>
        <pt x="425" y="749" on="1"/>
        <pt x="424" y="744" on="1"/>
        <pt x="423" y="739" on="0"/>
        <pt x="419" y="719" on="0"/>
        <pt x="417" y="711" on="1"/>
        <pt x="409" y="675" on="1"/>
        <pt x="367" y="674" on="1"/>
        <pt x="325" y="674" on="1"/>
        <pt x="235" y="252" on="1"/>
        <pt x="145" y="-167" on="0"/>
        <pt x="145" y="-172" on="1"/>
        <pt x="145" y="-174" on="0"/>
        <pt x="187" y="-174" on="1"/>
        <pt x="229" y="-174" on="1"/>
        <pt x="229" y="-176" on="1"/>
        <pt x="213" y="-240" on="0"/>
        <pt x="213" y="-250" on="1"/>
        <pt x="127" y="-250" on="1"/>
        <pt x="41" y="-250" on="0"/>
        <pt x="41" y="-248" on="1"/>
        <pt x="41" y="-245" on="0"/>
      </contour>
    </TTGlyph>
    <TTGlyph name="bracketright" xMin="-31" yMin="-250" xMax="353" yMax="750">
      <contour>
        <pt x="353" y="749" on="1"/>
        <pt x="353" y="747" on="0"/>
        <pt x="252" y="276" on="0"/>
        <pt x="146" y="-224" on="0"/>
        <pt x="141" y="-250" on="1"/>
        <pt x="-31" y="-250" on="1"/>
        <pt x="-31" y="-240" on="0"/>
        <pt x="-15" y="-176" on="1"/>
        <pt x="-15" y="-174" on="1"/>
        <pt x="70" y="-174" on="1"/>
        <pt x="100" y="-33" on="0"/>
        <pt x="220" y="533" on="0"/>
        <pt x="250" y="674" on="1"/>
        <pt x="208" y="674" on="1"/>
        <pt x="165" y="675" on="1"/>
        <pt x="167" y="688" on="0"/>
        <pt x="178" y="738" on="0"/>
        <pt x="181" y="750" on="1"/>
        <pt x="267" y="750" on="1"/>
        <pt x="353" y="750" on="0"/>
      </contour>
    </TTGlyph>
    <TTGlyph name="c" xMin="75" yMin="-11" xMax="499" yMax="460">
      <contour>
        <pt x="75" y="164" on="1"/>
        <pt x="75" y="275" on="0"/>
        <pt x="225" y="447" on="0"/>
        <pt x="326" y="460" on="1"/>
        <pt x="342" y="460" on="1"/>
        <pt x="398" y="460" on="0"/>
        <pt x="456" y="446" on="0"/>
        <pt x="493" y="422" on="1"/>
        <pt x="499" y="417" on="1"/>
        <pt x="483" y="378" on="1"/>
        <pt x="468" y="339" on="0"/>
        <pt x="468" y="338" on="1"/>
        <pt x="466" y="339" on="1"/>
        <pt x="465" y="340" on="0"/>
        <pt x="460" y="343" on="0"/>
        <pt x="458" y="344" on="1"/>
        <pt x="420" y="375" on="0"/>
        <pt x="385" y="378" on="1"/>
        <pt x="355" y="382" on="0"/>
        <pt x="334" y="382" on="1"/>
        <pt x="319" y="382" on="0"/>
        <pt x="307" y="380" on="1"/>
        <pt x="255" y="368" on="0"/>
        <pt x="181" y="275" on="0"/>
        <pt x="170" y="207" on="1"/>
        <pt x="168" y="191" on="0"/>
        <pt x="168" y="177" on="1"/>
        <pt x="168" y="104" on="0"/>
        <pt x="221" y="78" on="1"/>
        <pt x="239" y="69" on="0"/>
        <pt x="259" y="69" on="1"/>
        <pt x="269" y="69" on="1"/>
        <pt x="347" y="69" on="0"/>
        <pt x="420" y="108" on="1"/>
        <pt x="432" y="114" on="0"/>
        <pt x="432" y="112" on="0"/>
        <pt x="427" y="72" on="1"/>
        <pt x="422" y="32" on="1"/>
        <pt x="417" y="30" on="1"/>
        <pt x="412" y="27" on="0"/>
        <pt x="398" y="21" on="0"/>
        <pt x="395" y="20" on="1"/>
        <pt x="331" y="-8" on="0"/>
        <pt x="259" y="-11" on="1"/>
        <pt x="180" y="-11" on="0"/>
        <pt x="85" y="72" on="0"/>
        <pt x="76" y="144" on="1"/>
        <pt x="75" y="149" on="0"/>
      </contour>
    </TTGlyph>
    <TTGlyph name="colon" xMin="90" yMin="0" xMax="282" yMax="444">
      <contour>
        <pt x="174" y="396" on="1"/>
        <pt x="184" y="444" on="1"/>
        <pt x="233" y="444" on="1"/>
        <pt x="282" y="444" on="0"/>
        <pt x="282" y="443" on="1"/>
        <pt x="277" y="421" on="0"/>
        <pt x="272" y="394" on="1"/>
        <pt x="262" y="346" on="1"/>
        <pt x="213" y="346" on="1"/>
        <pt x="164" y="346" on="0"/>
        <pt x="164" y="347" on="1"/>
        <pt x="169" y="369" on="0"/>
      </contour>
      <contour>
        <pt x="90" y="2" on="1"/>
        <pt x="110" y="95" on="0"/>
        <pt x="111" y="96" on="1"/>
        <pt x="111" y="98" on="0"/>
        <pt x="209" y="98" on="0"/>
        <pt x="209" y="96" on="1"/>
        <pt x="188" y="2" on="1"/>
        <pt x="188" y="0" on="1"/>
        <pt x="90" y="0" on="1"/>
      </contour>
    </TTGlyph>
    <TTGlyph name="comma" xMin="63" yMin="-125" xMax="209" yMax="98">
      <contour>
        <pt x="90" y="2" on="1"/>
        <pt x="110" y="95" on="0"/>
        <pt x="111" y="96" on="1"/>
        <pt x="111" y="98" on="0"/>
        <pt x="209" y="98" on="0"/>
        <pt x="209" y="96" on="1"/>
        <pt x="188" y="2" on="1"/>
        <pt x="188" y="0" on="0"/>
        <pt x="149" y="-63" on="1"/>
        <pt x="112" y="-125" on="1"/>
        <pt x="63" y="-125" on="1"/>
        <pt x="76" y="-97" on="0"/>
        <pt x="91" y="-62" on="1"/>
        <pt x="120" y="0" on="1"/>
        <pt x="105" y="0" on="1"/>
        <pt x="90" y="0" on="0"/>
      </contour>
    </TTGlyph>
    <TTGlyph name="d" xMin="73" yMin="-10" xMax="588" yMax="694">
      <contour>
        <pt x="469" y="553" on="1"/>
        <pt x="499" y="694" on="1"/>
        <pt x="588" y="694" on="1"/>
        <pt x="588" y="691" on="1"/>
        <pt x="588" y="690" on="0"/>
        <pt x="442" y="5" on="0"/>
        <pt x="441" y="2" on="1"/>
        <pt x="441" y="0" on="1"/>
        <pt x="348" y="0" on="1"/>
        <pt x="348" y="2" on="1"/>
        <pt x="357" y="29" on="0"/>
        <pt x="357" y="43" on="1"/>
        <pt x="352" y="41" on="1"/>
        <pt x="350" y="39" on="0"/>
        <pt x="318" y="20" on="1"/>
        <pt x="256" y="-10" on="0"/>
        <pt x="196" y="-10" on="1"/>
        <pt x="175" y="-10" on="0"/>
        <pt x="170" y="-9" on="1"/>
        <pt x="94" y="10" on="0"/>
        <pt x="75" y="113" on="1"/>
        <pt x="73" y="129" on="0"/>
        <pt x="73" y="156" on="1"/>
        <pt x="73" y="176" on="0"/>
        <pt x="74" y="182" on="1"/>
        <pt x="85" y="290" on="0"/>
        <pt x="149" y="371" on="1"/>
        <pt x="217" y="455" on="0"/>
        <pt x="294" y="455" on="1"/>
        <pt x="375" y="455" on="0"/>
        <pt x="432" y="413" on="1"/>
        <pt x="438" y="407" on="0"/>
        <pt x="438" y="413" on="0"/>
      </contour>
      <contour>
        <pt x="167" y="168" on="1"/>
        <pt x="167" y="121" on="0"/>
        <pt x="216" y="66" on="0"/>
        <pt x="263" y="66" on="1"/>
        <pt x="280" y="66" on="0"/>
        <pt x="285" y="67" on="1"/>
        <pt x="331" y="76" on="0"/>
        <pt x="367" y="116" on="1"/>
        <pt x="374" y="124" on="1"/>
        <pt x="397" y="229" on="1"/>
        <pt x="419" y="333" on="0"/>
        <pt x="419" y="335" on="1"/>
        <pt x="419" y="341" on="0"/>
        <pt x="404" y="356" on="1"/>
        <pt x="379" y="379" on="0"/>
        <pt x="342" y="379" on="1"/>
        <pt x="339" y="379" on="0"/>
        <pt x="329" y="378" on="0"/>
        <pt x="327" y="378" on="1"/>
        <pt x="267" y="371" on="0"/>
        <pt x="187" y="289" on="0"/>
        <pt x="173" y="219" on="1"/>
        <pt x="167" y="192" on="0"/>
      </contour>
    </TTGlyph>
    <TTGlyph name="dollar" xMin="56" yMin="-56" xMax="565" yMax="750">
      <contour>
        <pt x="228" y="70" on="1"/>
        <pt x="230" y="83" on="0"/>
        <pt x="257" y="206" on="0"/>
        <pt x="280" y="315" on="0"/>
        <pt x="280" y="316" on="1"/>
        <pt x="277" y="317" on="0"/>
        <pt x="273" y="318" on="1"/>
        <pt x="223" y="331" on="0"/>
        <pt x="159" y="410" on="0"/>
        <pt x="159" y="468" on="1"/>
        <pt x="159" y="537" on="0"/>
        <pt x="252" y="664" on="0"/>
        <pt x="325" y="691" on="1"/>
        <pt x="352" y="701" on="0"/>
        <pt x="360" y="701" on="1"/>
        <pt x="361" y="701" on="0"/>
        <pt x="362" y="701" on="0"/>
        <pt x="363" y="706" on="0"/>
        <pt x="366" y="716" on="0"/>
        <pt x="368" y="727" on="1"/>
        <pt x="372" y="750" on="1"/>
        <pt x="409" y="750" on="1"/>
        <pt x="445" y="750" on="0"/>
        <pt x="445" y="749" on="1"/>
        <pt x="443" y="738" on="1"/>
        <pt x="441" y="727" on="0"/>
        <pt x="438" y="716" on="1"/>
        <pt x="436" y="705" on="1"/>
        <pt x="436" y="704" on="0"/>
        <pt x="448" y="702" on="1"/>
        <pt x="507" y="693" on="0"/>
        <pt x="554" y="657" on="1"/>
        <pt x="565" y="649" on="1"/>
        <pt x="564" y="647" on="0"/>
        <pt x="553" y="618" on="0"/>
        <pt x="548" y="604" on="1"/>
        <pt x="534" y="568" on="1"/>
        <pt x="499" y="603" on="0"/>
        <pt x="459" y="615" on="1"/>
        <pt x="435" y="623" on="0"/>
        <pt x="424" y="623" on="1"/>
        <pt x="419" y="624" on="1"/>
        <pt x="395" y="515" on="1"/>
        <pt x="372" y="405" on="1"/>
        <pt x="396" y="401" on="0"/>
        <pt x="424" y="384" on="1"/>
        <pt x="490" y="339" on="0"/>
        <pt x="490" y="247" on="1"/>
        <pt x="490" y="220" on="0"/>
        <pt x="488" y="209" on="1"/>
        <pt x="474" y="133" on="0"/>
        <pt x="366" y="12" on="0"/>
        <pt x="294" y="-5" on="1"/>
        <pt x="284" y="-7" on="1"/>
        <pt x="280" y="-30" on="1"/>
        <pt x="279" y="-35" on="0"/>
        <pt x="276" y="-48" on="0"/>
        <pt x="275" y="-52" on="1"/>
        <pt x="274" y="-55" on="1"/>
        <pt x="274" y="-56" on="0"/>
        <pt x="237" y="-56" on="1"/>
        <pt x="201" y="-56" on="0"/>
        <pt x="201" y="-54" on="1"/>
        <pt x="202" y="-53" on="0"/>
        <pt x="211" y="-12" on="0"/>
        <pt x="211" y="-11" on="1"/>
        <pt x="211" y="-9" on="0"/>
        <pt x="206" y="-9" on="1"/>
        <pt x="154" y="-2" on="0"/>
        <pt x="115" y="19" on="1"/>
        <pt x="80" y="35" on="0"/>
        <pt x="56" y="59" on="1"/>
        <pt x="62" y="73" on="0"/>
        <pt x="82" y="128" on="0"/>
        <pt x="88" y="141" on="1"/>
        <pt x="99" y="131" on="1"/>
        <pt x="149" y="83" on="0"/>
        <pt x="219" y="72" on="1"/>
      </contour>
      <contour>
        <pt x="343" y="614" on="1"/>
        <pt x="345" y="620" on="1"/>
        <pt x="335" y="616" on="1"/>
        <pt x="287" y="596" on="0"/>
        <pt x="263" y="549" on="1"/>
        <pt x="252" y="524" on="0"/>
        <pt x="252" y="474" on="0"/>
        <pt x="279" y="434" on="0"/>
        <pt x="298" y="426" on="1"/>
        <pt x="303" y="424" on="0"/>
        <pt x="303" y="426" on="1"/>
        <pt x="305" y="428" on="0"/>
      </contour>
      <contour>
        <pt x="399" y="214" on="1"/>
        <pt x="399" y="243" on="0"/>
        <pt x="371" y="290" on="0"/>
        <pt x="349" y="297" on="1"/>
        <pt x="302" y="75" on="1"/>
        <pt x="303" y="75" on="0"/>
        <pt x="313" y="80" on="0"/>
        <pt x="325" y="87" on="0"/>
        <pt x="328" y="89" on="1"/>
        <pt x="361" y="110" on="0"/>
        <pt x="399" y="178" on="0"/>
      </contour>
    </TTGlyph>
    <TTGlyph name="dotlessi" xMin="74" yMin="0" xMax="258" yMax="444">
      <contour>
        <pt x="168" y="442" on="0"/>
        <pt x="168" y="444" on="0"/>
        <pt x="258" y="444" on="0"/>
        <pt x="258" y="442" on="0"/>
        <pt x="165" y="7" on="0"/>
        <pt x="164" y="2" on="1"/>
        <pt x="164" y="0" on="1"/>
        <pt x="74" y="0" on="1"/>
        <pt x="74" y="2" on="1"/>
        <pt x="75" y="7" on="0"/>
      </contour>
    </TTGlyph>
    <TTGlyph name="e" xMin="71" yMin="-11" xMax="472" yMax="460">
      <contour>
        <pt x="328" y="460" on="1"/>
        <pt x="472" y="460" on="0"/>
        <pt x="472" y="309" on="1"/>
        <pt x="472" y="274" on="0"/>
        <pt x="464" y="234" on="1"/>
        <pt x="462" y="219" on="1"/>
        <pt x="159" y="219" on="1"/>
        <pt x="156" y="186" on="0"/>
        <pt x="156" y="185" on="1"/>
        <pt x="156" y="139" on="0"/>
        <pt x="201" y="77" on="0"/>
        <pt x="237" y="68" on="1"/>
        <pt x="246" y="66" on="0"/>
        <pt x="268" y="66" on="1"/>
        <pt x="345" y="66" on="0"/>
        <pt x="427" y="113" on="1"/>
        <pt x="427" y="109" on="1"/>
        <pt x="426" y="108" on="0"/>
        <pt x="418" y="39" on="0"/>
        <pt x="417" y="37" on="1"/>
        <pt x="417" y="34" on="0"/>
        <pt x="409" y="29" on="1"/>
        <pt x="350" y="0" on="0"/>
        <pt x="287" y="-8" on="1"/>
        <pt x="269" y="-11" on="0"/>
        <pt x="248" y="-11" on="1"/>
        <pt x="169" y="-11" on="0"/>
        <pt x="71" y="91" on="0"/>
        <pt x="71" y="173" on="1"/>
        <pt x="71" y="264" on="0"/>
        <pt x="132" y="347" on="1"/>
        <pt x="199" y="437" on="0"/>
        <pt x="307" y="459" on="1"/>
        <pt x="311" y="460" on="0"/>
        <pt x="318" y="460" on="1"/>
      </contour>
      <contour>
        <pt x="401" y="299" on="1"/>
        <pt x="399" y="338" on="0"/>
        <pt x="355" y="385" on="0"/>
        <pt x="316" y="385" on="1"/>
        <pt x="291" y="385" on="0"/>
        <pt x="266" y="371" on="1"/>
        <pt x="219" y="349" on="0"/>
        <pt x="184" y="289" on="1"/>
        <pt x="401" y="289" on="1"/>
      </contour>
    </TTGlyph>
    <TTGlyph name="eight" xMin="77" yMin="-22" xMax="554" yMax="678">
      <contour>
        <pt x="246" y="-22" on="1"/>
        <pt x="171" y="-22" on="0"/>
        <pt x="77" y="70" on="0"/>
        <pt x="77" y="143" on="1"/>
        <pt x="77" y="187" on="0"/>
        <pt x="96" y="226" on="1"/>
        <pt x="125" y="287" on="0"/>
        <pt x="188" y="327" on="1"/>
        <pt x="207" y="339" on="0"/>
        <pt x="243" y="353" on="1"/>
        <pt x="246" y="354" on="0"/>
        <pt x="240" y="357" on="1"/>
        <pt x="239" y="358" on="0"/>
        <pt x="234" y="360" on="1"/>
        <pt x="159" y="398" on="0"/>
        <pt x="159" y="470" on="1"/>
        <pt x="159" y="517" on="0"/>
        <pt x="187" y="561" on="1"/>
        <pt x="233" y="637" on="0"/>
        <pt x="321" y="666" on="1"/>
        <pt x="357" y="678" on="0"/>
        <pt x="394" y="678" on="1"/>
        <pt x="456" y="678" on="0"/>
        <pt x="539" y="614" on="0"/>
        <pt x="551" y="563" on="1"/>
        <pt x="554" y="548" on="0"/>
        <pt x="554" y="533" on="1"/>
        <pt x="554" y="495" on="0"/>
        <pt x="538" y="464" on="1"/>
        <pt x="502" y="394" on="0"/>
        <pt x="413" y="358" on="1"/>
        <pt x="404" y="354" on="1"/>
        <pt x="404" y="353" on="0"/>
        <pt x="406" y="353" on="0"/>
        <pt x="430" y="341" on="1"/>
        <pt x="500" y="295" on="0"/>
        <pt x="500" y="218" on="1"/>
        <pt x="500" y="158" on="0"/>
        <pt x="429" y="55" on="0"/>
        <pt x="381" y="21" on="1"/>
        <pt x="315" y="-22" on="0"/>
      </contour>
      <contour>
        <pt x="467" y="527" on="1"/>
        <pt x="467" y="605" on="0"/>
        <pt x="375" y="605" on="1"/>
        <pt x="323" y="605" on="0"/>
        <pt x="257" y="546" on="0"/>
        <pt x="245" y="496" on="1"/>
        <pt x="244" y="490" on="0"/>
        <pt x="244" y="472" on="1"/>
        <pt x="244" y="433" on="0"/>
        <pt x="292" y="392" on="0"/>
        <pt x="334" y="392" on="1"/>
        <pt x="392" y="392" on="0"/>
        <pt x="467" y="469" on="0"/>
      </contour>
      <contour>
        <pt x="405" y="228" on="1"/>
        <pt x="405" y="269" on="0"/>
        <pt x="357" y="316" on="0"/>
        <pt x="315" y="316" on="1"/>
        <pt x="312" y="316" on="0"/>
        <pt x="302" y="315" on="0"/>
        <pt x="301" y="315" on="1"/>
        <pt x="246" y="307" on="0"/>
        <pt x="174" y="214" on="0"/>
        <pt x="174" y="144" on="1"/>
        <pt x="174" y="100" on="0"/>
        <pt x="219" y="54" on="0"/>
        <pt x="262" y="54" on="1"/>
        <pt x="332" y="54" on="0"/>
        <pt x="373" y="117" on="1"/>
        <pt x="405" y="168" on="0"/>
      </contour>
    </TTGlyph>
    <TTGlyph name="emdash" xMin="50" yMin="236" xMax="1065" yMax="312">
      <contour>
        <pt x="59" y="275" on="1"/>
        <pt x="66" y="312" on="1"/>
        <pt x="566" y="312" on="1"/>
        <pt x="1065" y="312" on="0"/>
        <pt x="1065" y="310" on="0"/>
        <pt x="1050" y="239" on="0"/>
        <pt x="1049" y="238" on="1"/>
        <pt x="1049" y="236" on="0"/>
        <pt x="549" y="236" on="1"/>
        <pt x="50" y="236" on="0"/>
        <pt x="50" y="237" on="1"/>
        <pt x="52" y="242" on="1"/>
        <pt x="53" y="247" on="0"/>
        <pt x="57" y="267" on="0"/>
      </contour>
    </TTGlyph>
    <TTGlyph name="endash" xMin="50" yMin="236" xMax="565" yMax="312">
      <contour>
        <pt x="59" y="275" on="1"/>
        <pt x="66" y="312" on="1"/>
        <pt x="316" y="312" on="1"/>
        <pt x="565" y="312" on="0"/>
        <pt x="565" y="310" on="0"/>
        <pt x="550" y="239" on="0"/>
        <pt x="549" y="238" on="1"/>
        <pt x="549" y="236" on="0"/>
        <pt x="299" y="236" on="1"/>
        <pt x="50" y="236" on="0"/>
        <pt x="50" y="237" on="1"/>
        <pt x="52" y="242" on="1"/>
        <pt x="53" y="247" on="0"/>
        <pt x="57" y="267" on="0"/>
      </contour>
    </TTGlyph>
    <TTGlyph name="equal" xMin="88" yMin="130" xMax="796" yMax="370">
      <contour>
        <pt x="142" y="368" on="1"/>
        <pt x="145" y="370" on="0"/>
        <pt x="463" y="370" on="1"/>
        <pt x="780" y="370" on="0"/>
        <pt x="784" y="368" on="1"/>
        <pt x="796" y="364" on="0"/>
        <pt x="796" y="336" on="0"/>
        <pt x="784" y="332" on="1"/>
        <pt x="780" y="330" on="0"/>
        <pt x="463" y="330" on="1"/>
        <pt x="145" y="330" on="0"/>
        <pt x="142" y="332" on="1"/>
        <pt x="130" y="338" on="0"/>
        <pt x="130" y="351" on="1"/>
        <pt x="130" y="362" on="0"/>
      </contour>
      <contour>
        <pt x="88" y="137" on="0"/>
        <pt x="88" y="163" on="0"/>
        <pt x="102" y="170" on="1"/>
        <pt x="738" y="170" on="1"/>
        <pt x="754" y="161" on="0"/>
        <pt x="754" y="139" on="0"/>
        <pt x="738" y="130" on="1"/>
        <pt x="102" y="130" on="1"/>
      </contour>
    </TTGlyph>
    <TTGlyph name="exclam" xMin="110" yMin="0" xMax="355" yMax="694">
      <contour>
        <pt x="209" y="441" on="1"/>
        <pt x="257" y="694" on="1"/>
        <pt x="306" y="694" on="1"/>
        <pt x="355" y="694" on="0"/>
        <pt x="355" y="693" on="1"/>
        <pt x="329" y="579" on="0"/>
        <pt x="296" y="439" on="1"/>
        <pt x="238" y="186" on="1"/>
        <pt x="199" y="186" on="1"/>
        <pt x="160" y="186" on="0"/>
        <pt x="160" y="187" on="1"/>
        <pt x="182" y="301" on="0"/>
      </contour>
      <contour>
        <pt x="110" y="2" on="1"/>
        <pt x="130" y="95" on="0"/>
        <pt x="131" y="96" on="1"/>
        <pt x="131" y="98" on="0"/>
        <pt x="229" y="98" on="0"/>
        <pt x="229" y="96" on="1"/>
        <pt x="208" y="2" on="1"/>
        <pt x="208" y="0" on="1"/>
        <pt x="110" y="0" on="1"/>
      </contour>
    </TTGlyph>
    <TTGlyph name="f" xMin="94" yMin="0" xMax="494" yMax="705">
      <contour>
        <pt x="381" y="443" on="1"/>
        <pt x="381" y="440" on="0"/>
        <pt x="366" y="374" on="0"/>
        <pt x="366" y="371" on="1"/>
        <pt x="315" y="371" on="1"/>
        <pt x="263" y="371" on="0"/>
        <pt x="263" y="369" on="1"/>
        <pt x="262" y="368" on="0"/>
        <pt x="224" y="186" on="1"/>
        <pt x="215" y="145" on="0"/>
        <pt x="194" y="48" on="0"/>
        <pt x="189" y="25" on="1"/>
        <pt x="184" y="2" on="1"/>
        <pt x="184" y="0" on="1"/>
        <pt x="94" y="0" on="1"/>
        <pt x="94" y="2" on="1"/>
        <pt x="99" y="25" on="1"/>
        <pt x="104" y="48" on="0"/>
        <pt x="125" y="145" on="0"/>
        <pt x="134" y="186" on="1"/>
        <pt x="172" y="368" on="0"/>
        <pt x="173" y="369" on="1"/>
        <pt x="173" y="371" on="0"/>
        <pt x="139" y="371" on="1"/>
        <pt x="106" y="371" on="1"/>
        <pt x="106" y="373" on="1"/>
        <pt x="114" y="410" on="1"/>
        <pt x="121" y="444" on="1"/>
        <pt x="155" y="444" on="1"/>
        <pt x="188" y="445" on="1"/>
        <pt x="191" y="455" on="1"/>
        <pt x="192" y="462" on="0"/>
        <pt x="211" y="547" on="0"/>
        <pt x="212" y="551" on="1"/>
        <pt x="231" y="611" on="0"/>
        <pt x="334" y="697" on="0"/>
        <pt x="393" y="704" on="1"/>
        <pt x="399" y="705" on="0"/>
        <pt x="415" y="705" on="1"/>
        <pt x="444" y="705" on="0"/>
        <pt x="464" y="701" on="1"/>
        <pt x="492" y="696" on="0"/>
        <pt x="494" y="694" on="1"/>
        <pt x="494" y="693" on="0"/>
        <pt x="478" y="618" on="0"/>
        <pt x="477" y="614" on="1"/>
        <pt x="477" y="613" on="0"/>
        <pt x="468" y="616" on="1"/>
        <pt x="439" y="628" on="0"/>
        <pt x="406" y="629" on="1"/>
        <pt x="333" y="629" on="0"/>
        <pt x="306" y="579" on="1"/>
        <pt x="301" y="568" on="0"/>
        <pt x="289" y="507" on="1"/>
        <pt x="275" y="444" on="1"/>
        <pt x="328" y="444" on="1"/>
        <pt x="381" y="444" on="0"/>
      </contour>
    </TTGlyph>
    <TTGlyph name="five" xMin="50" yMin="-22" xMax="555" yMax="656">
      <contour>
        <pt x="133" y="275" on="1"/>
        <pt x="134" y="276" on="0"/>
        <pt x="214" y="653" on="0"/>
        <pt x="214" y="655" on="1"/>
        <pt x="214" y="656" on="0"/>
        <pt x="385" y="656" on="1"/>
        <pt x="555" y="656" on="1"/>
        <pt x="555" y="653" on="1"/>
        <pt x="555" y="652" on="0"/>
        <pt x="552" y="641" on="0"/>
        <pt x="548" y="621" on="0"/>
        <pt x="546" y="613" on="1"/>
        <pt x="539" y="577" on="1"/>
        <pt x="284" y="577" on="1"/>
        <pt x="265" y="486" on="1"/>
        <pt x="261" y="464" on="0"/>
        <pt x="251" y="418" on="0"/>
        <pt x="248" y="406" on="1"/>
        <pt x="246" y="395" on="1"/>
        <pt x="250" y="397" on="0"/>
        <pt x="255" y="400" on="1"/>
        <pt x="298" y="427" on="0"/>
        <pt x="350" y="427" on="1"/>
        <pt x="417" y="427" on="0"/>
        <pt x="498" y="329" on="0"/>
        <pt x="498" y="256" on="1"/>
        <pt x="498" y="190" on="0"/>
        <pt x="464" y="130" on="1"/>
        <pt x="431" y="70" on="0"/>
        <pt x="320" y="-9" on="0"/>
        <pt x="255" y="-20" on="1"/>
        <pt x="239" y="-22" on="0"/>
        <pt x="222" y="-22" on="1"/>
        <pt x="136" y="-22" on="0"/>
        <pt x="80" y="34" on="1"/>
        <pt x="69" y="45" on="0"/>
        <pt x="50" y="73" on="0"/>
        <pt x="50" y="77" on="1"/>
        <pt x="50" y="78" on="0"/>
        <pt x="57" y="87" on="0"/>
        <pt x="72" y="105" on="0"/>
        <pt x="78" y="112" on="1"/>
        <pt x="104" y="145" on="1"/>
        <pt x="107" y="139" on="1"/>
        <pt x="139" y="55" on="0"/>
        <pt x="236" y="55" on="1"/>
        <pt x="256" y="55" on="0"/>
        <pt x="264" y="57" on="1"/>
        <pt x="314" y="68" on="0"/>
        <pt x="378" y="149" on="0"/>
        <pt x="389" y="210" on="1"/>
        <pt x="396" y="249" on="0"/>
        <pt x="396" y="267" on="1"/>
        <pt x="396" y="319" on="0"/>
        <pt x="365" y="341" on="1"/>
        <pt x="353" y="350" on="0"/>
        <pt x="337" y="350" on="1"/>
        <pt x="330" y="350" on="1"/>
        <pt x="308" y="350" on="0"/>
        <pt x="289" y="342" on="1"/>
        <pt x="248" y="326" on="0"/>
        <pt x="214" y="272" on="1"/>
        <pt x="133" y="272" on="1"/>
      </contour>
    </TTGlyph>
    <TTGlyph name="four" xMin="62" yMin="0" xMax="521" yMax="656">
      <contour>
        <pt x="78" y="235" on="1"/>
        <pt x="134" y="305" on="0"/>
        <pt x="356" y="586" on="0"/>
        <pt x="411" y="656" on="1"/>
        <pt x="465" y="656" on="1"/>
        <pt x="519" y="656" on="0"/>
        <pt x="519" y="654" on="0"/>
        <pt x="431" y="240" on="0"/>
        <pt x="430" y="237" on="1"/>
        <pt x="430" y="235" on="1"/>
        <pt x="521" y="235" on="1"/>
        <pt x="521" y="233" on="1"/>
        <pt x="505" y="160" on="1"/>
        <pt x="505" y="159" on="0"/>
        <pt x="459" y="159" on="1"/>
        <pt x="414" y="159" on="1"/>
        <pt x="397" y="80" on="1"/>
        <pt x="380" y="0" on="1"/>
        <pt x="286" y="0" on="1"/>
        <pt x="294" y="36" on="0"/>
        <pt x="303" y="80" on="1"/>
        <pt x="320" y="159" on="1"/>
        <pt x="62" y="159" on="1"/>
        <pt x="63" y="164" on="1"/>
        <pt x="64" y="169" on="0"/>
        <pt x="68" y="189" on="0"/>
        <pt x="70" y="198" on="1"/>
      </contour>
      <contour>
        <pt x="342" y="235" on="1"/>
        <pt x="421" y="607" on="1"/>
        <pt x="419" y="603" on="1"/>
        <pt x="399" y="522" on="0"/>
        <pt x="197" y="267" on="1"/>
        <pt x="173" y="236" on="0"/>
        <pt x="173" y="235" on="1"/>
      </contour>
    </TTGlyph>
    <TTGlyph name="g" xMin="12" yMin="-206" xMax="568" yMax="455">
      <contour>
        <pt x="126" y="189" on="1"/>
        <pt x="113" y="230" on="0"/>
        <pt x="113" y="252" on="1"/>
        <pt x="113" y="281" on="0"/>
        <pt x="123" y="311" on="1"/>
        <pt x="137" y="351" on="0"/>
        <pt x="201" y="420" on="0"/>
        <pt x="242" y="438" on="1"/>
        <pt x="277" y="454" on="0"/>
        <pt x="311" y="454" on="1"/>
        <pt x="378" y="454" on="0"/>
        <pt x="410" y="423" on="1"/>
        <pt x="413" y="420" on="0"/>
        <pt x="413" y="421" on="1"/>
        <pt x="412" y="423" on="0"/>
        <pt x="411" y="424" on="1"/>
        <pt x="409" y="426" on="1"/>
        <pt x="409" y="428" on="0"/>
        <pt x="457" y="442" on="0"/>
        <pt x="478" y="446" on="1"/>
        <pt x="525" y="455" on="0"/>
        <pt x="560" y="455" on="1"/>
        <pt x="568" y="455" on="1"/>
        <pt x="568" y="451" on="1"/>
        <pt x="568" y="447" on="0"/>
        <pt x="566" y="411" on="0"/>
        <pt x="566" y="394" on="1"/>
        <pt x="565" y="377" on="1"/>
        <pt x="553" y="379" on="1"/>
        <pt x="522" y="385" on="0"/>
        <pt x="479" y="385" on="1"/>
        <pt x="463" y="385" on="0"/>
        <pt x="456" y="384" on="1"/>
        <pt x="443" y="383" on="1"/>
        <pt x="442" y="384" on="0"/>
        <pt x="437" y="390" on="0"/>
        <pt x="436" y="392" on="1"/>
        <pt x="454" y="356" on="0"/>
        <pt x="454" y="324" on="1"/>
        <pt x="454" y="311" on="0"/>
        <pt x="452" y="299" on="1"/>
        <pt x="443" y="235" on="0"/>
        <pt x="395" y="187" on="1"/>
        <pt x="346" y="135" on="0"/>
        <pt x="276" y="121" on="1"/>
        <pt x="269" y="120" on="0"/>
        <pt x="249" y="120" on="1"/>
        <pt x="205" y="120" on="0"/>
        <pt x="169" y="141" on="1"/>
        <pt x="163" y="145" on="1"/>
        <pt x="161" y="143" on="0"/>
        <pt x="160" y="141" on="1"/>
        <pt x="149" y="124" on="0"/>
        <pt x="149" y="105" on="1"/>
        <pt x="149" y="79" on="0"/>
        <pt x="171" y="72" on="1"/>
        <pt x="242" y="71" on="1"/>
        <pt x="324" y="70" on="0"/>
        <pt x="343" y="67" on="1"/>
        <pt x="461" y="51" on="0"/>
        <pt x="461" y="-40" on="1"/>
        <pt x="461" y="-93" on="0"/>
        <pt x="420" y="-130" on="1"/>
        <pt x="342" y="-206" on="0"/>
        <pt x="211" y="-206" on="1"/>
        <pt x="170" y="-206" on="0"/>
        <pt x="133" y="-198" on="1"/>
        <pt x="86" y="-187" on="0"/>
        <pt x="20" y="-136" on="0"/>
        <pt x="13" y="-104" on="1"/>
        <pt x="12" y="-100" on="0"/>
        <pt x="12" y="-86" on="1"/>
        <pt x="12" y="-73" on="0"/>
        <pt x="13" y="-69" on="1"/>
        <pt x="25" y="-8" on="0"/>
        <pt x="82" y="32" on="1"/>
        <pt x="90" y="38" on="0"/>
        <pt x="89" y="39" on="1"/>
        <pt x="89" y="40" on="0"/>
        <pt x="85" y="50" on="1"/>
        <pt x="80" y="67" on="0"/>
        <pt x="80" y="82" on="1"/>
        <pt x="80" y="136" on="0"/>
      </contour>
      <contour>
        <pt x="369" y="319" on="1"/>
        <pt x="369" y="349" on="0"/>
        <pt x="335" y="383" on="0"/>
        <pt x="304" y="383" on="1"/>
        <pt x="281" y="383" on="0"/>
        <pt x="259" y="372" on="1"/>
        <pt x="233" y="360" on="0"/>
        <pt x="197" y="295" on="0"/>
        <pt x="197" y="255" on="1"/>
        <pt x="197" y="225" on="0"/>
        <pt x="233" y="191" on="0"/>
        <pt x="263" y="191" on="1"/>
        <pt x="310" y="191" on="0"/>
        <pt x="369" y="266" on="0"/>
      </contour>
      <contour>
        <pt x="289" y="-6" on="1"/>
        <pt x="281" y="-5" on="0"/>
        <pt x="216" y="-5" on="1"/>
        <pt x="167" y="-5" on="0"/>
        <pt x="148" y="-7" on="0"/>
        <pt x="139" y="-12" on="1"/>
        <pt x="122" y="-20" on="0"/>
        <pt x="97" y="-55" on="0"/>
        <pt x="97" y="-76" on="1"/>
        <pt x="97" y="-84" on="0"/>
        <pt x="100" y="-90" on="1"/>
        <pt x="113" y="-116" on="0"/>
        <pt x="166" y="-129" on="1"/>
        <pt x="193" y="-134" on="0"/>
        <pt x="221" y="-134" on="1"/>
        <pt x="269" y="-134" on="0"/>
        <pt x="358" y="-101" on="0"/>
        <pt x="369" y="-79" on="1"/>
        <pt x="373" y="-70" on="0"/>
        <pt x="373" y="-59" on="1"/>
        <pt x="373" y="-41" on="0"/>
        <pt x="361" y="-29" on="1"/>
        <pt x="343" y="-9" on="0"/>
      </contour>
    </TTGlyph>
    <TTGlyph name="gravecomb" xMin="-270" yMin="527" xMax="-87" yMax="694">
      <contour>
        <pt x="-262" y="681" on="1"/>
        <pt x="-270" y="694" on="1"/>
        <pt x="-177" y="694" on="1"/>
        <pt x="-132" y="612" on="1"/>
        <pt x="-89" y="530" on="0"/>
        <pt x="-87" y="528" on="1"/>
        <pt x="-87" y="527" on="0"/>
        <pt x="-125" y="527" on="1"/>
        <pt x="-163" y="527" on="1"/>
        <pt x="-208" y="598" on="1"/>
        <pt x="-254" y="670" on="0"/>
      </contour>
    </TTGlyph>
    <TTGlyph name="h" xMin="73" yMin="0" xMax="513" yMax="694">
      <contour>
        <pt x="416" y="321" on="1"/>
        <pt x="416" y="379" on="0"/>
        <pt x="336" y="379" on="1"/>
        <pt x="326" y="379" on="0"/>
        <pt x="316" y="377" on="1"/>
        <pt x="269" y="364" on="0"/>
        <pt x="237" y="302" on="1"/>
        <pt x="224" y="273" on="0"/>
        <pt x="194" y="132" on="1"/>
        <pt x="166" y="2" on="1"/>
        <pt x="166" y="0" on="1"/>
        <pt x="119" y="0" on="1"/>
        <pt x="73" y="0" on="0"/>
        <pt x="73" y="1" on="1"/>
        <pt x="82" y="46" on="1"/>
        <pt x="92" y="90" on="0"/>
        <pt x="130" y="265" on="0"/>
        <pt x="147" y="348" on="1"/>
        <pt x="221" y="694" on="1"/>
        <pt x="265" y="694" on="1"/>
        <pt x="310" y="694" on="0"/>
        <pt x="310" y="693" on="1"/>
        <pt x="310" y="675" on="0"/>
        <pt x="247" y="395" on="1"/>
        <pt x="329" y="455" on="0"/>
        <pt x="403" y="455" on="1"/>
        <pt x="513" y="455" on="0"/>
        <pt x="513" y="358" on="1"/>
        <pt x="513" y="334" on="0"/>
        <pt x="508" y="309" on="1"/>
        <pt x="507" y="304" on="0"/>
        <pt x="444" y="7" on="0"/>
        <pt x="443" y="2" on="1"/>
        <pt x="443" y="0" on="1"/>
        <pt x="350" y="0" on="1"/>
        <pt x="350" y="2" on="1"/>
        <pt x="358" y="34" on="0"/>
        <pt x="416" y="311" on="0"/>
      </contour>
    </TTGlyph>
    <TTGlyph name="hyphen" xMin="51" yMin="186" xMax="332" yMax="259">
      <contour>
        <pt x="66" y="257" on="1"/>
        <pt x="66" y="259" on="1"/>
        <pt x="332" y="259" on="1"/>
        <pt x="332" y="257" on="1"/>
        <pt x="324" y="220" on="1"/>
        <pt x="317" y="186" on="1"/>
        <pt x="184" y="186" on="1"/>
        <pt x="51" y="186" on="0"/>
        <pt x="51" y="188" on="0"/>
        <pt x="65" y="253" on="0"/>
      </contour>
    </TTGlyph>
    <TTGlyph name="i" xMin="74" yMin="0" xMax="315" yMax="680">
      <contour>
        <pt x="189" y="578" on="1"/>
        <pt x="190" y="578" on="0"/>
        <pt x="210" y="678" on="0"/>
        <pt x="211" y="678" on="1"/>
        <pt x="211" y="680" on="1"/>
        <pt x="315" y="680" on="1"/>
        <pt x="315" y="678" on="1"/>
        <pt x="314" y="678" on="0"/>
        <pt x="294" y="578" on="0"/>
        <pt x="293" y="578" on="1"/>
        <pt x="293" y="576" on="1"/>
        <pt x="189" y="576" on="1"/>
      </contour>
      <contour>
        <pt x="168" y="442" on="0"/>
        <pt x="168" y="444" on="0"/>
        <pt x="258" y="444" on="0"/>
        <pt x="258" y="442" on="0"/>
        <pt x="165" y="7" on="0"/>
        <pt x="164" y="2" on="1"/>
        <pt x="164" y="0" on="1"/>
        <pt x="74" y="0" on="1"/>
        <pt x="74" y="2" on="1"/>
        <pt x="75" y="7" on="0"/>
      </contour>
    </TTGlyph>
    <TTGlyph name="j" xMin="-96" yMin="-204" xMax="336" yMax="680">
      <contour>
        <pt x="222" y="629" on="1"/>
        <pt x="233" y="680" on="1"/>
        <pt x="284" y="680" on="1"/>
        <pt x="336" y="680" on="0"/>
        <pt x="336" y="679" on="1"/>
        <pt x="331" y="655" on="0"/>
        <pt x="325" y="627" on="1"/>
        <pt x="315" y="576" on="1"/>
        <pt x="263" y="576" on="1"/>
        <pt x="211" y="576" on="0"/>
        <pt x="211" y="577" on="1"/>
        <pt x="216" y="601" on="0"/>
      </contour>
      <contour>
        <pt x="196" y="443" on="1"/>
        <pt x="196" y="444" on="0"/>
        <pt x="286" y="444" on="0"/>
        <pt x="286" y="443" on="1"/>
        <pt x="286" y="441" on="0"/>
        <pt x="177" y="-70" on="0"/>
        <pt x="175" y="-75" on="1"/>
        <pt x="162" y="-123" on="0"/>
        <pt x="91" y="-193" on="0"/>
        <pt x="46" y="-203" on="1"/>
        <pt x="40" y="-204" on="0"/>
        <pt x="19" y="-204" on="1"/>
        <pt x="-30" y="-204" on="0"/>
        <pt x="-72" y="-184" on="1"/>
        <pt x="-96" y="-174" on="0"/>
        <pt x="-96" y="-170" on="1"/>
        <pt x="-96" y="-168" on="0"/>
        <pt x="-78" y="-132" on="1"/>
        <pt x="-61" y="-95" on="1"/>
        <pt x="-54" y="-103" on="1"/>
        <pt x="-32" y="-126" on="0"/>
        <pt x="3" y="-126" on="1"/>
        <pt x="23" y="-126" on="0"/>
        <pt x="50" y="-116" on="1"/>
        <pt x="76" y="-101" on="0"/>
        <pt x="83" y="-85" on="1"/>
        <pt x="84" y="-79" on="0"/>
        <pt x="196" y="440" on="0"/>
      </contour>
    </TTGlyph>
    <TTGlyph name="k" xMin="76" yMin="0" xMax="542" yMax="694">
      <contour>
        <pt x="372" y="0" on="1"/>
        <pt x="273" y="210" on="1"/>
        <pt x="271" y="210" on="0"/>
        <pt x="231" y="174" on="1"/>
        <pt x="190" y="139" on="1"/>
        <pt x="175" y="70" on="1"/>
        <pt x="160" y="0" on="1"/>
        <pt x="118" y="0" on="1"/>
        <pt x="76" y="0" on="0"/>
        <pt x="76" y="1" on="1"/>
        <pt x="86" y="46" on="1"/>
        <pt x="95" y="90" on="0"/>
        <pt x="133" y="265" on="0"/>
        <pt x="150" y="348" on="1"/>
        <pt x="224" y="694" on="1"/>
        <pt x="310" y="694" on="1"/>
        <pt x="310" y="691" on="1"/>
        <pt x="218" y="259" on="0"/>
        <pt x="218" y="258" on="1"/>
        <pt x="232" y="270" on="1"/>
        <pt x="245" y="281" on="0"/>
        <pt x="303" y="331" on="0"/>
        <pt x="327" y="351" on="1"/>
        <pt x="435" y="444" on="1"/>
        <pt x="489" y="444" on="1"/>
        <pt x="542" y="443" on="1"/>
        <pt x="542" y="442" on="0"/>
        <pt x="443" y="357" on="1"/>
        <pt x="344" y="272" on="1"/>
        <pt x="372" y="211" on="0"/>
        <pt x="407" y="136" on="1"/>
        <pt x="471" y="1" on="1"/>
        <pt x="422" y="0" on="1"/>
      </contour>
    </TTGlyph>
    <TTGlyph name="l" xMin="74" yMin="0" xMax="311" yMax="694">
      <contour>
        <pt x="148" y="348" on="1"/>
        <pt x="222" y="694" on="1"/>
        <pt x="311" y="694" on="1"/>
        <pt x="311" y="691" on="1"/>
        <pt x="311" y="690" on="0"/>
        <pt x="165" y="5" on="0"/>
        <pt x="164" y="2" on="1"/>
        <pt x="164" y="0" on="1"/>
        <pt x="119" y="0" on="1"/>
        <pt x="74" y="0" on="0"/>
        <pt x="74" y="1" on="1"/>
        <pt x="84" y="46" on="1"/>
        <pt x="93" y="90" on="0"/>
        <pt x="131" y="265" on="0"/>
      </contour>
    </TTGlyph>
    <TTGlyph name="m" xMin="73" yMin="0" xMax="790" yMax="455">
      <contour>
        <pt x="73" y="2" on="1"/>
        <pt x="169" y="449" on="1"/>
        <pt x="169" y="450" on="0"/>
        <pt x="213" y="450" on="1"/>
        <pt x="256" y="450" on="1"/>
        <pt x="249" y="421" on="1"/>
        <pt x="248" y="417" on="0"/>
        <pt x="246" y="407" on="0"/>
        <pt x="245" y="401" on="0"/>
        <pt x="244" y="394" on="0"/>
        <pt x="244" y="393" on="0"/>
        <pt x="244" y="392" on="1"/>
        <pt x="247" y="395" on="0"/>
        <pt x="251" y="398" on="1"/>
        <pt x="276" y="421" on="0"/>
        <pt x="355" y="454" on="0"/>
        <pt x="392" y="454" on="1"/>
        <pt x="449" y="454" on="0"/>
        <pt x="472" y="439" on="1"/>
        <pt x="501" y="423" on="0"/>
        <pt x="509" y="391" on="1"/>
        <pt x="509" y="390" on="0"/>
        <pt x="510" y="387" on="1"/>
        <pt x="510" y="385" on="0"/>
        <pt x="511" y="384" on="1"/>
        <pt x="511" y="384" on="0"/>
        <pt x="517" y="388" on="1"/>
        <pt x="563" y="431" on="0"/>
        <pt x="620" y="446" on="1"/>
        <pt x="648" y="455" on="0"/>
        <pt x="680" y="455" on="1"/>
        <pt x="790" y="455" on="0"/>
        <pt x="790" y="358" on="1"/>
        <pt x="790" y="334" on="0"/>
        <pt x="785" y="309" on="1"/>
        <pt x="784" y="304" on="0"/>
        <pt x="721" y="7" on="0"/>
        <pt x="720" y="2" on="1"/>
        <pt x="720" y="0" on="1"/>
        <pt x="627" y="0" on="1"/>
        <pt x="627" y="2" on="1"/>
        <pt x="635" y="34" on="0"/>
        <pt x="693" y="311" on="0"/>
        <pt x="693" y="321" on="1"/>
        <pt x="693" y="379" on="0"/>
        <pt x="613" y="379" on="1"/>
        <pt x="603" y="379" on="0"/>
        <pt x="593" y="377" on="1"/>
        <pt x="546" y="364" on="0"/>
        <pt x="514" y="302" on="1"/>
        <pt x="501" y="273" on="0"/>
        <pt x="471" y="132" on="1"/>
        <pt x="443" y="2" on="1"/>
        <pt x="443" y="0" on="1"/>
        <pt x="350" y="0" on="1"/>
        <pt x="350" y="2" on="1"/>
        <pt x="358" y="34" on="0"/>
        <pt x="416" y="311" on="0"/>
        <pt x="416" y="321" on="1"/>
        <pt x="416" y="379" on="0"/>
        <pt x="336" y="379" on="1"/>
        <pt x="326" y="379" on="0"/>
        <pt x="316" y="377" on="1"/>
        <pt x="269" y="364" on="0"/>
        <pt x="237" y="302" on="1"/>
        <pt x="224" y="273" on="0"/>
        <pt x="194" y="132" on="1"/>
        <pt x="166" y="2" on="1"/>
        <pt x="166" y="0" on="1"/>
        <pt x="119" y="0" on="1"/>
        <pt x="73" y="0" on="0"/>
      </contour>
    </TTGlyph>
    <TTGlyph name="n" xMin="73" yMin="0" xMax="513" yMax="454">
      <contour>
        <pt x="73" y="2" on="1"/>
        <pt x="169" y="449" on="1"/>
        <pt x="169" y="450" on="0"/>
        <pt x="213" y="450" on="1"/>
        <pt x="256" y="450" on="1"/>
        <pt x="249" y="421" on="1"/>
        <pt x="248" y="417" on="0"/>
        <pt x="246" y="407" on="0"/>
        <pt x="245" y="401" on="0"/>
        <pt x="244" y="394" on="0"/>
        <pt x="244" y="393" on="0"/>
        <pt x="244" y="392" on="1"/>
        <pt x="247" y="395" on="0"/>
        <pt x="251" y="398" on="1"/>
        <pt x="276" y="421" on="0"/>
        <pt x="355" y="454" on="0"/>
        <pt x="392" y="454" on="1"/>
        <pt x="452" y="454" on="0"/>
        <pt x="513" y="410" on="0"/>
        <pt x="513" y="358" on="1"/>
        <pt x="513" y="334" on="0"/>
        <pt x="508" y="309" on="1"/>
        <pt x="507" y="304" on="0"/>
        <pt x="444" y="7" on="0"/>
        <pt x="443" y="2" on="1"/>
        <pt x="443" y="0" on="1"/>
        <pt x="350" y="0" on="1"/>
        <pt x="350" y="2" on="1"/>
        <pt x="358" y="34" on="0"/>
        <pt x="416" y="311" on="0"/>
        <pt x="416" y="321" on="1"/>
        <pt x="416" y="379" on="0"/>
        <pt x="336" y="379" on="1"/>
        <pt x="326" y="379" on="0"/>
        <pt x="316" y="377" on="1"/>
        <pt x="269" y="364" on="0"/>
        <pt x="237" y="302" on="1"/>
        <pt x="224" y="273" on="0"/>
        <pt x="194" y="132" on="1"/>
        <pt x="166" y="2" on="1"/>
        <pt x="166" y="0" on="1"/>
        <pt x="119" y="0" on="1"/>
        <pt x="73" y="0" on="0"/>
      </contour>
    </TTGlyph>
    <TTGlyph name="nine" xMin="77" yMin="-22" xMax="545" yMax="677">
      <contour>
        <pt x="375" y="677" on="1"/>
        <pt x="389" y="677" on="1"/>
        <pt x="545" y="677" on="0"/>
        <pt x="545" y="479" on="1"/>
        <pt x="545" y="413" on="0"/>
        <pt x="526" y="327" on="1"/>
        <pt x="491" y="168" on="0"/>
        <pt x="386" y="65" on="1"/>
        <pt x="296" y="-22" on="0"/>
        <pt x="202" y="-22" on="1"/>
        <pt x="124" y="-22" on="0"/>
        <pt x="77" y="25" on="1"/>
        <pt x="94" y="47" on="0"/>
        <pt x="130" y="91" on="1"/>
        <pt x="137" y="83" on="1"/>
        <pt x="169" y="54" on="0"/>
        <pt x="218" y="54" on="1"/>
        <pt x="253" y="54" on="0"/>
        <pt x="325" y="99" on="0"/>
        <pt x="347" y="129" on="1"/>
        <pt x="382" y="173" on="0"/>
        <pt x="407" y="243" on="1"/>
        <pt x="408" y="246" on="0"/>
        <pt x="410" y="252" on="0"/>
        <pt x="410" y="254" on="1"/>
        <pt x="411" y="256" on="1"/>
        <pt x="406" y="253" on="0"/>
        <pt x="401" y="249" on="1"/>
        <pt x="324" y="187" on="0"/>
        <pt x="236" y="187" on="1"/>
        <pt x="195" y="187" on="0"/>
        <pt x="173" y="209" on="1"/>
        <pt x="151" y="228" on="0"/>
        <pt x="124" y="306" on="0"/>
        <pt x="124" y="352" on="1"/>
        <pt x="124" y="392" on="0"/>
        <pt x="135" y="435" on="1"/>
        <pt x="154" y="527" on="0"/>
        <pt x="220" y="594" on="1"/>
        <pt x="296" y="668" on="0"/>
      </contour>
      <contour>
        <pt x="455" y="497" on="1"/>
        <pt x="455" y="605" on="0"/>
        <pt x="383" y="605" on="1"/>
        <pt x="343" y="605" on="0"/>
        <pt x="312" y="582" on="1"/>
        <pt x="269" y="550" on="0"/>
        <pt x="246" y="492" on="1"/>
        <pt x="220" y="411" on="0"/>
        <pt x="220" y="360" on="1"/>
        <pt x="220" y="322" on="0"/>
        <pt x="251" y="271" on="0"/>
        <pt x="279" y="264" on="1"/>
        <pt x="280" y="264" on="0"/>
        <pt x="294" y="263" on="0"/>
        <pt x="299" y="263" on="1"/>
        <pt x="328" y="263" on="0"/>
        <pt x="365" y="281" on="0"/>
        <pt x="387" y="302" on="1"/>
        <pt x="455" y="375" on="0"/>
      </contour>
    </TTGlyph>
    <TTGlyph name="numbersign" xMin="87" yMin="-194" xMax="851" yMax="694">
      <contour>
        <pt x="793" y="170" on="1"/>
        <pt x="809" y="161" on="0"/>
        <pt x="809" y="150" on="1"/>
        <pt x="809" y="141" on="0"/>
        <pt x="793" y="130" on="1"/>
        <pt x="547" y="130" on="1"/>
        <pt x="472" y="-27" on="1"/>
        <pt x="397" y="-184" on="0"/>
        <pt x="394" y="-187" on="1"/>
        <pt x="389" y="-194" on="0"/>
        <pt x="379" y="-194" on="1"/>
        <pt x="366" y="-194" on="0"/>
        <pt x="362" y="-183" on="1"/>
        <pt x="359" y="-179" on="0"/>
        <pt x="359" y="-173" on="1"/>
        <pt x="360" y="-167" on="0"/>
        <pt x="432" y="-16" on="0"/>
        <pt x="468" y="56" on="1"/>
        <pt x="503" y="129" on="1"/>
        <pt x="503" y="130" on="0"/>
        <pt x="410" y="130" on="1"/>
        <pt x="317" y="130" on="1"/>
        <pt x="242" y="-27" on="1"/>
        <pt x="167" y="-184" on="0"/>
        <pt x="164" y="-187" on="1"/>
        <pt x="159" y="-194" on="0"/>
        <pt x="149" y="-194" on="1"/>
        <pt x="136" y="-194" on="0"/>
        <pt x="132" y="-183" on="1"/>
        <pt x="129" y="-179" on="0"/>
        <pt x="129" y="-173" on="1"/>
        <pt x="130" y="-168" on="0"/>
        <pt x="201" y="-19" on="1"/>
        <pt x="273" y="130" on="1"/>
        <pt x="187" y="130" on="1"/>
        <pt x="100" y="131" on="1"/>
        <pt x="87" y="140" on="0"/>
        <pt x="87" y="150" on="1"/>
        <pt x="87" y="163" on="0"/>
        <pt x="102" y="170" on="1"/>
        <pt x="294" y="170" on="1"/>
        <pt x="331" y="248" on="1"/>
        <pt x="339" y="265" on="0"/>
        <pt x="360" y="308" on="0"/>
        <pt x="365" y="318" on="1"/>
        <pt x="370" y="328" on="1"/>
        <pt x="370" y="330" on="0"/>
        <pt x="258" y="330" on="1"/>
        <pt x="145" y="330" on="0"/>
        <pt x="142" y="332" on="1"/>
        <pt x="130" y="338" on="0"/>
        <pt x="130" y="351" on="1"/>
        <pt x="130" y="362" on="0"/>
        <pt x="140" y="368" on="1"/>
        <pt x="146" y="370" on="0"/>
        <pt x="267" y="370" on="1"/>
        <pt x="391" y="371" on="1"/>
        <pt x="467" y="527" on="1"/>
        <pt x="542" y="684" on="0"/>
        <pt x="544" y="686" on="1"/>
        <pt x="544" y="689" on="0"/>
        <pt x="556" y="694" on="0"/>
        <pt x="560" y="694" on="1"/>
        <pt x="580" y="688" on="0"/>
        <pt x="579" y="672" on="1"/>
        <pt x="577" y="665" on="0"/>
        <pt x="437" y="374" on="0"/>
        <pt x="436" y="373" on="1"/>
        <pt x="435" y="370" on="1"/>
        <pt x="528" y="370" on="1"/>
        <pt x="621" y="371" on="1"/>
        <pt x="692" y="518" on="1"/>
        <pt x="767" y="675" on="0"/>
        <pt x="769" y="677" on="1"/>
        <pt x="776" y="694" on="0"/>
        <pt x="789" y="694" on="1"/>
        <pt x="798" y="694" on="0"/>
        <pt x="810" y="681" on="0"/>
        <pt x="809" y="672" on="1"/>
        <pt x="806" y="664" on="0"/>
        <pt x="737" y="519" on="1"/>
        <pt x="665" y="371" on="1"/>
        <pt x="751" y="370" on="1"/>
        <pt x="835" y="370" on="0"/>
        <pt x="841" y="368" on="1"/>
        <pt x="851" y="362" on="0"/>
        <pt x="851" y="350" on="1"/>
        <pt x="851" y="341" on="0"/>
        <pt x="846" y="336" on="1"/>
        <pt x="842" y="332" on="0"/>
        <pt x="824" y="331" on="0"/>
        <pt x="741" y="330" on="1"/>
        <pt x="645" y="330" on="1"/>
        <pt x="606" y="250" on="1"/>
        <pt x="568" y="170" on="1"/>
      </contour>
      <contour>
        <pt x="415" y="330" on="1"/>
        <pt x="414" y="328" on="0"/>
        <pt x="376" y="250" on="0"/>
        <pt x="338" y="172" on="0"/>
        <pt x="338" y="170" on="0"/>
        <pt x="431" y="170" on="1"/>
        <pt x="524" y="170" on="1"/>
        <pt x="561" y="248" on="1"/>
        <pt x="569" y="265" on="0"/>
        <pt x="590" y="308" on="0"/>
        <pt x="595" y="318" on="1"/>
        <pt x="600" y="328" on="1"/>
        <pt x="600" y="330" on="0"/>
        <pt x="508" y="330" on="1"/>
      </contour>
    </TTGlyph>
    <TTGlyph name="o" xMin="69" yMin="-11" xMax="523" yMax="461">
      <contour>
        <pt x="247" y="-11" on="1"/>
        <pt x="169" y="-11" on="0"/>
        <pt x="69" y="90" on="0"/>
        <pt x="69" y="169" on="1"/>
        <pt x="69" y="190" on="0"/>
        <pt x="74" y="218" on="1"/>
        <pt x="96" y="312" on="0"/>
        <pt x="237" y="449" on="0"/>
        <pt x="322" y="459" on="1"/>
        <pt x="340" y="461" on="0"/>
        <pt x="348" y="461" on="1"/>
        <pt x="363" y="461" on="0"/>
        <pt x="387" y="457" on="1"/>
        <pt x="450" y="443" on="0"/>
        <pt x="523" y="346" on="0"/>
        <pt x="523" y="271" on="1"/>
        <pt x="523" y="161" on="0"/>
        <pt x="352" y="-11" on="0"/>
      </contour>
      <contour>
        <pt x="432" y="279" on="1"/>
        <pt x="432" y="328" on="0"/>
        <pt x="380" y="385" on="0"/>
        <pt x="333" y="385" on="1"/>
        <pt x="305" y="385" on="0"/>
        <pt x="280" y="375" on="1"/>
        <pt x="198" y="343" on="0"/>
        <pt x="174" y="245" on="1"/>
        <pt x="164" y="211" on="0"/>
        <pt x="164" y="178" on="1"/>
        <pt x="164" y="127" on="0"/>
        <pt x="218" y="68" on="0"/>
        <pt x="265" y="68" on="1"/>
        <pt x="307" y="68" on="0"/>
        <pt x="344" y="94" on="1"/>
        <pt x="365" y="106" on="0"/>
        <pt x="385" y="133" on="1"/>
        <pt x="432" y="198" on="0"/>
      </contour>
    </TTGlyph>
    <TTGlyph name="one" xMin="88" yMin="0" xMax="451" yMax="678">
      <contour>
        <pt x="332" y="560" on="1"/>
        <pt x="275" y="541" on="0"/>
        <pt x="198" y="539" on="1"/>
        <pt x="198" y="540" on="0"/>
        <pt x="198" y="542" on="0"/>
        <pt x="200" y="551" on="0"/>
        <pt x="201" y="558" on="0"/>
        <pt x="204" y="571" on="0"/>
        <pt x="205" y="576" on="1"/>
        <pt x="213" y="612" on="1"/>
        <pt x="219" y="612" on="1"/>
        <pt x="221" y="612" on="0"/>
        <pt x="231" y="613" on="0"/>
        <pt x="234" y="613" on="1"/>
        <pt x="256" y="613" on="0"/>
        <pt x="290" y="619" on="1"/>
        <pt x="369" y="631" on="0"/>
        <pt x="428" y="678" on="1"/>
        <pt x="439" y="678" on="1"/>
        <pt x="451" y="678" on="0"/>
        <pt x="451" y="676" on="1"/>
        <pt x="450" y="671" on="0"/>
        <pt x="323" y="75" on="0"/>
        <pt x="323" y="73" on="0"/>
        <pt x="384" y="73" on="1"/>
        <pt x="445" y="73" on="1"/>
        <pt x="430" y="0" on="1"/>
        <pt x="259" y="0" on="1"/>
        <pt x="88" y="1" on="1"/>
        <pt x="90" y="13" on="0"/>
        <pt x="101" y="61" on="0"/>
        <pt x="104" y="73" on="1"/>
        <pt x="229" y="73" on="1"/>
        <pt x="280" y="316" on="1"/>
      </contour>
    </TTGlyph>
    <TTGlyph name="p" xMin="34" yMin="-194" xMax="538" yMax="455">
      <contour>
        <pt x="34" y="-191" on="1"/>
        <pt x="35" y="-190" on="0"/>
        <pt x="169" y="442" on="0"/>
        <pt x="169" y="444" on="0"/>
        <pt x="259" y="444" on="0"/>
        <pt x="259" y="443" on="1"/>
        <pt x="251" y="405" on="0"/>
        <pt x="251" y="404" on="1"/>
        <pt x="255" y="406" on="0"/>
        <pt x="260" y="409" on="1"/>
        <pt x="343" y="455" on="0"/>
        <pt x="434" y="455" on="1"/>
        <pt x="447" y="455" on="0"/>
        <pt x="457" y="453" on="1"/>
        <pt x="494" y="445" on="0"/>
        <pt x="538" y="364" on="0"/>
        <pt x="538" y="303" on="1"/>
        <pt x="538" y="211" on="0"/>
        <pt x="501" y="140" on="1"/>
        <pt x="454" y="45" on="0"/>
        <pt x="374" y="7" on="1"/>
        <pt x="339" y="-11" on="0"/>
        <pt x="302" y="-11" on="1"/>
        <pt x="226" y="-11" on="0"/>
        <pt x="176" y="39" on="1"/>
        <pt x="176" y="36" on="1"/>
        <pt x="127" y="-193" on="1"/>
        <pt x="127" y="-194" on="0"/>
        <pt x="80" y="-194" on="1"/>
        <pt x="34" y="-194" on="1"/>
      </contour>
      <contour>
        <pt x="370" y="373" on="1"/>
        <pt x="356" y="375" on="0"/>
        <pt x="339" y="375" on="1"/>
        <pt x="315" y="375" on="0"/>
        <pt x="295" y="366" on="1"/>
        <pt x="270" y="357" on="0"/>
        <pt x="238" y="331" on="1"/>
        <pt x="217" y="223" on="0"/>
        <pt x="193" y="118" on="1"/>
        <pt x="196" y="112" on="1"/>
        <pt x="217" y="65" on="0"/>
        <pt x="269" y="65" on="1"/>
        <pt x="335" y="65" on="0"/>
        <pt x="441" y="184" on="0"/>
        <pt x="441" y="262" on="1"/>
        <pt x="441" y="304" on="0"/>
        <pt x="403" y="365" on="0"/>
      </contour>
    </TTGlyph>
    <TTGlyph name="parenleft" xMin="104" yMin="-250" xMax="491" yMax="750">
      <contour>
        <pt x="405" y="740" on="1"/>
        <pt x="417" y="750" on="1"/>
        <pt x="454" y="750" on="1"/>
        <pt x="491" y="750" on="0"/>
        <pt x="491" y="748" on="0"/>
        <pt x="476" y="735" on="1"/>
        <pt x="372" y="645" on="0"/>
        <pt x="235" y="363" on="0"/>
        <pt x="208" y="188" on="1"/>
        <pt x="195" y="110" on="0"/>
        <pt x="195" y="37" on="1"/>
        <pt x="195" y="-138" on="0"/>
        <pt x="277" y="-245" on="1"/>
        <pt x="280" y="-250" on="1"/>
        <pt x="204" y="-250" on="1"/>
        <pt x="194" y="-238" on="1"/>
        <pt x="104" y="-122" on="0"/>
        <pt x="104" y="55" on="1"/>
        <pt x="104" y="159" on="0"/>
        <pt x="135" y="288" on="1"/>
        <pt x="187" y="499" on="0"/>
        <pt x="305" y="642" on="1"/>
        <pt x="352" y="699" on="0"/>
      </contour>
    </TTGlyph>
    <TTGlyph name="parenright" xMin="2" yMin="-250" xMax="390" yMax="750">
      <contour>
        <pt x="300" y="463" on="1"/>
        <pt x="300" y="634" on="0"/>
        <pt x="222" y="740" on="1"/>
        <pt x="214" y="750" on="1"/>
        <pt x="290" y="750" on="1"/>
        <pt x="299" y="740" on="1"/>
        <pt x="301" y="737" on="0"/>
        <pt x="311" y="724" on="0"/>
        <pt x="313" y="721" on="1"/>
        <pt x="390" y="613" on="0"/>
        <pt x="390" y="444" on="1"/>
        <pt x="390" y="325" on="0"/>
        <pt x="353" y="186" on="1"/>
        <pt x="303" y="4" on="0"/>
        <pt x="203" y="-125" on="1"/>
        <pt x="179" y="-155" on="0"/>
        <pt x="145" y="-191" on="1"/>
        <pt x="111" y="-224" on="0"/>
        <pt x="89" y="-241" on="1"/>
        <pt x="78" y="-250" on="1"/>
        <pt x="2" y="-250" on="1"/>
        <pt x="6" y="-246" on="1"/>
        <pt x="210" y="-72" on="0"/>
        <pt x="278" y="266" on="1"/>
        <pt x="300" y="372" on="0"/>
      </contour>
    </TTGlyph>
    <TTGlyph name="percent" xMin="165" yMin="-56" xMax="815" yMax="750">
      <contour>
        <pt x="279" y="723" on="1"/>
        <pt x="317" y="749" on="0"/>
        <pt x="349" y="749" on="1"/>
        <pt x="382" y="749" on="0"/>
        <pt x="407" y="733" on="1"/>
        <pt x="456" y="694" on="0"/>
        <pt x="456" y="614" on="1"/>
        <pt x="456" y="517" on="0"/>
        <pt x="405" y="440" on="1"/>
        <pt x="352" y="360" on="0"/>
        <pt x="286" y="349" on="1"/>
        <pt x="274" y="347" on="0"/>
        <pt x="268" y="347" on="1"/>
        <pt x="235" y="347" on="0"/>
        <pt x="207" y="373" on="1"/>
        <pt x="165" y="412" on="0"/>
        <pt x="165" y="488" on="1"/>
        <pt x="165" y="517" on="0"/>
        <pt x="173" y="552" on="1"/>
        <pt x="197" y="664" on="0"/>
      </contour>
      <contour>
        <pt x="372" y="604" on="1"/>
        <pt x="372" y="674" on="0"/>
        <pt x="339" y="674" on="1"/>
        <pt x="315" y="674" on="0"/>
        <pt x="295" y="643" on="1"/>
        <pt x="277" y="616" on="0"/>
        <pt x="263" y="553" on="1"/>
        <pt x="253" y="506" on="0"/>
        <pt x="253" y="482" on="1"/>
        <pt x="253" y="452" on="0"/>
        <pt x="266" y="424" on="0"/>
        <pt x="286" y="424" on="1"/>
        <pt x="300" y="424" on="0"/>
        <pt x="314" y="437" on="1"/>
        <pt x="338" y="462" on="0"/>
        <pt x="372" y="555" on="0"/>
      </contour>
      <contour>
        <pt x="785" y="747" on="1"/>
        <pt x="790" y="750" on="0"/>
        <pt x="796" y="750" on="1"/>
        <pt x="814" y="748" on="0"/>
        <pt x="814" y="730" on="1"/>
        <pt x="814" y="725" on="0"/>
        <pt x="811" y="719" on="1"/>
        <pt x="809" y="717" on="0"/>
        <pt x="206" y="-47" on="0"/>
        <pt x="204" y="-49" on="1"/>
        <pt x="198" y="-56" on="0"/>
        <pt x="189" y="-56" on="1"/>
        <pt x="174" y="-56" on="0"/>
        <pt x="169" y="-41" on="1"/>
        <pt x="169" y="-40" on="0"/>
        <pt x="167" y="-38" on="0"/>
        <pt x="167" y="-37" on="1"/>
        <pt x="167" y="-30" on="0"/>
        <pt x="347" y="198" on="1"/>
        <pt x="425" y="296" on="0"/>
        <pt x="475" y="360" on="1"/>
        <pt x="780" y="745" on="0"/>
      </contour>
      <contour>
        <pt x="644" y="324" on="1"/>
        <pt x="677" y="347" on="0"/>
        <pt x="713" y="347" on="1"/>
        <pt x="760" y="347" on="0"/>
        <pt x="789" y="303" on="1"/>
        <pt x="815" y="263" on="0"/>
        <pt x="815" y="207" on="1"/>
        <pt x="815" y="177" on="0"/>
        <pt x="805" y="135" on="1"/>
        <pt x="785" y="50" on="0"/>
        <pt x="728" y="-6" on="1"/>
        <pt x="693" y="-41" on="0"/>
        <pt x="653" y="-53" on="1"/>
        <pt x="645" y="-55" on="0"/>
        <pt x="629" y="-55" on="1"/>
        <pt x="606" y="-55" on="0"/>
        <pt x="592" y="-48" on="1"/>
        <pt x="560" y="-35" on="0"/>
        <pt x="523" y="39" on="0"/>
        <pt x="523" y="87" on="1"/>
        <pt x="523" y="111" on="0"/>
        <pt x="529" y="141" on="1"/>
        <pt x="540" y="198" on="0"/>
        <pt x="601" y="298" on="0"/>
      </contour>
      <contour>
        <pt x="729" y="200" on="1"/>
        <pt x="729" y="271" on="0"/>
        <pt x="696" y="271" on="1"/>
        <pt x="690" y="271" on="0"/>
        <pt x="688" y="270" on="1"/>
        <pt x="656" y="261" on="0"/>
        <pt x="611" y="136" on="0"/>
        <pt x="611" y="76" on="1"/>
        <pt x="611" y="21" on="0"/>
        <pt x="644" y="21" on="1"/>
        <pt x="647" y="21" on="1"/>
        <pt x="658" y="21" on="0"/>
        <pt x="672" y="35" on="1"/>
        <pt x="696" y="59" on="0"/>
        <pt x="729" y="151" on="0"/>
      </contour>
    </TTGlyph>
    <TTGlyph name="period" xMin="90" yMin="0" xMax="209" yMax="98">
      <contour>
        <pt x="90" y="2" on="1"/>
        <pt x="110" y="95" on="0"/>
        <pt x="111" y="96" on="1"/>
        <pt x="111" y="98" on="0"/>
        <pt x="209" y="98" on="0"/>
        <pt x="209" y="96" on="1"/>
        <pt x="188" y="2" on="1"/>
        <pt x="188" y="0" on="1"/>
        <pt x="90" y="0" on="1"/>
      </contour>
    </TTGlyph>
    <TTGlyph name="plus" xMin="108" yMin="-83" xMax="775" yMax="583">
      <contour>
        <pt x="775" y="262" on="0"/>
        <pt x="775" y="238" on="0"/>
        <pt x="760" y="230" on="1"/>
        <pt x="458" y="230" on="1"/>
        <pt x="400" y="-58" on="0"/>
        <pt x="394" y="-71" on="1"/>
        <pt x="389" y="-83" on="0"/>
        <pt x="375" y="-83" on="1"/>
        <pt x="367" y="-83" on="0"/>
        <pt x="356" y="-72" on="0"/>
        <pt x="356" y="-64" on="1"/>
        <pt x="356" y="-58" on="0"/>
        <pt x="387" y="84" on="1"/>
        <pt x="394" y="118" on="0"/>
        <pt x="409" y="192" on="0"/>
        <pt x="413" y="210" on="1"/>
        <pt x="417" y="229" on="1"/>
        <pt x="417" y="230" on="0"/>
        <pt x="271" y="230" on="1"/>
        <pt x="124" y="230" on="1"/>
        <pt x="108" y="239" on="0"/>
        <pt x="108" y="261" on="0"/>
        <pt x="124" y="270" on="1"/>
        <pt x="426" y="270" on="1"/>
        <pt x="426" y="272" on="1"/>
        <pt x="428" y="274" on="0"/>
        <pt x="457" y="419" on="1"/>
        <pt x="487" y="560" on="0"/>
        <pt x="490" y="568" on="1"/>
        <pt x="492" y="583" on="0"/>
        <pt x="508" y="583" on="1"/>
        <pt x="515" y="583" on="0"/>
        <pt x="528" y="573" on="0"/>
        <pt x="528" y="565" on="1"/>
        <pt x="528" y="553" on="0"/>
        <pt x="498" y="417" on="1"/>
        <pt x="491" y="384" on="0"/>
        <pt x="475" y="307" on="0"/>
        <pt x="471" y="288" on="1"/>
        <pt x="467" y="270" on="1"/>
        <pt x="760" y="270" on="1"/>
      </contour>
    </TTGlyph>
    <TTGlyph name="q" xMin="72" yMin="-194" xMax="538" yMax="455">
      <contour>
        <pt x="538" y="455" on="1"/>
        <pt x="536" y="449" on="0"/>
        <pt x="400" y="-192" on="0"/>
        <pt x="400" y="-194" on="0"/>
        <pt x="354" y="-194" on="1"/>
        <pt x="307" y="-194" on="0"/>
        <pt x="307" y="-193" on="1"/>
        <pt x="354" y="28" on="0"/>
        <pt x="356" y="37" on="1"/>
        <pt x="356" y="40" on="1"/>
        <pt x="354" y="40" on="0"/>
        <pt x="346" y="35" on="1"/>
        <pt x="317" y="16" on="0"/>
        <pt x="229" y="-10" on="0"/>
        <pt x="191" y="-10" on="1"/>
        <pt x="179" y="-10" on="1"/>
        <pt x="161" y="-10" on="0"/>
        <pt x="148" y="-3" on="1"/>
        <pt x="114" y="11" on="0"/>
        <pt x="72" y="93" on="0"/>
        <pt x="72" y="149" on="1"/>
        <pt x="72" y="228" on="0"/>
        <pt x="108" y="303" on="1"/>
        <pt x="133" y="353" on="0"/>
        <pt x="209" y="428" on="0"/>
        <pt x="252" y="445" on="1"/>
        <pt x="284" y="455" on="0"/>
        <pt x="304" y="455" on="1"/>
        <pt x="347" y="455" on="0"/>
        <pt x="405" y="426" on="0"/>
        <pt x="436" y="398" on="1"/>
        <pt x="438" y="411" on="0"/>
        <pt x="442" y="427" on="1"/>
        <pt x="448" y="455" on="1"/>
      </contour>
      <contour>
        <pt x="414" y="298" on="1"/>
        <pt x="403" y="376" on="0"/>
        <pt x="341" y="376" on="1"/>
        <pt x="295" y="376" on="0"/>
        <pt x="251" y="343" on="1"/>
        <pt x="169" y="280" on="0"/>
        <pt x="169" y="182" on="1"/>
        <pt x="169" y="129" on="0"/>
        <pt x="222" y="65" on="0"/>
        <pt x="265" y="65" on="1"/>
        <pt x="319" y="65" on="0"/>
        <pt x="365" y="111" on="1"/>
        <pt x="377" y="123" on="1"/>
        <pt x="392" y="191" on="0"/>
      </contour>
    </TTGlyph>
    <TTGlyph name="question" xMin="173" yMin="0" xMax="536" yMax="704">
      <contour>
        <pt x="442" y="574" on="1"/>
        <pt x="442" y="605" on="0"/>
        <pt x="404" y="629" on="0"/>
        <pt x="362" y="629" on="1"/>
        <pt x="287" y="629" on="0"/>
        <pt x="214" y="582" on="1"/>
        <pt x="206" y="576" on="0"/>
        <pt x="205" y="576" on="1"/>
        <pt x="200" y="614" on="1"/>
        <pt x="194" y="651" on="0"/>
        <pt x="194" y="653" on="0"/>
        <pt x="211" y="663" on="0"/>
        <pt x="237" y="675" on="0"/>
        <pt x="247" y="679" on="1"/>
        <pt x="307" y="704" on="0"/>
        <pt x="362" y="704" on="1"/>
        <pt x="402" y="704" on="0"/>
        <pt x="411" y="703" on="1"/>
        <pt x="536" y="688" on="0"/>
        <pt x="536" y="583" on="1"/>
        <pt x="536" y="488" on="0"/>
        <pt x="459" y="433" on="1"/>
        <pt x="417" y="401" on="0"/>
        <pt x="395" y="379" on="1"/>
        <pt x="358" y="342" on="0"/>
        <pt x="320" y="271" on="0"/>
        <pt x="307" y="216" on="1"/>
        <pt x="301" y="186" on="1"/>
        <pt x="262" y="186" on="1"/>
        <pt x="223" y="186" on="0"/>
        <pt x="223" y="187" on="1"/>
        <pt x="223" y="200" on="0"/>
        <pt x="237" y="251" on="1"/>
        <pt x="253" y="318" on="0"/>
        <pt x="294" y="377" on="1"/>
        <pt x="334" y="438" on="0"/>
        <pt x="394" y="482" on="1"/>
        <pt x="442" y="518" on="0"/>
      </contour>
      <contour>
        <pt x="173" y="2" on="1"/>
        <pt x="193" y="95" on="0"/>
        <pt x="194" y="96" on="1"/>
        <pt x="194" y="98" on="0"/>
        <pt x="292" y="98" on="0"/>
        <pt x="292" y="96" on="1"/>
        <pt x="271" y="2" on="1"/>
        <pt x="271" y="0" on="1"/>
        <pt x="173" y="0" on="1"/>
      </contour>
    </TTGlyph>
    <TTGlyph name="quotedbl" xMin="133" yMin="471" xMax="472" yMax="694">
      <contour>
        <pt x="133" y="472" on="1"/>
        <pt x="189" y="595" on="1"/>
        <pt x="189" y="596" on="0"/>
        <pt x="174" y="596" on="1"/>
        <pt x="160" y="596" on="1"/>
        <pt x="160" y="598" on="1"/>
        <pt x="160" y="601" on="0"/>
        <pt x="171" y="647" on="1"/>
        <pt x="180" y="694" on="1"/>
        <pt x="229" y="694" on="1"/>
        <pt x="278" y="694" on="0"/>
        <pt x="278" y="693" on="1"/>
        <pt x="276" y="686" on="1"/>
        <pt x="275" y="680" on="0"/>
        <pt x="270" y="655" on="0"/>
        <pt x="268" y="644" on="1"/>
        <pt x="258" y="597" on="1"/>
        <pt x="245" y="576" on="0"/>
        <pt x="194" y="492" on="0"/>
        <pt x="182" y="471" on="1"/>
        <pt x="157" y="471" on="1"/>
        <pt x="133" y="471" on="0"/>
      </contour>
      <contour>
        <pt x="327" y="472" on="1"/>
        <pt x="383" y="595" on="1"/>
        <pt x="383" y="596" on="0"/>
        <pt x="368" y="596" on="1"/>
        <pt x="354" y="596" on="1"/>
        <pt x="354" y="598" on="1"/>
        <pt x="354" y="601" on="0"/>
        <pt x="365" y="647" on="1"/>
        <pt x="374" y="694" on="1"/>
        <pt x="423" y="694" on="1"/>
        <pt x="472" y="694" on="0"/>
        <pt x="472" y="693" on="1"/>
        <pt x="470" y="686" on="1"/>
        <pt x="469" y="680" on="0"/>
        <pt x="464" y="655" on="0"/>
        <pt x="462" y="644" on="1"/>
        <pt x="452" y="597" on="1"/>
        <pt x="439" y="576" on="0"/>
        <pt x="388" y="492" on="0"/>
        <pt x="376" y="471" on="1"/>
        <pt x="351" y="471" on="1"/>
        <pt x="327" y="471" on="0"/>
      </contour>
    </TTGlyph>
    <TTGlyph name="quotedblleft" xMin="274" yMin="471" xMax="613" yMax="694">
      <contour>
        <pt x="393" y="567" on="1"/>
        <pt x="372" y="473" on="1"/>
        <pt x="372" y="471" on="0"/>
        <pt x="274" y="471" on="0"/>
        <pt x="274" y="473" on="1"/>
        <pt x="276" y="480" on="1"/>
        <pt x="277" y="486" on="0"/>
        <pt x="283" y="512" on="0"/>
        <pt x="285" y="522" on="1"/>
        <pt x="295" y="569" on="1"/>
        <pt x="321" y="610" on="0"/>
        <pt x="371" y="694" on="1"/>
        <pt x="396" y="694" on="1"/>
        <pt x="419" y="693" on="1"/>
        <pt x="416" y="685" on="1"/>
        <pt x="412" y="677" on="0"/>
        <pt x="397" y="644" on="0"/>
        <pt x="391" y="630" on="1"/>
        <pt x="363" y="570" on="1"/>
        <pt x="378" y="569" on="1"/>
        <pt x="393" y="569" on="0"/>
      </contour>
      <contour>
        <pt x="587" y="567" on="1"/>
        <pt x="566" y="473" on="1"/>
        <pt x="566" y="471" on="0"/>
        <pt x="468" y="471" on="0"/>
        <pt x="468" y="473" on="1"/>
        <pt x="470" y="480" on="1"/>
        <pt x="471" y="486" on="0"/>
        <pt x="477" y="512" on="0"/>
        <pt x="479" y="522" on="1"/>
        <pt x="489" y="569" on="1"/>
        <pt x="515" y="610" on="0"/>
        <pt x="565" y="694" on="1"/>
        <pt x="590" y="694" on="1"/>
        <pt x="613" y="693" on="1"/>
        <pt x="610" y="685" on="1"/>
        <pt x="606" y="677" on="0"/>
        <pt x="591" y="644" on="0"/>
        <pt x="585" y="630" on="1"/>
        <pt x="557" y="570" on="1"/>
        <pt x="572" y="569" on="1"/>
        <pt x="587" y="569" on="0"/>
      </contour>
    </TTGlyph>
    <TTGlyph name="quotedblright" xMin="133" yMin="471" xMax="472" yMax="694">
      <contour>
        <pt x="133" y="472" on="1"/>
        <pt x="189" y="595" on="1"/>
        <pt x="189" y="596" on="0"/>
        <pt x="174" y="596" on="1"/>
        <pt x="160" y="596" on="1"/>
        <pt x="160" y="598" on="1"/>
        <pt x="160" y="601" on="0"/>
        <pt x="171" y="647" on="1"/>
        <pt x="180" y="694" on="1"/>
        <pt x="229" y="694" on="1"/>
        <pt x="278" y="694" on="0"/>
        <pt x="278" y="693" on="1"/>
        <pt x="276" y="686" on="1"/>
        <pt x="275" y="680" on="0"/>
        <pt x="270" y="655" on="0"/>
        <pt x="268" y="644" on="1"/>
        <pt x="258" y="597" on="1"/>
        <pt x="245" y="576" on="0"/>
        <pt x="194" y="492" on="0"/>
        <pt x="182" y="471" on="1"/>
        <pt x="157" y="471" on="1"/>
        <pt x="133" y="471" on="0"/>
      </contour>
      <contour>
        <pt x="327" y="472" on="1"/>
        <pt x="383" y="595" on="1"/>
        <pt x="383" y="596" on="0"/>
        <pt x="368" y="596" on="1"/>
        <pt x="354" y="596" on="1"/>
        <pt x="354" y="598" on="1"/>
        <pt x="354" y="601" on="0"/>
        <pt x="365" y="647" on="1"/>
        <pt x="374" y="694" on="1"/>
        <pt x="423" y="694" on="1"/>
        <pt x="472" y="694" on="0"/>
        <pt x="472" y="693" on="1"/>
        <pt x="470" y="686" on="1"/>
        <pt x="469" y="680" on="0"/>
        <pt x="464" y="655" on="0"/>
        <pt x="462" y="644" on="1"/>
        <pt x="452" y="597" on="1"/>
        <pt x="439" y="576" on="0"/>
        <pt x="388" y="492" on="0"/>
        <pt x="376" y="471" on="1"/>
        <pt x="351" y="471" on="1"/>
        <pt x="327" y="471" on="0"/>
      </contour>
    </TTGlyph>
    <TTGlyph name="quoteleft" xMin="190" yMin="471" xMax="335" yMax="694">
      <contour>
        <pt x="309" y="567" on="1"/>
        <pt x="288" y="473" on="1"/>
        <pt x="288" y="471" on="0"/>
        <pt x="190" y="471" on="0"/>
        <pt x="190" y="473" on="1"/>
        <pt x="192" y="480" on="1"/>
        <pt x="193" y="486" on="0"/>
        <pt x="199" y="512" on="0"/>
        <pt x="201" y="522" on="1"/>
        <pt x="211" y="569" on="1"/>
        <pt x="237" y="610" on="0"/>
        <pt x="287" y="694" on="1"/>
        <pt x="312" y="694" on="1"/>
        <pt x="335" y="693" on="1"/>
        <pt x="332" y="685" on="1"/>
        <pt x="328" y="677" on="0"/>
        <pt x="313" y="644" on="0"/>
        <pt x="307" y="630" on="1"/>
        <pt x="279" y="570" on="1"/>
        <pt x="294" y="569" on="1"/>
        <pt x="309" y="569" on="0"/>
      </contour>
    </TTGlyph>
    <TTGlyph name="quoteright" xMin="190" yMin="471" xMax="335" yMax="694">
      <contour>
        <pt x="190" y="472" on="1"/>
        <pt x="246" y="595" on="1"/>
        <pt x="246" y="596" on="0"/>
        <pt x="231" y="596" on="1"/>
        <pt x="217" y="596" on="1"/>
        <pt x="217" y="598" on="1"/>
        <pt x="217" y="601" on="0"/>
        <pt x="228" y="647" on="1"/>
        <pt x="237" y="694" on="1"/>
        <pt x="286" y="694" on="1"/>
        <pt x="335" y="694" on="0"/>
        <pt x="335" y="693" on="1"/>
        <pt x="334" y="686" on="1"/>
        <pt x="332" y="680" on="0"/>
        <pt x="327" y="655" on="0"/>
        <pt x="325" y="644" on="1"/>
        <pt x="315" y="597" on="1"/>
        <pt x="303" y="576" on="0"/>
        <pt x="252" y="492" on="0"/>
        <pt x="239" y="471" on="1"/>
        <pt x="214" y="471" on="1"/>
        <pt x="190" y="471" on="0"/>
      </contour>
    </TTGlyph>
    <TTGlyph name="quotesingle" xMin="190" yMin="471" xMax="335" yMax="694">
      <contour>
        <pt x="190" y="472" on="1"/>
        <pt x="246" y="595" on="1"/>
        <pt x="246" y="596" on="0"/>
        <pt x="231" y="596" on="1"/>
        <pt x="217" y="596" on="1"/>
        <pt x="217" y="598" on="1"/>
        <pt x="217" y="601" on="0"/>
        <pt x="228" y="647" on="1"/>
        <pt x="237" y="694" on="1"/>
        <pt x="286" y="694" on="1"/>
        <pt x="335" y="694" on="0"/>
        <pt x="335" y="693" on="1"/>
        <pt x="334" y="686" on="1"/>
        <pt x="332" y="680" on="0"/>
        <pt x="327" y="655" on="0"/>
        <pt x="325" y="644" on="1"/>
        <pt x="315" y="597" on="1"/>
        <pt x="303" y="576" on="0"/>
        <pt x="252" y="492" on="0"/>
        <pt x="239" y="471" on="1"/>
        <pt x="214" y="471" on="1"/>
        <pt x="190" y="471" on="0"/>
      </contour>
    </TTGlyph>
    <TTGlyph name="r" xMin="74" yMin="0" xMax="424" yMax="455">
      <contour>
        <pt x="74" y="2" on="1"/>
        <pt x="170" y="449" on="1"/>
        <pt x="170" y="450" on="0"/>
        <pt x="213" y="450" on="1"/>
        <pt x="255" y="450" on="1"/>
        <pt x="247" y="414" on="1"/>
        <pt x="246" y="409" on="0"/>
        <pt x="243" y="396" on="0"/>
        <pt x="242" y="389" on="0"/>
        <pt x="240" y="380" on="0"/>
        <pt x="240" y="378" on="0"/>
        <pt x="240" y="377" on="1"/>
        <pt x="242" y="379" on="0"/>
        <pt x="245" y="381" on="1"/>
        <pt x="247" y="384" on="0"/>
        <pt x="258" y="393" on="1"/>
        <pt x="324" y="446" on="0"/>
        <pt x="401" y="454" on="1"/>
        <pt x="403" y="454" on="0"/>
        <pt x="414" y="455" on="0"/>
        <pt x="416" y="455" on="1"/>
        <pt x="424" y="455" on="1"/>
        <pt x="421" y="442" on="1"/>
        <pt x="420" y="439" on="0"/>
        <pt x="412" y="406" on="0"/>
        <pt x="406" y="377" on="0"/>
        <pt x="406" y="373" on="1"/>
        <pt x="342" y="373" on="0"/>
        <pt x="234" y="293" on="0"/>
        <pt x="216" y="237" on="1"/>
        <pt x="213" y="231" on="0"/>
        <pt x="189" y="115" on="0"/>
        <pt x="166" y="4" on="0"/>
        <pt x="164" y="2" on="1"/>
        <pt x="164" y="0" on="1"/>
        <pt x="119" y="0" on="1"/>
        <pt x="74" y="0" on="0"/>
      </contour>
    </TTGlyph>
    <TTGlyph name="s" xMin="35" yMin="-11" xMax="436" yMax="461">
      <contour>
        <pt x="104" y="331" on="1"/>
        <pt x="118" y="393" on="0"/>
        <pt x="220" y="461" on="0"/>
        <pt x="298" y="461" on="1"/>
        <pt x="358" y="461" on="0"/>
        <pt x="409" y="441" on="1"/>
        <pt x="436" y="429" on="1"/>
        <pt x="436" y="428" on="0"/>
        <pt x="406" y="350" on="0"/>
        <pt x="405" y="350" on="1"/>
        <pt x="405" y="349" on="0"/>
        <pt x="400" y="352" on="0"/>
        <pt x="395" y="355" on="1"/>
        <pt x="342" y="386" on="0"/>
        <pt x="273" y="386" on="1"/>
        <pt x="239" y="386" on="0"/>
        <pt x="223" y="378" on="1"/>
        <pt x="189" y="360" on="0"/>
        <pt x="189" y="326" on="1"/>
        <pt x="189" y="306" on="0"/>
        <pt x="208" y="293" on="1"/>
        <pt x="220" y="286" on="0"/>
        <pt x="263" y="278" on="1"/>
        <pt x="307" y="267" on="1"/>
        <pt x="345" y="254" on="0"/>
        <pt x="391" y="198" on="0"/>
        <pt x="391" y="157" on="1"/>
        <pt x="391" y="93" on="0"/>
        <pt x="340" y="42" on="1"/>
        <pt x="287" y="-11" on="0"/>
        <pt x="193" y="-11" on="1"/>
        <pt x="152" y="-11" on="0"/>
        <pt x="67" y="11" on="0"/>
        <pt x="43" y="29" on="1"/>
        <pt x="35" y="33" on="1"/>
        <pt x="37" y="39" on="0"/>
        <pt x="66" y="112" on="0"/>
        <pt x="67" y="116" on="1"/>
        <pt x="76" y="109" on="1"/>
        <pt x="134" y="67" on="0"/>
        <pt x="211" y="67" on="1"/>
        <pt x="274" y="67" on="0"/>
        <pt x="295" y="110" on="1"/>
        <pt x="301" y="121" on="0"/>
        <pt x="301" y="135" on="1"/>
        <pt x="301" y="160" on="0"/>
        <pt x="273" y="174" on="1"/>
        <pt x="264" y="179" on="0"/>
        <pt x="223" y="187" on="1"/>
        <pt x="185" y="195" on="0"/>
        <pt x="180" y="197" on="1"/>
        <pt x="129" y="216" on="0"/>
        <pt x="110" y="256" on="1"/>
        <pt x="99" y="278" on="0"/>
        <pt x="99" y="299" on="1"/>
        <pt x="99" y="311" on="0"/>
      </contour>
    </TTGlyph>
    <TTGlyph name="semicolon" xMin="63" yMin="-125" xMax="282" yMax="444">
      <contour>
        <pt x="174" y="396" on="1"/>
        <pt x="184" y="444" on="1"/>
        <pt x="233" y="444" on="1"/>
        <pt x="282" y="444" on="0"/>
        <pt x="282" y="443" on="1"/>
        <pt x="277" y="421" on="0"/>
        <pt x="272" y="394" on="1"/>
        <pt x="262" y="346" on="1"/>
        <pt x="213" y="346" on="1"/>
        <pt x="164" y="346" on="0"/>
        <pt x="164" y="347" on="1"/>
        <pt x="169" y="369" on="0"/>
      </contour>
      <contour>
        <pt x="90" y="2" on="1"/>
        <pt x="110" y="95" on="0"/>
        <pt x="111" y="96" on="1"/>
        <pt x="111" y="98" on="0"/>
        <pt x="209" y="98" on="0"/>
        <pt x="209" y="96" on="1"/>
        <pt x="188" y="2" on="1"/>
        <pt x="188" y="0" on="0"/>
        <pt x="149" y="-63" on="1"/>
        <pt x="112" y="-125" on="1"/>
        <pt x="63" y="-125" on="1"/>
        <pt x="76" y="-97" on="0"/>
        <pt x="91" y="-62" on="1"/>
        <pt x="120" y="0" on="1"/>
        <pt x="105" y="0" on="1"/>
        <pt x="90" y="0" on="0"/>
      </contour>
    </TTGlyph>
    <TTGlyph name="seven" xMin="143" yMin="-11" xMax="596" yMax="656">
      <contour>
        <pt x="173" y="614" on="1"/>
        <pt x="181" y="656" on="1"/>
        <pt x="389" y="656" on="1"/>
        <pt x="596" y="656" on="0"/>
        <pt x="596" y="655" on="1"/>
        <pt x="595" y="650" on="1"/>
        <pt x="594" y="645" on="0"/>
        <pt x="590" y="625" on="0"/>
        <pt x="588" y="616" on="1"/>
        <pt x="580" y="578" on="1"/>
        <pt x="554" y="551" on="1"/>
        <pt x="420" y="415" on="0"/>
        <pt x="337" y="254" on="1"/>
        <pt x="273" y="127" on="0"/>
        <pt x="245" y="4" on="1"/>
        <pt x="242" y="-11" on="1"/>
        <pt x="192" y="-11" on="1"/>
        <pt x="143" y="-11" on="0"/>
        <pt x="143" y="-10" on="1"/>
        <pt x="143" y="-1" on="0"/>
        <pt x="157" y="49" on="1"/>
        <pt x="223" y="279" on="0"/>
        <pt x="393" y="470" on="1"/>
        <pt x="423" y="504" on="0"/>
        <pt x="472" y="550" on="1"/>
        <pt x="480" y="556" on="0"/>
        <pt x="495" y="570" on="0"/>
        <pt x="496" y="571" on="1"/>
        <pt x="329" y="570" on="1"/>
        <pt x="163" y="570" on="0"/>
        <pt x="163" y="571" on="1"/>
        <pt x="164" y="577" on="1"/>
        <pt x="166" y="583" on="0"/>
        <pt x="171" y="604" on="0"/>
      </contour>
    </TTGlyph>
    <TTGlyph name="six" xMin="94" yMin="-22" xMax="548" yMax="678">
      <contour>
        <pt x="246" y="-22" on="1"/>
        <pt x="168" y="-22" on="0"/>
        <pt x="94" y="88" on="0"/>
        <pt x="94" y="179" on="1"/>
        <pt x="94" y="275" on="0"/>
        <pt x="123" y="373" on="1"/>
        <pt x="151" y="465" on="0"/>
        <pt x="267" y="613" on="0"/>
        <pt x="340" y="650" on="1"/>
        <pt x="396" y="678" on="0"/>
        <pt x="450" y="678" on="1"/>
        <pt x="477" y="678" on="0"/>
        <pt x="500" y="673" on="1"/>
        <pt x="515" y="670" on="0"/>
        <pt x="548" y="658" on="0"/>
        <pt x="548" y="656" on="1"/>
        <pt x="540" y="621" on="1"/>
        <pt x="532" y="586" on="1"/>
        <pt x="532" y="585" on="0"/>
        <pt x="521" y="589" on="1"/>
        <pt x="483" y="605" on="0"/>
        <pt x="437" y="605" on="1"/>
        <pt x="392" y="605" on="0"/>
        <pt x="350" y="578" on="1"/>
        <pt x="282" y="534" on="0"/>
        <pt x="240" y="435" on="1"/>
        <pt x="228" y="404" on="0"/>
        <pt x="228" y="401" on="1"/>
        <pt x="233" y="405" on="0"/>
        <pt x="239" y="409" on="1"/>
        <pt x="302" y="459" on="0"/>
        <pt x="378" y="468" on="1"/>
        <pt x="381" y="468" on="0"/>
        <pt x="397" y="469" on="0"/>
        <pt x="407" y="469" on="0"/>
        <pt x="423" y="468" on="0"/>
        <pt x="424" y="468" on="1"/>
        <pt x="450" y="463" on="0"/>
        <pt x="484" y="429" on="0"/>
        <pt x="498" y="394" on="1"/>
        <pt x="515" y="351" on="0"/>
        <pt x="515" y="307" on="1"/>
        <pt x="515" y="282" on="0"/>
        <pt x="511" y="259" on="1"/>
        <pt x="494" y="150" on="0"/>
        <pt x="439" y="85" on="1"/>
        <pt x="410" y="49" on="0"/>
        <pt x="328" y="-10" on="0"/>
        <pt x="288" y="-18" on="1"/>
        <pt x="262" y="-22" on="0"/>
      </contour>
      <contour>
        <pt x="419" y="298" on="1"/>
        <pt x="419" y="392" on="0"/>
        <pt x="339" y="392" on="1"/>
        <pt x="322" y="392" on="0"/>
        <pt x="318" y="391" on="1"/>
        <pt x="269" y="381" on="0"/>
        <pt x="195" y="280" on="0"/>
        <pt x="189" y="218" on="1"/>
        <pt x="185" y="193" on="0"/>
        <pt x="185" y="163" on="1"/>
        <pt x="185" y="88" on="0"/>
        <pt x="230" y="61" on="1"/>
        <pt x="244" y="54" on="0"/>
        <pt x="262" y="54" on="1"/>
        <pt x="325" y="54" on="0"/>
        <pt x="371" y="122" on="1"/>
        <pt x="395" y="158" on="0"/>
        <pt x="410" y="236" on="1"/>
        <pt x="419" y="278" on="0"/>
      </contour>
    </TTGlyph>
    <TTGlyph name="slash" xMin="6" yMin="-250" xMax="599" yMax="750">
      <contour>
        <pt x="27" y="-250" on="1"/>
        <pt x="6" y="-250" on="0"/>
        <pt x="6" y="-230" on="1"/>
        <pt x="6" y="-228" on="0"/>
        <pt x="8" y="-222" on="1"/>
        <pt x="9" y="-219" on="0"/>
        <pt x="562" y="742" on="0"/>
        <pt x="564" y="744" on="1"/>
        <pt x="570" y="748" on="1"/>
        <pt x="576" y="750" on="0"/>
        <pt x="579" y="750" on="1"/>
        <pt x="588" y="750" on="0"/>
        <pt x="600" y="738" on="0"/>
        <pt x="599" y="729" on="1"/>
        <pt x="597" y="721" on="0"/>
        <pt x="44" y="-240" on="0"/>
        <pt x="41" y="-243" on="1"/>
        <pt x="37" y="-250" on="0"/>
      </contour>
    </TTGlyph>
    <TTGlyph name="t" xMin="97" yMin="-11" xMax="410" yMax="571">
      <contour>
        <pt x="177" y="-11" on="1"/>
        <pt x="118" y="-11" on="0"/>
        <pt x="118" y="75" on="1"/>
        <pt x="118" y="98" on="0"/>
        <pt x="123" y="127" on="1"/>
        <pt x="125" y="137" on="0"/>
        <pt x="173" y="366" on="0"/>
        <pt x="174" y="369" on="1"/>
        <pt x="174" y="371" on="0"/>
        <pt x="135" y="371" on="1"/>
        <pt x="97" y="371" on="1"/>
        <pt x="97" y="373" on="1"/>
        <pt x="105" y="410" on="1"/>
        <pt x="112" y="444" on="1"/>
        <pt x="152" y="444" on="1"/>
        <pt x="192" y="445" on="1"/>
        <pt x="200" y="478" on="1"/>
        <pt x="208" y="512" on="0"/>
        <pt x="213" y="541" on="1"/>
        <pt x="219" y="571" on="1"/>
        <pt x="261" y="571" on="1"/>
        <pt x="303" y="571" on="0"/>
        <pt x="303" y="569" on="0"/>
        <pt x="290" y="506" on="1"/>
        <pt x="276" y="444" on="1"/>
        <pt x="343" y="444" on="1"/>
        <pt x="410" y="444" on="0"/>
        <pt x="410" y="443" on="1"/>
        <pt x="410" y="440" on="0"/>
        <pt x="395" y="374" on="0"/>
        <pt x="395" y="371" on="1"/>
        <pt x="328" y="371" on="1"/>
        <pt x="261" y="371" on="0"/>
        <pt x="261" y="369" on="1"/>
        <pt x="256" y="360" on="0"/>
        <pt x="214" y="148" on="1"/>
        <pt x="211" y="132" on="0"/>
        <pt x="211" y="118" on="1"/>
        <pt x="211" y="68" on="0"/>
        <pt x="245" y="68" on="1"/>
        <pt x="289" y="68" on="0"/>
        <pt x="334" y="98" on="1"/>
        <pt x="338" y="94" on="0"/>
        <pt x="338" y="28" on="1"/>
        <pt x="338" y="24" on="1"/>
        <pt x="324" y="19" on="1"/>
        <pt x="268" y="-4" on="0"/>
        <pt x="218" y="-8" on="1"/>
        <pt x="198" y="-11" on="0"/>
      </contour>
    </TTGlyph>
    <TTGlyph name="three" xMin="56" yMin="-22" xMax="544" yMax="678">
      <contour>
        <pt x="446" y="542" on="1"/>
        <pt x="446" y="572" on="0"/>
        <pt x="406" y="605" on="0"/>
        <pt x="372" y="605" on="1"/>
        <pt x="330" y="605" on="0"/>
        <pt x="245" y="561" on="0"/>
        <pt x="216" y="524" on="1"/>
        <pt x="209" y="515" on="0"/>
        <pt x="208" y="516" on="1"/>
        <pt x="207" y="517" on="0"/>
        <pt x="192" y="549" on="1"/>
        <pt x="178" y="580" on="1"/>
        <pt x="187" y="589" on="1"/>
        <pt x="264" y="668" on="0"/>
        <pt x="365" y="677" on="1"/>
        <pt x="372" y="678" on="0"/>
        <pt x="386" y="678" on="1"/>
        <pt x="448" y="678" on="0"/>
        <pt x="489" y="650" on="1"/>
        <pt x="507" y="636" on="0"/>
        <pt x="520" y="621" on="1"/>
        <pt x="544" y="589" on="0"/>
        <pt x="544" y="550" on="1"/>
        <pt x="544" y="548" on="0"/>
        <pt x="543" y="540" on="0"/>
        <pt x="543" y="538" on="1"/>
        <pt x="535" y="456" on="0"/>
        <pt x="462" y="394" on="1"/>
        <pt x="438" y="373" on="0"/>
        <pt x="406" y="355" on="1"/>
        <pt x="403" y="353" on="1"/>
        <pt x="413" y="348" on="1"/>
        <pt x="440" y="335" on="0"/>
        <pt x="462" y="313" on="1"/>
        <pt x="500" y="270" on="0"/>
        <pt x="500" y="217" on="1"/>
        <pt x="500" y="204" on="0"/>
        <pt x="498" y="192" on="1"/>
        <pt x="488" y="136" on="0"/>
        <pt x="411" y="36" on="0"/>
        <pt x="355" y="7" on="1"/>
        <pt x="295" y="-22" on="0"/>
        <pt x="236" y="-22" on="1"/>
        <pt x="127" y="-22" on="0"/>
        <pt x="63" y="59" on="1"/>
        <pt x="56" y="68" on="1"/>
        <pt x="57" y="68" on="0"/>
        <pt x="85" y="140" on="0"/>
        <pt x="85" y="141" on="1"/>
        <pt x="88" y="138" on="0"/>
        <pt x="92" y="133" on="1"/>
        <pt x="105" y="113" on="0"/>
        <pt x="125" y="98" on="1"/>
        <pt x="177" y="54" on="0"/>
        <pt x="254" y="54" on="1"/>
        <pt x="306" y="54" on="0"/>
        <pt x="385" y="135" on="0"/>
        <pt x="395" y="198" on="1"/>
        <pt x="396" y="204" on="0"/>
        <pt x="396" y="218" on="1"/>
        <pt x="396" y="297" on="0"/>
        <pt x="335" y="313" on="1"/>
        <pt x="327" y="315" on="0"/>
        <pt x="280" y="316" on="1"/>
        <pt x="233" y="316" on="0"/>
        <pt x="233" y="318" on="1"/>
        <pt x="249" y="392" on="1"/>
        <pt x="254" y="392" on="0"/>
        <pt x="320" y="398" on="0"/>
        <pt x="322" y="399" on="1"/>
        <pt x="365" y="407" on="0"/>
        <pt x="435" y="478" on="0"/>
        <pt x="444" y="522" on="1"/>
        <pt x="446" y="536" on="0"/>
      </contour>
    </TTGlyph>
    <TTGlyph name="tildecomb" xMin="-301" yMin="543" xMax="60" yMax="677">
      <contour>
        <pt x="-185" y="601" on="1"/>
        <pt x="-216" y="601" on="0"/>
        <pt x="-225" y="543" on="1"/>
        <pt x="-301" y="543" on="1"/>
        <pt x="-301" y="547" on="1"/>
        <pt x="-288" y="599" on="0"/>
        <pt x="-220" y="677" on="0"/>
        <pt x="-170" y="677" on="1"/>
        <pt x="-145" y="676" on="0"/>
        <pt x="-118" y="653" on="1"/>
        <pt x="-83" y="622" on="0"/>
        <pt x="-62" y="620" on="1"/>
        <pt x="-50" y="617" on="0"/>
        <pt x="-41" y="623" on="1"/>
        <pt x="-26" y="633" on="0"/>
        <pt x="-16" y="677" on="1"/>
        <pt x="22" y="677" on="1"/>
        <pt x="60" y="677" on="0"/>
        <pt x="60" y="675" on="1"/>
        <pt x="59" y="674" on="0"/>
        <pt x="58" y="670" on="0"/>
        <pt x="58" y="669" on="1"/>
        <pt x="49" y="634" on="0"/>
        <pt x="7" y="572" on="0"/>
        <pt x="-20" y="558" on="1"/>
        <pt x="-47" y="543" on="0"/>
        <pt x="-71" y="543" on="1"/>
        <pt x="-79" y="543" on="0"/>
        <pt x="-83" y="544" on="1"/>
        <pt x="-104" y="550" on="0"/>
        <pt x="-132" y="574" on="1"/>
        <pt x="-164" y="601" on="0"/>
      </contour>
    </TTGlyph>
    <TTGlyph name="two" xMin="50" yMin="0" xMax="551" yMax="678">
      <contour>
        <pt x="452" y="492" on="1"/>
        <pt x="452" y="543" on="0"/>
        <pt x="398" y="599" on="0"/>
        <pt x="350" y="599" on="1"/>
        <pt x="318" y="599" on="0"/>
        <pt x="267" y="576" on="0"/>
        <pt x="227" y="528" on="0"/>
        <pt x="206" y="492" on="0"/>
        <pt x="190" y="460" on="1"/>
        <pt x="189" y="460" on="0"/>
        <pt x="171" y="493" on="1"/>
        <pt x="155" y="524" on="0"/>
        <pt x="155" y="527" on="1"/>
        <pt x="155" y="532" on="0"/>
        <pt x="182" y="571" on="1"/>
        <pt x="260" y="678" on="0"/>
        <pt x="380" y="678" on="1"/>
        <pt x="452" y="678" on="0"/>
        <pt x="540" y="603" on="0"/>
        <pt x="550" y="537" on="1"/>
        <pt x="551" y="532" on="0"/>
        <pt x="551" y="513" on="1"/>
        <pt x="551" y="489" on="0"/>
        <pt x="549" y="471" on="1"/>
        <pt x="538" y="404" on="0"/>
        <pt x="487" y="349" on="1"/>
        <pt x="453" y="310" on="0"/>
        <pt x="360" y="243" on="1"/>
        <pt x="328" y="221" on="0"/>
        <pt x="316" y="212" on="1"/>
        <pt x="304" y="204" on="0"/>
        <pt x="158" y="87" on="0"/>
        <pt x="158" y="85" on="0"/>
        <pt x="188" y="85" on="1"/>
        <pt x="194" y="85" on="0"/>
        <pt x="274" y="86" on="0"/>
        <pt x="311" y="86" on="1"/>
        <pt x="467" y="86" on="0"/>
        <pt x="467" y="85" on="1"/>
        <pt x="451" y="9" on="0"/>
        <pt x="449" y="2" on="1"/>
        <pt x="449" y="0" on="1"/>
        <pt x="50" y="0" on="1"/>
        <pt x="54" y="18" on="0"/>
        <pt x="58" y="40" on="1"/>
        <pt x="67" y="79" on="1"/>
        <pt x="133" y="133" on="1"/>
        <pt x="246" y="226" on="0"/>
        <pt x="269" y="243" on="1"/>
        <pt x="305" y="270" on="0"/>
        <pt x="332" y="292" on="1"/>
        <pt x="435" y="379" on="0"/>
        <pt x="450" y="462" on="1"/>
        <pt x="452" y="476" on="0"/>
      </contour>
    </TTGlyph>
    <TTGlyph name="u" xMin="90" yMin="-10" xMax="537" yMax="444">
      <contour>
        <pt x="166" y="-10" on="1"/>
        <pt x="125" y="-10" on="0"/>
        <pt x="90" y="23" on="0"/>
        <pt x="90" y="63" on="1"/>
        <pt x="90" y="77" on="0"/>
        <pt x="91" y="83" on="1"/>
        <pt x="93" y="95" on="0"/>
        <pt x="131" y="274" on="0"/>
        <pt x="167" y="442" on="0"/>
        <pt x="167" y="444" on="0"/>
        <pt x="214" y="444" on="1"/>
        <pt x="260" y="444" on="0"/>
        <pt x="260" y="443" on="1"/>
        <pt x="244" y="366" on="0"/>
        <pt x="224" y="273" on="1"/>
        <pt x="187" y="97" on="0"/>
        <pt x="187" y="86" on="1"/>
        <pt x="187" y="70" on="0"/>
        <pt x="215" y="59" on="0"/>
        <pt x="250" y="59" on="1"/>
        <pt x="298" y="59" on="0"/>
        <pt x="369" y="105" on="0"/>
        <pt x="379" y="139" on="1"/>
        <pt x="380" y="143" on="0"/>
        <pt x="444" y="441" on="0"/>
        <pt x="444" y="443" on="1"/>
        <pt x="444" y="444" on="0"/>
        <pt x="491" y="444" on="1"/>
        <pt x="537" y="444" on="0"/>
        <pt x="537" y="442" on="0"/>
        <pt x="444" y="7" on="0"/>
        <pt x="443" y="2" on="1"/>
        <pt x="443" y="0" on="1"/>
        <pt x="353" y="0" on="1"/>
        <pt x="353" y="2" on="1"/>
        <pt x="361" y="38" on="1"/>
        <pt x="361" y="39" on="0"/>
        <pt x="357" y="37" on="1"/>
        <pt x="324" y="16" on="0"/>
        <pt x="217" y="-10" on="0"/>
      </contour>
    </TTGlyph>
    <TTGlyph name="underscore" xMin="50" yMin="-114" xMax="565" yMax="-38">
      <contour>
        <pt x="59" y="-75" on="1"/>
        <pt x="66" y="-38" on="1"/>
        <pt x="316" y="-38" on="1"/>
        <pt x="565" y="-38" on="0"/>
        <pt x="565" y="-40" on="0"/>
        <pt x="550" y="-111" on="0"/>
        <pt x="549" y="-112" on="1"/>
        <pt x="549" y="-114" on="0"/>
        <pt x="299" y="-114" on="1"/>
        <pt x="50" y="-114" on="0"/>
        <pt x="50" y="-113" on="1"/>
        <pt x="52" y="-108" on="1"/>
        <pt x="53" y="-103" on="0"/>
        <pt x="57" y="-83" on="0"/>
      </contour>
    </TTGlyph>
    <TTGlyph name="uni0237" xMin="-96" yMin="-204" xMax="286" yMax="444">
      <contour>
        <pt x="196" y="443" on="1"/>
        <pt x="196" y="444" on="0"/>
        <pt x="286" y="444" on="0"/>
        <pt x="286" y="443" on="1"/>
        <pt x="286" y="441" on="0"/>
        <pt x="177" y="-70" on="0"/>
        <pt x="175" y="-75" on="1"/>
        <pt x="162" y="-123" on="0"/>
        <pt x="91" y="-193" on="0"/>
        <pt x="46" y="-203" on="1"/>
        <pt x="40" y="-204" on="0"/>
        <pt x="19" y="-204" on="1"/>
        <pt x="-22" y="-204" on="0"/>
        <pt x="-54" y="-192" on="1"/>
        <pt x="-96" y="-176" on="0"/>
        <pt x="-96" y="-170" on="1"/>
        <pt x="-96" y="-167" on="0"/>
        <pt x="-75" y="-130" on="0"/>
        <pt x="-64" y="-113" on="1"/>
        <pt x="-54" y="-96" on="1"/>
        <pt x="-52" y="-99" on="0"/>
        <pt x="-49" y="-101" on="1"/>
        <pt x="-30" y="-126" on="0"/>
        <pt x="7" y="-126" on="1"/>
        <pt x="32" y="-126" on="0"/>
        <pt x="73" y="-103" on="0"/>
        <pt x="82" y="-87" on="1"/>
      </contour>
    </TTGlyph>
    <TTGlyph name="uni0302" xMin="-310" yMin="527" xMax="33" yMax="694">
      <contour>
        <pt x="-191" y="644" on="1"/>
        <pt x="-140" y="694" on="1"/>
        <pt x="-66" y="694" on="1"/>
        <pt x="-16" y="611" on="1"/>
        <pt x="33" y="528" on="0"/>
        <pt x="33" y="527" on="1"/>
        <pt x="-43" y="527" on="1"/>
        <pt x="-74" y="576" on="1"/>
        <pt x="-88" y="596" on="0"/>
        <pt x="-114" y="637" on="0"/>
        <pt x="-115" y="639" on="1"/>
        <pt x="-195" y="565" on="0"/>
        <pt x="-234" y="527" on="1"/>
        <pt x="-310" y="527" on="1"/>
        <pt x="-276" y="561" on="1"/>
        <pt x="-266" y="570" on="0"/>
        <pt x="-204" y="631" on="0"/>
      </contour>
    </TTGlyph>
    <TTGlyph name="uni0304" xMin="-314" yMin="552" xMax="64" yMax="631">
      <contour>
        <pt x="-314" y="553" on="1"/>
        <pt x="-313" y="554" on="0"/>
        <pt x="-305" y="591" on="0"/>
        <pt x="-297" y="630" on="0"/>
        <pt x="-297" y="631" on="1"/>
        <pt x="-116" y="631" on="1"/>
        <pt x="64" y="631" on="0"/>
        <pt x="64" y="630" on="1"/>
        <pt x="60" y="612" on="0"/>
        <pt x="56" y="591" on="1"/>
        <pt x="47" y="553" on="1"/>
        <pt x="-133" y="552" on="1"/>
        <pt x="-314" y="552" on="0"/>
      </contour>
    </TTGlyph>
    <TTGlyph name="uni0306" xMin="-284" yMin="508" xMax="73" yMax="694">
      <contour>
        <pt x="-142" y="508" on="1"/>
        <pt x="-204" y="508" on="0"/>
        <pt x="-284" y="590" on="0"/>
        <pt x="-284" y="652" on="1"/>
        <pt x="-284" y="666" on="0"/>
        <pt x="-281" y="683" on="1"/>
        <pt x="-280" y="694" on="1"/>
        <pt x="-204" y="694" on="1"/>
        <pt x="-205" y="689" on="0"/>
        <pt x="-205" y="677" on="1"/>
        <pt x="-205" y="620" on="0"/>
        <pt x="-162" y="599" on="1"/>
        <pt x="-147" y="590" on="0"/>
        <pt x="-125" y="590" on="1"/>
        <pt x="-86" y="590" on="0"/>
        <pt x="-14" y="649" on="0"/>
        <pt x="-5" y="686" on="1"/>
        <pt x="-2" y="694" on="1"/>
        <pt x="73" y="694" on="1"/>
        <pt x="73" y="690" on="1"/>
        <pt x="57" y="628" on="0"/>
        <pt x="9" y="576" on="1"/>
        <pt x="-61" y="508" on="0"/>
      </contour>
    </TTGlyph>
    <TTGlyph name="uni0307" xMin="-180" yMin="576" xMax="-54" yMax="680">
      <contour>
        <pt x="-180" y="578" on="1"/>
        <pt x="-169" y="628" on="1"/>
        <pt x="-158" y="678" on="1"/>
        <pt x="-158" y="680" on="1"/>
        <pt x="-54" y="680" on="1"/>
        <pt x="-54" y="678" on="1"/>
        <pt x="-55" y="678" on="0"/>
        <pt x="-66" y="628" on="1"/>
        <pt x="-76" y="578" on="1"/>
        <pt x="-76" y="576" on="1"/>
        <pt x="-180" y="576" on="1"/>
      </contour>
    </TTGlyph>
    <TTGlyph name="uni0308" xMin="-273" yMin="582" xMax="40" yMax="680">
      <contour>
        <pt x="-273" y="584" on="1"/>
        <pt x="-252" y="678" on="1"/>
        <pt x="-252" y="680" on="1"/>
        <pt x="-154" y="680" on="1"/>
        <pt x="-154" y="678" on="1"/>
        <pt x="-164" y="632" on="1"/>
        <pt x="-174" y="585" on="0"/>
        <pt x="-175" y="584" on="1"/>
        <pt x="-175" y="582" on="0"/>
        <pt x="-273" y="582" on="0"/>
      </contour>
      <contour>
        <pt x="-78" y="586" on="1"/>
        <pt x="-78" y="587" on="0"/>
        <pt x="-59" y="677" on="0"/>
        <pt x="-58" y="678" on="1"/>
        <pt x="-58" y="680" on="1"/>
        <pt x="40" y="680" on="1"/>
        <pt x="39" y="677" on="1"/>
        <pt x="39" y="676" on="0"/>
        <pt x="36" y="663" on="0"/>
        <pt x="31" y="638" on="0"/>
        <pt x="29" y="628" on="1"/>
        <pt x="19" y="583" on="1"/>
        <pt x="-30" y="582" on="1"/>
        <pt x="-79" y="582" on="1"/>
      </contour>
    </TTGlyph>
    <TTGlyph name="uni030A" xMin="-227" yMin="527" xMax="-2" yMax="693">
      <contour>
        <pt x="-132" y="527" on="1"/>
        <pt x="-169" y="527" on="0"/>
        <pt x="-227" y="564" on="0"/>
        <pt x="-227" y="597" on="1"/>
        <pt x="-227" y="627" on="0"/>
        <pt x="-203" y="651" on="1"/>
        <pt x="-165" y="693" on="0"/>
        <pt x="-102" y="693" on="1"/>
        <pt x="-75" y="693" on="0"/>
        <pt x="-70" y="692" on="1"/>
        <pt x="-41" y="686" on="0"/>
        <pt x="-2" y="651" on="0"/>
        <pt x="-2" y="623" on="1"/>
        <pt x="-2" y="601" on="0"/>
        <pt x="-17" y="580" on="1"/>
        <pt x="-35" y="555" on="0"/>
        <pt x="-99" y="527" on="0"/>
      </contour>
      <contour>
        <pt x="-59" y="619" on="1"/>
        <pt x="-59" y="652" on="0"/>
        <pt x="-104" y="652" on="1"/>
        <pt x="-133" y="652" on="0"/>
        <pt x="-171" y="626" on="0"/>
        <pt x="-171" y="602" on="1"/>
        <pt x="-171" y="569" on="0"/>
        <pt x="-123" y="569" on="1"/>
        <pt x="-119" y="569" on="0"/>
        <pt x="-101" y="571" on="0"/>
        <pt x="-99" y="571" on="1"/>
        <pt x="-59" y="582" on="0"/>
      </contour>
    </TTGlyph>
    <TTGlyph name="uni030B" xMin="-287" yMin="527" xMax="63" yMax="694">
      <contour>
        <pt x="-236" y="619" on="1"/>
        <pt x="-195" y="694" on="1"/>
        <pt x="-149" y="694" on="1"/>
        <pt x="-103" y="694" on="0"/>
        <pt x="-103" y="693" on="1"/>
        <pt x="-127" y="656" on="0"/>
        <pt x="-157" y="610" on="1"/>
        <pt x="-211" y="527" on="1"/>
        <pt x="-287" y="527" on="1"/>
        <pt x="-282" y="536" on="1"/>
        <pt x="-281" y="539" on="0"/>
      </contour>
      <contour>
        <pt x="-70" y="619" on="1"/>
        <pt x="-29" y="694" on="1"/>
        <pt x="17" y="694" on="1"/>
        <pt x="63" y="694" on="0"/>
        <pt x="63" y="693" on="1"/>
        <pt x="39" y="656" on="0"/>
        <pt x="9" y="610" on="1"/>
        <pt x="-45" y="527" on="1"/>
        <pt x="-121" y="527" on="1"/>
        <pt x="-116" y="536" on="1"/>
        <pt x="-115" y="539" on="0"/>
      </contour>
    </TTGlyph>
    <TTGlyph name="uni030C" xMin="-283" yMin="487" xMax="60" yMax="654">
      <contour>
        <pt x="-283" y="654" on="1"/>
        <pt x="-207" y="654" on="1"/>
        <pt x="-176" y="605" on="1"/>
        <pt x="-162" y="585" on="0"/>
        <pt x="-136" y="544" on="0"/>
        <pt x="-135" y="542" on="1"/>
        <pt x="-55" y="616" on="0"/>
        <pt x="-16" y="654" on="1"/>
        <pt x="60" y="654" on="1"/>
        <pt x="20" y="615" on="0"/>
        <pt x="-59" y="536" on="1"/>
        <pt x="-109" y="487" on="1"/>
        <pt x="-147" y="487" on="1"/>
        <pt x="-184" y="488" on="1"/>
        <pt x="-234" y="570" on="1"/>
        <pt x="-283" y="653" on="0"/>
      </contour>
    </TTGlyph>
    <TTGlyph name="uniEFFD" xMin="0" yMin="0" xMax="700" yMax="100">
      <contour>
        <pt x="0" y="0" on="1"/>
        <pt x="0" y="100" on="1"/>
        <pt x="100" y="100" on="1"/>
        <pt x="100" y="0" on="1"/>
      </contour>
      <contour>
        <pt x="600" y="0" on="1"/>
        <pt x="600" y="100" on="1"/>
        <pt x="700" y="100" on="1"/>
        <pt x="700" y="0" on="1"/>
      </contour>
    </TTGlyph>
    <TTGlyph name="uniEFFE" xMin="0" yMin="0" xMax="300" yMax="100">
      <contour>
        <pt x="0" y="0" on="1"/>
        <pt x="0" y="100" on="1"/>
        <pt x="100" y="100" on="1"/>
        <pt x="100" y="0" on="1"/>
      </contour>
      <contour>
        <pt x="200" y="0" on="1"/>
        <pt x="200" y="100" on="1"/>
        <pt x="300" y="100" on="1"/>
        <pt x="300" y="0" on="1"/>
      </contour>
    </TTGlyph>
    <TTGlyph name="uniEFFF" xMin="0" yMin="0" xMax="100" yMax="100">
      <contour>
        <pt x="0" y="0" on="1"/>
        <pt x="0" y="100" on="1"/>
        <pt x="100" y="100" on="1"/>
        <pt x="100" y="0" on="1"/>
      </contour>
    </TTGlyph>
    <TTGlyph name="v" xMin="108" yMin="0" xMax="540" yMax="444">
      <contour>
        <pt x="177" y="6" on="1"/>
        <pt x="108" y="442" on="1"/>
        <pt x="108" y="444" on="1"/>
        <pt x="201" y="444" on="1"/>
        <pt x="201" y="442" on="1"/>
        <pt x="207" y="408" on="1"/>
        <pt x="246" y="157" on="0"/>
        <pt x="246" y="90" on="1"/>
        <pt x="246" y="65" on="1"/>
        <pt x="248" y="73" on="1"/>
        <pt x="267" y="129" on="0"/>
        <pt x="429" y="406" on="1"/>
        <pt x="450" y="444" on="1"/>
        <pt x="495" y="444" on="1"/>
        <pt x="540" y="444" on="0"/>
        <pt x="540" y="443" on="1"/>
        <pt x="539" y="442" on="0"/>
        <pt x="411" y="221" on="1"/>
        <pt x="282" y="1" on="1"/>
        <pt x="230" y="0" on="1"/>
        <pt x="178" y="0" on="1"/>
      </contour>
    </TTGlyph>
    <TTGlyph name="w" xMin="108" yMin="0" xMax="762" yMax="444">
      <contour>
        <pt x="148" y="5" on="1"/>
        <pt x="147" y="8" on="0"/>
        <pt x="109" y="437" on="0"/>
        <pt x="109" y="440" on="1"/>
        <pt x="108" y="444" on="1"/>
        <pt x="199" y="444" on="1"/>
        <pt x="199" y="442" on="1"/>
        <pt x="201" y="440" on="0"/>
        <pt x="203" y="398" on="1"/>
        <pt x="219" y="222" on="0"/>
        <pt x="219" y="140" on="1"/>
        <pt x="219" y="108" on="0"/>
        <pt x="215" y="76" on="1"/>
        <pt x="215" y="72" on="0"/>
        <pt x="214" y="67" on="1"/>
        <pt x="214" y="65" on="1"/>
        <pt x="215" y="65" on="0"/>
        <pt x="217" y="75" on="1"/>
        <pt x="226" y="110" on="0"/>
        <pt x="278" y="221" on="1"/>
        <pt x="308" y="283" on="0"/>
        <pt x="372" y="409" on="1"/>
        <pt x="390" y="444" on="1"/>
        <pt x="475" y="444" on="1"/>
        <pt x="475" y="437" on="1"/>
        <pt x="497" y="201" on="0"/>
        <pt x="497" y="121" on="1"/>
        <pt x="497" y="90" on="0"/>
        <pt x="494" y="70" on="1"/>
        <pt x="494" y="67" on="0"/>
        <pt x="494" y="67" on="1"/>
        <pt x="496" y="73" on="1"/>
        <pt x="507" y="104" on="0"/>
        <pt x="550" y="198" on="0"/>
        <pt x="577" y="253" on="0"/>
        <pt x="648" y="394" on="0"/>
        <pt x="654" y="405" on="1"/>
        <pt x="674" y="444" on="1"/>
        <pt x="718" y="444" on="1"/>
        <pt x="762" y="444" on="0"/>
        <pt x="762" y="443" on="1"/>
        <pt x="711" y="343" on="0"/>
        <pt x="648" y="222" on="1"/>
        <pt x="534" y="1" on="1"/>
        <pt x="483" y="0" on="1"/>
        <pt x="432" y="0" on="1"/>
        <pt x="432" y="5" on="1"/>
        <pt x="424" y="54" on="0"/>
        <pt x="418" y="180" on="1"/>
        <pt x="414" y="227" on="0"/>
        <pt x="413" y="283" on="1"/>
        <pt x="413" y="343" on="0"/>
        <pt x="416" y="370" on="1"/>
        <pt x="417" y="378" on="1"/>
        <pt x="416" y="377" on="0"/>
        <pt x="416" y="376" on="1"/>
        <pt x="411" y="351" on="0"/>
        <pt x="383" y="286" on="1"/>
        <pt x="334" y="174" on="0"/>
        <pt x="248" y="12" on="1"/>
        <pt x="242" y="0" on="1"/>
        <pt x="148" y="0" on="1"/>
      </contour>
    </TTGlyph>
    <TTGlyph name="x" xMin="1" yMin="0" xMax="537" yMax="444">
      <contour>
        <pt x="226" y="244" on="1"/>
        <pt x="210" y="269" on="0"/>
        <pt x="148" y="369" on="0"/>
        <pt x="101" y="442" on="0"/>
        <pt x="100" y="444" on="1"/>
        <pt x="201" y="444" on="1"/>
        <pt x="245" y="369" on="1"/>
        <pt x="290" y="294" on="1"/>
        <pt x="324" y="328" on="0"/>
        <pt x="364" y="369" on="1"/>
        <pt x="438" y="444" on="1"/>
        <pt x="537" y="444" on="1"/>
        <pt x="528" y="435" on="1"/>
        <pt x="526" y="432" on="0"/>
        <pt x="497" y="404" on="0"/>
        <pt x="438" y="347" on="0"/>
        <pt x="418" y="327" on="1"/>
        <pt x="317" y="229" on="1"/>
        <pt x="317" y="228" on="0"/>
        <pt x="457" y="4" on="1"/>
        <pt x="460" y="0" on="1"/>
        <pt x="409" y="0" on="1"/>
        <pt x="359" y="1" on="1"/>
        <pt x="312" y="88" on="1"/>
        <pt x="266" y="176" on="0"/>
        <pt x="265" y="176" on="1"/>
        <pt x="265" y="177" on="0"/>
        <pt x="243" y="153" on="0"/>
        <pt x="203" y="111" on="0"/>
        <pt x="182" y="88" on="1"/>
        <pt x="100" y="0" on="1"/>
        <pt x="1" y="0" on="1"/>
        <pt x="15" y="14" on="1"/>
        <pt x="29" y="28" on="0"/>
        <pt x="93" y="90" on="0"/>
        <pt x="118" y="115" on="1"/>
        <pt x="236" y="229" on="1"/>
      </contour>
    </TTGlyph>
    <TTGlyph name="y" xMin="1" yMin="-205" xMax="540" yMax="444">
      <contour>
        <pt x="109" y="442" on="1"/>
        <pt x="109" y="444" on="0"/>
        <pt x="156" y="444" on="1"/>
        <pt x="203" y="444" on="1"/>
        <pt x="204" y="439" on="1"/>
        <pt x="205" y="434" on="0"/>
        <pt x="209" y="414" on="0"/>
        <pt x="211" y="405" on="1"/>
        <pt x="245" y="241" on="0"/>
        <pt x="252" y="153" on="1"/>
        <pt x="254" y="131" on="0"/>
        <pt x="254" y="114" on="1"/>
        <pt x="254" y="81" on="0"/>
        <pt x="250" y="67" on="1"/>
        <pt x="250" y="65" on="1"/>
        <pt x="254" y="76" on="1"/>
        <pt x="261" y="104" on="0"/>
        <pt x="297" y="177" on="1"/>
        <pt x="339" y="259" on="0"/>
        <pt x="422" y="397" on="1"/>
        <pt x="450" y="444" on="1"/>
        <pt x="540" y="444" on="1"/>
        <pt x="540" y="443" on="0"/>
        <pt x="231" y="-71" on="0"/>
        <pt x="219" y="-90" on="1"/>
        <pt x="153" y="-195" on="0"/>
        <pt x="89" y="-204" on="1"/>
        <pt x="85" y="-205" on="0"/>
        <pt x="73" y="-205" on="1"/>
        <pt x="52" y="-205" on="0"/>
        <pt x="34" y="-202" on="1"/>
        <pt x="29" y="-202" on="0"/>
        <pt x="13" y="-199" on="0"/>
        <pt x="7" y="-198" on="1"/>
        <pt x="1" y="-197" on="1"/>
        <pt x="1" y="-196" on="0"/>
        <pt x="11" y="-118" on="0"/>
        <pt x="11" y="-117" on="1"/>
        <pt x="15" y="-118" on="0"/>
        <pt x="19" y="-120" on="1"/>
        <pt x="51" y="-132" on="0"/>
        <pt x="84" y="-132" on="1"/>
        <pt x="100" y="-132" on="1"/>
        <pt x="123" y="-122" on="0"/>
        <pt x="149" y="-85" on="1"/>
        <pt x="200" y="-6" on="0"/>
        <pt x="200" y="1" on="1"/>
        <pt x="177" y="110" on="1"/>
        <pt x="154" y="218" on="0"/>
        <pt x="109" y="438" on="0"/>
      </contour>
    </TTGlyph>
    <TTGlyph name="z" xMin="28" yMin="0" xMax="494" yMax="444">
      <contour>
        <pt x="129" y="408" on="1"/>
        <pt x="136" y="444" on="1"/>
        <pt x="315" y="444" on="1"/>
        <pt x="494" y="444" on="0"/>
        <pt x="494" y="443" on="1"/>
        <pt x="494" y="441" on="0"/>
        <pt x="489" y="419" on="1"/>
        <pt x="484" y="396" on="1"/>
        <pt x="164" y="76" on="1"/>
        <pt x="291" y="77" on="1"/>
        <pt x="418" y="77" on="0"/>
        <pt x="418" y="75" on="0"/>
        <pt x="403" y="7" on="0"/>
        <pt x="402" y="2" on="1"/>
        <pt x="402" y="0" on="1"/>
        <pt x="215" y="0" on="1"/>
        <pt x="28" y="0" on="0"/>
        <pt x="28" y="2" on="1"/>
        <pt x="34" y="27" on="1"/>
        <pt x="38" y="50" on="1"/>
        <pt x="146" y="157" on="0"/>
        <pt x="360" y="371" on="1"/>
        <pt x="240" y="370" on="1"/>
        <pt x="121" y="370" on="0"/>
        <pt x="121" y="371" on="1"/>
        <pt x="124" y="388" on="0"/>
      </contour>
    </TTGlyph>
    <TTGlyph name="zero" xMin="88" yMin="-22" xMax="549" yMax="678">
      <contour>
        <pt x="298" y="654" on="1"/>
        <pt x="346" y="678" on="0"/>
        <pt x="392" y="678" on="1"/>
        <pt x="395" y="678" on="1"/>
        <pt x="439" y="678" on="0"/>
        <pt x="510" y="636" on="0"/>
        <pt x="527" y="600" on="1"/>
        <pt x="549" y="555" on="0"/>
        <pt x="549" y="481" on="1"/>
        <pt x="549" y="454" on="0"/>
        <pt x="546" y="427" on="1"/>
        <pt x="533" y="308" on="0"/>
        <pt x="499" y="213" on="1"/>
        <pt x="459" y="89" on="0"/>
        <pt x="379" y="25" on="1"/>
        <pt x="331" y="-10" on="0"/>
        <pt x="276" y="-20" on="1"/>
        <pt x="262" y="-22" on="0"/>
        <pt x="245" y="-22" on="1"/>
        <pt x="178" y="-22" on="0"/>
        <pt x="135" y="21" on="1"/>
        <pt x="88" y="68" on="0"/>
        <pt x="88" y="171" on="1"/>
        <pt x="88" y="231" on="0"/>
        <pt x="109" y="327" on="1"/>
        <pt x="139" y="472" on="0"/>
        <pt x="194" y="557" on="1"/>
        <pt x="238" y="624" on="0"/>
      </contour>
      <contour>
        <pt x="430" y="582" on="1"/>
        <pt x="408" y="601" on="0"/>
        <pt x="378" y="601" on="1"/>
        <pt x="312" y="601" on="0"/>
        <pt x="269" y="534" on="1"/>
        <pt x="234" y="475" on="0"/>
        <pt x="205" y="341" on="1"/>
        <pt x="181" y="232" on="0"/>
        <pt x="181" y="174" on="1"/>
        <pt x="181" y="134" on="0"/>
        <pt x="192" y="93" on="0"/>
        <pt x="209" y="76" on="1"/>
        <pt x="231" y="54" on="0"/>
        <pt x="289" y="54" on="0"/>
        <pt x="348" y="92" on="0"/>
        <pt x="368" y="125" on="1"/>
        <pt x="410" y="194" on="0"/>
        <pt x="447" y="375" on="1"/>
        <pt x="460" y="445" on="0"/>
        <pt x="460" y="487" on="1"/>
        <pt x="460" y="555" on="0"/>
      </contour>
    </TTGlyph>
</ttFont>
